<svg xmlns="http://www.w3.org/2000/svg" xmlns:ev="http://www.w3.org/2001/xml-events" xmlns:xlink="http://www.w3.org/1999/xlink" width="1936.33" height="1070.333" fill="none" fill-rule="evenodd" stroke-linecap="square" stroke-miterlimit="3" color-interpolation-filters="sRGB" font-size="12" overflow="visible" viewBox="0 0 1452.25 802.75"><style>.st2{fill:none}.st3,.st4,.st5{stroke:#a5a5a5;stroke-linecap:butt;stroke-width:2.25}.st4,.st5{fill:#e6e6e6;stroke:#e6e6e6;stroke-linecap:round;stroke-linejoin:round}.st5{fill:none;stroke-width:.75}.st6{fill:#000;font-family:Segoe UI Semibold;font-size:1.75001em;font-weight:700}.st10,.st8,.st9{stroke-linecap:round;stroke-linejoin:round}.st8,.st9{fill:none;stroke:none;stroke-width:.75}.st9{stroke:#0078d7;stroke-width:2.25}.st10{fill:#fff;stroke:none;stroke-width:.75}.st11,.st12{fill:#0070c0;font-family:Segoe UI Semibold;font-size:1.58334em}.st12{fill:#000;font-size:1.33333em;font-weight:700}.st13,.st14{fill:#0078d7;stroke:none;stroke-linecap:butt;stroke-width:.75}.st14{fill:#fff;stroke-width:.772727}.st16{fill:#0070c0}.st22{stroke:#0070c0;stroke-width:4}.st23{fill:#0070c0;stroke:none;stroke-linecap:round;stroke-linejoin:round;stroke-width:.75}.st24{stroke:#0070c0;stroke-width:.5}.st26{fill:#000;font-family:Segoe UI Semibold;font-size:1.24999em;font-weight:700}.st27,.st28{fill:#fff;stroke:#0078d7;stroke-linecap:round;stroke-linejoin:round;stroke-width:1}.st28{fill:#e4e4e4}.st29{font-size:1em}.st30{fill:none;stroke:#f2f2f2;stroke-linecap:round;stroke-linejoin:round;stroke-width:6}.st31{fill:#000;font-family:Segoe UI;font-size:1.99999em;font-weight:700}.st32,.st38,.st39,.st40{stroke-linecap:round;stroke-linejoin:round}.st32{marker-end:url(#mrkr3-342);stroke:#a5a5a5;stroke-width:2}.st38,.st39{fill:#e6e6e6;stroke:none;stroke-width:2.25}.st39{stroke:#000;stroke-width:1.5}.st40{fill:none;stroke:none;stroke-width:.24}.st42{fill:#a0a1a2}.st42,.st44,.st45{stroke:none;stroke-linecap:butt;stroke-width:.75}.st44{fill:#fff}.st45{fill:#00188f}.st46,.st47{stroke:#7f7f7f;stroke-linecap:round;stroke-linejoin:round;stroke-width:2.25}.st47{stroke-width:4.25}</style><defs id="Markers"><path id="lend3" stroke-linecap="round" stroke-linejoin="round" d="M2 1L0 0l2-1"/><marker id="mrkr3-342" fill="#a5a5a5" stroke="#a5a5a5" stroke-width=".442" orient="auto" overflow="visible"><use transform="scale(-2.26)" xlink:href="#lend3"/></marker></defs><g><g id="shape19697-1"><path stroke="#e6e6e6" stroke-linecap="round" stroke-linejoin="round" stroke-width="3" d="M0 802.75h220.5" transform="rotate(90 273.63 584.005)"/></g><g id="shape19698-4"><path d="M0 433.75c8.47 0 15.33 5.06 15.33 11.3v346.4c0 6.24-6.86 11.3-15.33 11.3v-369z" class="st2" transform="translate(296.969 -172.728)"/><path d="M0 433.75c8.47 0 15.33 5.06 15.33 11.3v346.4c0 6.24-6.86 11.3-15.33 11.3" class="st3" transform="translate(296.969 -172.728)"/></g><g id="group19699-7" transform="translate(25.635 -492.375)"><g id="shape19700-8"><rect width="272.25" height="40.67" y="762.08" class="st4" rx="9" ry="9"/></g><g id="shape19701-10"><path d="M0 769.955h238.5v32.795H0z" class="st5" transform="translate(18 -3.938)"/><text x="4" y="792.65" class="st6" transform="translate(18 -3.938)">Application</text></g></g><g id="group19702-13" transform="translate(25.635 -431.04)"><g id="shape19703-14"><rect width="272.25" height="40.67" y="762.08" class="st4" rx="9" ry="9"/></g><g id="shape19704-16"><path d="M0 769.955h232.313v32.795H0z" class="st5" transform="translate(18 -3.938)"/><text x="4" y="792.65" class="st6" transform="translate(18 -3.938)">Operating System</text></g></g><g id="group19705-19" transform="translate(25.635 -372.54)"><g id="shape19706-20"><rect width="272.25" height="40.67" y="762.08" class="st4" rx="9" ry="9"/></g><g id="shape19707-22"><path d="M0 769.955h238.5v32.795H0z" class="st5" transform="translate(18 -3.938)"/><text x="4" y="792.65" class="st6" transform="translate(18 -3.938)">Azure Resources</text></g></g><g id="group19708-25" transform="translate(25.635 -314.04)"><g id="shape19709-26"><rect width="272.25" height="40.67" y="762.08" class="st4" rx="9" ry="9"/></g><g id="shape19710-28"><path d="M0 769.955h238.5v32.795H0z" class="st5" transform="translate(18 -3.938)"/><text x="4" y="792.65" class="st6" transform="translate(18 -3.938)">Azure Subscription</text></g></g><g id="group19711-31" transform="translate(25.635 -255.54)"><g id="shape19712-32"><rect width="272.25" height="40.67" y="762.08" class="st4" rx="9" ry="9"/></g><g id="shape19713-34"><path d="M0 769.955h238.5v32.795H0z" class="st5" transform="translate(18 -3.938)"/><text x="4" y="792.65" class="st6" transform="translate(18 -3.938)">Azure Tenant</text></g></g><g id="group19714-37" transform="translate(23.385 -179.125)"><g id="shape19715-38"><rect width="276.75" height="47.335" y="755.415" fill="#fff" stroke="#e6e6e6" stroke-linecap="round" stroke-linejoin="round" stroke-width="2.25" rx="9" ry="9"/></g><g id="shape19716-40"><path d="M0 764.58h216v38.17H0z" class="st8" transform="translate(18 -4.583)"/><text x="4" y="789.97" class="st6" transform="translate(18 -4.583)">Custom Sources</text></g></g><g id="shape19717-43"><path d="M0 217.75c13.98 0 25.32 8.02 25.32 17.91v549.18c0 9.89-11.34 17.91-25.32 17.91v-585z" class="st2" transform="rotate(180 441.023 477.886)"/><path d="M0 217.75c13.98 0 25.32 8.02 25.32 17.91v549.18c0 9.89-11.34 17.91-25.32 17.91" class="st3" transform="rotate(180 441.023 477.886)"/></g><g id="group19718-46" transform="translate(868.885 -189.432)"><g id="shape19719-47" transform="translate(41.5)"><rect width="445.5" height="101.591" y="701.159" class="st9" rx="9" ry="9"/></g><g id="group19720-49" transform="translate(0 -37.45)"><g id="shape19721-50"><path d="M0 778.195h66.375v24.555H0z" class="st10" transform="translate(7.75)"/></g><g id="shape19722-52"><path d="M0 778.195h81v24.555H0z" class="st8" transform="translate(0 -2.135)"/><text x="2.78" y="796.17" class="st11" transform="translate(0 -2.135)">Respond</text></g></g><g id="group19723-55" transform="translate(163.714 -13.83)"><g id="shape19724-56"><path d="M0 776.117h80.621v26.633H0z" class="st8"/><text x="4.88" y="794.52" class="st12">Autoscale</text></g><g id="group19725-59" transform="translate(19.224 -38.423)"><g id="shape19726-60"><path d="M2.43 797.91c-1.34 0-2.43 1.08-2.43 2.41 0 1.34 1.08 2.43 2.43 2.43 1.32 0 2.4-1.09 2.39-2.43a2.4 2.4 0 0 0-2.39-2.41z" class="st13" transform="translate(18.683 -10.984)"/></g><g id="shape19727-62"><path d="M21.09 779.48c-8.34 0-15.85-1.37-21.09-3.57v26.84c5.24-2.2 12.75-3.57 21.09-3.57s15.84 1.37 21.08 3.57v-26.84c-5.24 2.2-12.74 3.57-21.08 3.57zm7.58 10.69l-2.08.74-.5 1.21.87 1.72.12.23-1.22 1.22-2.01-.95-1.18.5-.6 1.84-.07.24h-1.73l-.76-2.08-1.18-.5-1.73.89-.23.11-1.23-1.23.96-2-.51-1.2-1.83-.59-.25-.08v-1.72l2.09-.76.5-1.18-.89-1.73-.11-.23 1.22-1.22 2.01.95 1.2-.5.59-1.84.08-.25h1.72l.74 2.09 1.2.5 1.73-.89.23-.11.66.67c.15.25.3.5.46.74l-.85 1.82.5 1.18 1.83.6.25.08v1.73z" class="st13"/></g></g></g></g><g id="group19728-64" transform="translate(868.885 -306.773)"><g id="shape19729-65" transform="translate(41.5)"><rect width="445.5" height="101.591" y="701.159" class="st9" rx="9" ry="9"/></g><g id="group19730-67" transform="translate(0 -37.45)"><g id="shape19731-68"><path d="M0 778.195h66.375v24.555H0z" class="st10" transform="translate(7.75)"/></g><g id="shape19732-70"><path d="M0 778.195h81v24.555H0z" class="st8" transform="translate(0 -2.135)"/><text x="6.85" y="796.17" class="st11" transform="translate(0 -2.135)">Analyze</text></g></g></g><g id="shape19733-73" transform="translate(910.385 -424.728)"><rect width="445.5" height="101.591" y="701.159" class="st9" rx="9" ry="9"/></g><g id="group19734-75" transform="translate(868.885 -462.178)"><g id="shape19735-76"><path d="M0 778.195h66.375v24.555H0z" class="st10" transform="translate(7.75)"/></g><g id="shape19736-78"><path d="M0 778.195h81v24.555H0z" class="st8" transform="translate(0 -2.135)"/><text x="2.9" y="796.17" class="st11" transform="translate(0 -2.135)">Visualize</text></g></g><g id="group19737-81" transform="translate(1159.06 -440.354)"><g id="group19738-82" transform="translate(24.171 -33.623)"><g id="group19739-83"><g id="shape19740-84"><path d="M41.03 802.75H2.74c-1.55 0-2.74-1.19-2.74-2.74v-30.99c0-1.55 1.19-2.74 2.74-2.74h38.29c1.55 0 2.73 1.19 2.73 2.74v30.99c0 1.55-1.18 2.74-2.73 2.74z" class="st14"/></g><g id="shape19741-86"><path fill="#7f7f7f" d="M40.11 802.75H1.82c-1 0-1.82-.82-1.82-1.82v-31c0-1 .82-1.82 1.82-1.82h38.29c1.01 0 1.83.82 1.83 1.82v31c0 1-.82 1.82-1.83 1.82zm-.91-29.17H2.74v26.43H39.2v-26.43zm-19.14 20.05H5.47v-14.58h14.59v14.58zm8.2-8.2h-6.38v-6.38h6.38v6.38zm0 8.2h-6.38v-6.38h6.38v6.38zm8.21-8.2h-6.38v-6.38h6.38v6.38zm0 8.2h-6.38v-6.38h6.38v6.38z" transform="translate(.912 -.912)"/></g></g></g><g id="shape19742-89"><path d="M0 783.686h95.592v19.064H0z" class="st8"/><text x="4.77" y="798.02" class="st12">Dashboards</text></g></g><g id="group19743-92" transform="translate(1061.84 -440.354)"><g id="group19744-93" transform="translate(25.618 -33.375)"><g id="group19745-94"><g id="group19746-95"><g id="shape19747-96"><path d="M41.58 802.75H2.77c-1.57 0-2.77-1.2-2.77-2.77v-31.42c0-1.57 1.2-2.77 2.77-2.77h38.81c1.57 0 2.78 1.2 2.78 2.77v31.42c0 1.57-1.21 2.77-2.78 2.77z" class="st14"/></g><g id="shape19748-98"><path d="M40.66 802.75H1.85c-1.02 0-1.85-.83-1.85-1.85v-31.42c0-1.01.83-1.85 1.85-1.85h38.81c1.02 0 1.85.84 1.85 1.85v31.42c0 1.02-.83 1.85-1.85 1.85zm-.92-29.57H2.77v26.8h36.97v-26.8zm-19.41 20.33H5.54v-14.79h14.79v14.79zm8.32-8.32h-6.47v-6.47h6.47v6.47zm0 8.32h-6.47v-6.47h6.47v6.47zm8.31-8.32h-6.47v-6.47h6.47v6.47zm0 8.32h-6.47v-6.47h6.47v6.47z" class="st16" transform="translate(.924 -.924)"/></g></g></g><g id="shape19749-101"><path d="M0 788.823h34.072v13.927H0z" class="st10" transform="translate(5.185 -4.555)"/></g></g><g id="shape19750-103"><path d="M0 783.686h95.592v19.064H0z" class="st8"/><text x="26.82" y="798.02" class="st12">Views</text></g></g><g id="group19751-106" transform="translate(959.606 -440.354)"><g id="shape19752-107"><path d="M0 783.686h95.592v19.064H0z" class="st8"/><text x="6.11" y="798.02" class="st12">Workbooks</text></g><g id="group19753-110" transform="translate(32.982 -34.297)"><g id="shape19754-111"><path fill="#fff" stroke="#0070c0" stroke-linecap="round" stroke-linejoin="round" stroke-width=".5" d="M0 767.629h29.628v35.121H0z"/></g><g id="shape19755-113"><path fill="#0070c0" stroke-linecap="round" stroke-linejoin="round" stroke-width="2" d="M0 769.17h28.364v33.58H0z" transform="translate(0 -.253)"/></g><g id="shape19756-115"><path fill="#fff" stroke-linecap="round" stroke-linejoin="round" stroke-width="2" d="M0 793.95h14.182v8.8H0z" transform="translate(7.091 -19.706)"/></g></g></g><g id="shape19757-117" transform="translate(910.385 -542.682)"><rect width="445.5" height="101.591" y="701.159" class="st9" rx="9" ry="9"/></g><g id="group19758-119" transform="translate(868.885 -580.133)"><g id="shape19759-120"><path d="M0 778.195h66.375v24.555H0z" class="st10" transform="translate(7.75)"/></g><g id="shape19760-122"><path d="M0 778.195h81v24.555H0z" class="st8" transform="translate(0 -2.135)"/><text x="6.83" y="796.17" class="st11" transform="translate(0 -2.135)">Insights</text></g></g><g id="group19761-125" transform="translate(868.885 -70.182)"><g id="shape19762-126" transform="translate(41.5)"><rect width="445.5" height="101.591" y="701.159" class="st9" rx="9" ry="9"/></g><g id="group19763-128" transform="translate(0 -37.45)"><g id="shape19764-129"><path d="M0 778.195h66.375v24.555H0z" class="st10" transform="translate(7.75)"/></g><g id="shape19765-131"><path d="M0 778.195h81v24.555H0z" class="st8" transform="translate(0 -2.135)"/><text x="1.03" y="796.17" class="st11" transform="translate(0 -2.135)">Integrate</text></g></g><g id="group19766-134" transform="translate(152.929 -10.393)"><g id="shape19767-135"><path fill="#0078d7" stroke-linecap="butt" stroke-width=".637" d="M38.94 781.1c.09-.64.09-1.37.09-2.01 0-7.73-6.37-14.19-14.1-14.19h-.09c-5.55 0-10.56 3.46-12.83 8.46-.64-.09-1.27-.09-1.91-.09-5.64 0-10.1 4.55-10.1 10.19 0 5.55 4.55 10.1 10.19 10.1h5.19c.18.73.63 1.37 1.18 1.91 1.82 1.82 4.82 1.82 6.64 0a4.611 4.611 0 0 0 0-6.55c-1.82-1.82-4.73-1.82-6.64 0-.46.46-.82 1-1 1.55l-5.28-.09c-3.91 0-7-3.1-7.1-6.92 0-3.91 3.19-7 7.1-7 .73 0 1.55.18 2.28.36l1.45.55.46-1.46c1.45-4.55 5.73-7.55 10.46-7.55 6.09 0 11.01 4.91 11.01 11.01 0 1-.09 2-.37 2.91l-.63 2.18 2.27-.27h.37c1.72 0 3.18 1.46 3.18 3.18 0 1.64-1.18 3.01-2.82 3.19 0 0-7.55.09-8.01.09-.36-2.09-1.36-4.09-2.91-5.64-1.91-2-4.55-3.09-7.37-3.09-1.91 0-3.73.54-5.37 1.45l1.64 2.64c1.09-.73 2.46-1.09 3.82-1.09 1.91 0 3.82.73 5.19 2.18 1.36 1.37 2.18 3.19 2.18 5.19 0 1.91-.73 3.82-2.18 5.18-1.37 1.37-3.19 2.19-5.19 2.19-1.36 0-2.73-.37-3.82-1.1l-1.64 2.64c1.64 1 3.55 1.55 5.46 1.55 2.82 0 5.37-1.09 7.37-3.09 1.64-1.64 2.64-3.73 2.91-5.92.37 0 8.01-.09 8.01-.09h.09c3.28-.27 5.73-3 5.73-6.28.09-3.18-2-5.73-4.91-6.27z" transform="translate(29.34 -37.355)"/></g><g id="shape19768-137"><path d="M0 770.281h103.59v32.469H0z" class="st8"/><text x="10.17" y="788.68" class="st12">Export APIs</text></g></g><g id="group19769-140" transform="translate(297.766 -10.393)"><g id="group19770-141" transform="translate(27.717 -38.67)"><g id="group19771-142"><g id="shape19772-143"><path fill="#7f7f7f" stroke-linecap="butt" stroke-width=".75" d="M39.73 766.13l.1 2.45c.75 0 1.22.19 1.6.57.29.38.47 1.05.47 1.89v9.35c0 2.16.76 3.48 2.08 4.05-1.42.57-2.08 1.89-2.08 4.07v9.43c0 1.6-.75 2.36-2.17 2.36v2.45c1.99 0 3.41-.38 4.25-1.13.84-.76 1.22-2.08 1.22-3.87v-9.53c0-1.7.67-2.55 1.99-2.55v-2.45c-1.32 0-1.99-.86-1.99-2.45v-9.82c0-1.8-.38-3.02-1.22-3.77-.84-.67-2.26-1.05-4.25-1.05zm-11.04 29.74c0 1.03.86 1.88 1.89 1.88h4.34c1.04 0 1.89-.85 1.89-1.88v-4.34c0-1.05-.85-1.89-1.89-1.89h-1.03v-1.61c0-1.89-1.51-3.59-3.69-4.24l-3.96-.86c-.86-.26-1.47-.7-1.78-1.23.05-.25.08-.49.08-.75v-2.93h1.23c1.03 0 1.89-.84 1.89-1.88v-5c0-1.05-.86-1.89-1.89-1.89h-5.01c-1.03 0-1.88.84-1.88 1.89v5c0 1.04.85 1.88 1.88 1.88h1.14v2.93c0 .26.02.5.07.75-.3.53-.92.97-1.77 1.23l-3.21.67c-2.17.65-3.68 2.35-3.68 4.24v1.61h-1.04c-1.03 0-1.89.84-1.89 1.89v4.34c0 1.03.86 1.89 1.89 1.89h4.34c1.05 0 1.89-.86 1.89-1.89v-4.34c0-1.05-.84-1.89-1.89-1.89h-.94v-1.61c0-.85.75-1.6 1.99-1.98l3.2-.75c.92-.25 1.73-.69 2.34-1.27.63.59 1.44 1.07 2.37 1.36l3.98.85c1.22.38 1.97 1.13 1.97 1.98v1.61h-.94c-1.03 0-1.89.84-1.89 1.89v4.34zm-3.67-23.98v3.49h-3.5v-3.49h3.5zM7.45 802.75l-.09-2.45c-.75 0-1.23-.19-1.61-.57-.28-.38-.46-1.03-.46-1.89v-9.33c0-2.18-.76-3.5-2.08-4.07 1.41-.57 2.08-1.89 2.08-4.05v-9.44c0-1.61.75-2.37 2.16-2.37v-2.45c-1.98 0-3.4.29-4.24 1.05-.84.75-1.22 2.07-1.22 3.86v9.63c0 1.69-.67 2.55-1.99 2.55v2.45c1.32 0 1.99.85 1.99 2.46v9.81c0 1.79.38 3.02 1.22 3.78.84.65 2.26 1.03 4.24 1.03z"/></g></g></g><g id="shape19773-145"><path d="M0 770.281h103.59v32.469H0z" class="st8"/><text x="11.78" y="788.68" class="st12">Logic Apps</text></g></g></g><g id="group19774-148" transform="translate(1176.8 -202.075)"><g id="shape19775-149"><path d="M0 774.786h89.219v27.964H0z" class="st8"/><text x="23.6" y="793.19" class="st12">Alerts</text></g><g id="group19776-152" transform="translate(28.848 -34.14)"><g id="group19777-153"><g id="shape19778-154"><path d="M29.64 791.82l-.17-.18s-1.88-1.28-2.73-4.35c-.51-1.97-.68-2.65-.77-2.82-.43-9.23-2.9-14.44-7.18-15.64v-.17c0-1.28-.94-2.64-3.07-2.64-1.8 0-3.08 1.11-3.08 2.64v.17c-4.27 1.2-6.66 6.5-7.17 15.64-.09.17-.26.77-.77 2.82-.86 3.07-2.74 4.35-2.74 4.35l-.17.18C.51 793.27 0 794.55.43 795.57c.17.43.68.94 2.05.94h7.09l.17 1.2c.6 2.82 3.16 5.04 5.98 5.04 2.82 0 5.38-2.22 5.98-5.04l.17-1.2h7.09c1.37 0 1.79-.51 2.05-.94.51-1.02 0-2.3-1.37-3.75z" class="st14"/></g></g><g id="shape19780-157"><path d="M14.59 802.75c2.48 0 4.61-2.05 5.13-4.27H9.46c.43 2.31 2.57 4.27 5.13 4.27zm13.16-6.07c1.96 0 1.62-1.7.08-3.58 0 0-2.13-1.37-3.07-4.87-.77-2.82-.77-2.91-.77-2.91-.43-7.94-2.22-14.44-7.35-15.12.09-.25.17-.6.17-.85 0-1.03-.77-1.8-2.22-1.8-1.37 0-2.22.86-2.22 1.8 0 .34.08.6.17.85-5.13.68-6.92 7.18-7.35 15.12 0 0 0 .09-.77 2.91-.94 3.41-3.07 4.87-3.07 4.87-1.62 1.79-1.97 3.58 0 3.58h26.4z" class="st16" transform="translate(1.3 -.854)"/></g></g></g><g id="group19781-160" transform="translate(1030.33 -318.598)"><g id="shape19782-161"><path d="M0 777.331h131.625v25.419H0z" class="st8" transform="translate(-23.236)"/><text x="10.26" y="794.84" class="st12" transform="translate(-23.236)">Metric Explorer</text></g><g id="group19783-164" transform="translate(24.3 -36.46)"><g id="shape19784-165"><path d="M0 802.75h14.01" class="st22" transform="rotate(90 8.46 797.13)"/></g><g id="shape19785-168"><path d="M0 802.75h21.01" class="st22" transform="rotate(90 17.071 798.81)"/></g><g id="shape19786-171"><path d="M0 802.75h10.51" class="st22" transform="rotate(90 16.964 809.209)"/></g><g id="shape19787-174"><path d="M0 802.75h17.51" class="st22" transform="rotate(90 25.684 810.779)"/></g><g id="shape19788-177" transform="translate(0 -21)"><ellipse cx="2.841" cy="799.909" class="st23" rx="2.841" ry="2.841"/></g><g id="shape19789-179"><path d="M0 802.75h15.05" class="st24" transform="rotate(48.04 41.846 802.071)"/></g><g id="shape19790-182"><path d="M0 802.75h11.33" class="st24" transform="rotate(-37.269 -34.503 785.38)"/></g><g id="shape19791-185"><path d="M0 802.75h12.61" class="st24" transform="rotate(-35.311 -19.948 755.88)"/></g><g id="shape19792-188" transform="translate(10.29 -28.3)"><ellipse cx="2.841" cy="799.909" class="st23" rx="2.841" ry="2.841"/></g><g id="shape19793-190" transform="translate(20.582 -17.58)"><ellipse cx="2.841" cy="799.909" class="st23" rx="2.841" ry="2.841"/></g><g id="shape19794-192" transform="translate(30.873 -24.44)"><ellipse cx="2.841" cy="799.909" class="st23" rx="2.841" ry="2.841"/></g></g><g id="group19795-194" transform="translate(114.82 -.388)"><g id="shape19796-195"><path d="M0 777.331h152.514v25.419H0z" class="st8"/><text x="27.99" y="794.84" class="st12">Log Analytics</text></g><g id="group19797-198" transform="translate(55.667 -33.038)"><g id="shape19798-199" transform="translate(10.65 -10.295)"><ellipse cx="15.265" cy="787.485" class="st10" rx="15.265" ry="15.265"/></g><g id="shape19799-201" transform="translate(8.178 -11.005)"><ellipse cx="13.845" cy="788.905" class="st10" rx="13.845" ry="13.845"/></g><g id="shape19800-203"><ellipse cx="15.265" cy="787.485" class="st10" rx="15.265" ry="15.265"/></g><g id="shape19801-205"><path fill="#0070c0" stroke-width=".25" d="M3.77 787.68h2.51v-2.51H3.77v2.51zm0-7.53h2.51v-2.26c-.88.5-1.76 1-2.51 1.63v.63zm3.76 15.07h2.51v-2.51H7.53v2.51zm0 7.53h2.51v-2.51H7.53v2.51zm0-11.3h2.51v-2.51H7.53v2.51zm0 7.53h2.51v-2.51H7.53v2.51zm-3.76-3.76h2.51v-2.51H3.77v2.51zm0 3.76h2.51v-2.51H3.77v2.51zM0 791.45h2.51v-2.51H0v2.51zm0 3.77h2.51v-2.51H0v2.51zm0-7.54h2.51v-2.51H0v2.51zm.25-3.76h2.26v-2.51h-.63c-.62.75-1.13 1.63-1.63 2.51zm3.52 16.95c.75.62 1.63 1.13 2.51 1.63v-2.26H3.77v.63zm0-16.95h2.51v-2.51H3.77v2.51zm18.83 15.06h.63c.63-.75 1.13-1.63 1.63-2.51H22.6v2.51zm-3.77-3.76h2.51v-2.51h-2.51v2.51zm0 7.28c.88-.5 1.76-1.01 2.51-1.63v-.63h-2.51v2.26zm0-3.52h2.51v-2.51h-2.51v2.51zm-11.3-11.3h2.51v-2.51H7.53v2.51zm16.95-22.6c-7.28 0-13.18 5.91-13.18 13.19v13.18h13.18c7.28 0 13.19-5.9 13.19-13.18 0-7.28-5.91-13.19-13.19-13.19zm-4.39 18.84h-2.51v-7.54h2.51v7.54zm5.02 0H22.6v-5.03h2.51v5.03zm5.02 0h-2.51v-10.05h2.51v10.05zm-7.53 11.3h2.51v-2.51H22.6v2.51zM7.53 780.15h2.51v-2.51H7.53v2.51zm7.54 18.83h2.51v-2.51h-2.51v2.51zm-3.77 0h2.51v-2.51H11.3v2.51zm0-3.76h2.51v-2.51H11.3v2.51zm3.77 7.53h2.51v-2.51h-2.51v2.51z" transform="translate(.949 -2.286)"/></g></g></g></g><g id="group19802-207" transform="translate(960.405 -560.738)"><g id="group19803-208"><g id="shape19804-209"><path d="M0 776.06h93.993v26.69H0z" class="st8"/><text x="8.04" y="793.56" class="st26">Application</text></g><g id="group19805-212" transform="translate(34.778 -32.918)"><g id="shape19806-213"><path d="M0 800.34h7.6v2.41H0v-2.41z" class="st13" transform="translate(8.597 -5.182)"/></g><g id="shape19807-215"><path d="M2.36 802.75h2.82l2.36-2.53H0l2.36 2.53z" class="st13" transform="translate(8.597)"/></g><g id="group19808-217" transform="translate(0 -10.246)"><g id="shape19809-218"><path d="M1.24 800.28c-.65 0-1.24.53-1.24 1.23 0 .65.59 1.24 1.24 1.24h1.23v-1.24c-.11-.7-.59-1.23-1.23-1.23z" class="st13" transform="translate(7.714 -10.776)"/></g><g id="shape19810-220"><path d="M1.24 800.28c-.65 0-1.24.59-1.24 1.23v1.24h1.24c.64 0 1.23-.59 1.23-1.24 0-.64-.53-1.23-1.23-1.23z" class="st13" transform="translate(14.25 -10.776)"/></g><g id="shape19811-222"><path d="M23.97 787.68v-.18c0-5.54-4.71-10.07-10.54-10.19-.12-.23-3.48.06-3.48.06-5.24.65-9.36 5.01-9.36 10.07 0 .12-.59 4.18 3.53 7.54 1.89 1.65 3.83 6.06 4.06 7.36l.24.41h7.6l.23-.41c.3-1.3 2.3-5.71 4.06-7.3 4.13-3.42 3.66-7.19 3.66-7.36zm-8.48 5.65h-1.24v9.07h-1.41v-9.07H11.6v9.01h-1.41v-9.01H8.95c-1.41 0-2.65-1.24-2.65-2.65s1.18-2.65 2.65-2.65 2.65 1.24 2.65 2.65v1.24h1.24v-1.24c0-1.41 1.23-2.65 2.65-2.65 1.41 0 2.65 1.24 2.65 2.65 0 1.47-1.24 2.65-2.65 2.65z" class="st13"/></g></g></g></g><g id="group19812-224" transform="translate(111.701)"><g id="group19813-225" transform="translate(21.796 -32.914)"><g id="group19814-226" transform="translate(7.214 -24.237)"><g id="shape19815-227"><path d="M0 794.9h8.14l1.96-1.96H1.96L0 794.9z" class="st27"/></g><g id="shape19816-229"><path d="M8.14 802.75l1.96-1.96v-7.85l-1.96 1.96v7.85z" class="st28"/></g><path id="shape19814-231" d="M0 794.902h8.137v7.848H0z" class="st27"/></g><g id="group19817-233" transform="translate(0 -12.119)"><g id="shape19818-234"><path d="M0 794.9h8.14l1.96-1.96H1.96L0 794.9z" class="st27"/></g><g id="shape19819-236"><path d="M8.14 802.75l1.96-1.96v-7.85l-1.96 1.96v7.85z" class="st28"/></g><path id="shape19817-238" d="M0 794.902h8.137v7.848H0z" class="st27"/></g><g id="group19820-240" transform="translate(7.214)"><g id="shape19821-241"><path d="M0 794.9h8.14l1.96-1.96H1.96L0 794.9z" class="st27"/></g><g id="shape19822-243"><path d="M8.14 802.75l1.96-1.96v-7.85l-1.96 1.96v7.85z" class="st28"/></g><path id="shape19820-245" d="M0 794.902h8.137v7.848H0z" class="st27"/></g><g id="group19823-247" transform="translate(14.427 -12.119)"><g id="shape19824-248"><path d="M0 794.9h8.14l1.96-1.96H1.96L0 794.9z" class="st27"/></g><g id="shape19825-250"><path d="M8.14 802.75l1.96-1.96v-7.85l-1.96 1.96v7.85z" class="st28"/></g><path id="shape19823-252" d="M0 794.902h8.137v7.848H0z" class="st27"/></g><g id="group19826-254" transform="translate(28.855 -12.119)"><g id="shape19827-255"><path d="M0 794.9h8.14l1.96-1.96H1.96L0 794.9z" class="st27"/></g><g id="shape19828-257"><path d="M8.14 802.75l1.96-1.96v-7.85l-1.96 1.96v7.85z" class="st28"/></g><path id="shape19826-259" d="M0 794.902h8.137v7.848H0z" class="st27"/></g><g id="group19829-261" transform="translate(21.641 -24.237)"><g id="shape19830-262"><path d="M0 794.9h8.14l1.96-1.96H1.96L0 794.9z" class="st27"/></g><g id="shape19831-264"><path d="M8.14 802.75l1.96-1.96v-7.85l-1.96 1.96v7.85z" class="st28"/></g><path id="shape19829-266" d="M0 794.902h8.137v7.848H0z" class="st27"/></g><g id="group19832-268" transform="translate(21.641)"><g id="shape19833-269"><path d="M0 794.9h8.14l1.96-1.96H1.96L0 794.9z" class="st27"/></g><g id="shape19834-271"><path d="M8.14 802.75l1.96-1.96v-7.85l-1.96 1.96v7.85z" class="st28"/></g><path id="shape19832-273" d="M0 794.902h8.137v7.848H0z" class="st27"/></g></g><g id="shape19835-275"><path d="M0 776.06h81v26.69H0z" class="st8"/><text x="7.27" y="793.56" class="st26">Container</text></g></g><g id="group19836-278" transform="translate(199.451)"><g id="group19837-279" transform="translate(27.49 -31.266)"><g id="shape19838-280"><path d="M37.13 766.28H2.15c-1.2 0-2.15 1.06-2.15 2.25v24.39c0 1.18.95 2.23 2.15 2.23h11.98c1.29 4.56-.45 5.21-8.05 5.21v2.39H31.92v-2.39c-7.6 0-8.35-.65-7.06-5.21h12.27c1.18 0 2.39-1.05 2.39-2.23v-24.39c0-1.19-1.21-2.25-2.39-2.25zm-.65 3.04v22.79H3.04v-22.79l33.54-.06-.1.06z" class="st13"/></g><g id="group19839-282" transform="translate(12.617 -14.63)"><g id="group19840-283" transform="translate(.627 -8.045)"><g id="shape19841-284"><path d="M12.26 799.13l-6.13-3.54L0 799.13v.08l6.13 3.54 6.13-3.54v-.08z" class="st13"/></g></g><g id="group19842-286" transform="translate(7.384)"><g id="shape19843-287"><path d="M0 795.76v6.99l6.13-3.54v-6.99L0 795.76z" class="st13"/></g></g><g id="group19844-289"><g id="shape19845-290"><path d="M6.13 795.76L0 792.22v6.99l6.13 3.54v-6.99z" class="st13"/></g></g></g></g><g id="shape19846-292"><path d="M0 776.06h93.993v26.69H0z" class="st8"/><text x="35.25" y="793.56" class="st26">VM</text></g></g><g id="group19847-295" transform="translate(287.859)"><g id="group19848-296" transform="translate(34.45 -32.564)"><g id="shape19849-297"><path d="M0 777.302h25.637v25.448H0z" class="st10" transform="translate(0 -.062)"/></g><g id="group19850-299"><g id="shape19851-300"><path d="M0 790.828h11.922v11.922H0z" class="st23"/></g><g id="shape19852-302"><path d="M0 790.828h11.922v11.922H0z" class="st23" transform="translate(13.626)"/></g><g id="shape19853-304"><path d="M0 790.828h11.922v11.922H0z" class="st23" transform="translate(0 -13.626)"/></g><g id="shape19854-306"><path d="M0 790.828h11.922v11.922H0z" class="st23" transform="translate(13.626 -13.626)"/></g><g id="shape19855-308" transform="translate(13.626 -13.626)"><ellipse cx="11.284" cy="791.466" class="st23" rx="11.284" ry="11.284"/></g><g id="shape19856-310" transform="translate(15.435 -15.329)"><ellipse cx="1.65" cy="801.1" class="st10" rx="1.65" ry="1.65"/></g><g id="shape19857-312" transform="translate(28.954 -29.061)"><ellipse cx="1.65" cy="801.1" class="st10" rx="1.65" ry="1.65"/></g><g id="shape19858-314" transform="translate(25.655 -19.587)"><ellipse cx="1.65" cy="801.1" class="st10" rx="1.65" ry="1.65"/></g><g id="shape19859-316" transform="translate(19.001 -24.923)"><ellipse cx="1.65" cy="801.1" class="st10" rx="1.65" ry="1.65"/></g><g id="shape19860-318"><path d="M0 791.553h.852v11.197H0z" class="st10" transform="rotate(20 55.757 841.551)"/></g><g id="shape19861-320"><path d="M0 794.32h.852v8.43H0z" class="st10" transform="rotate(-50 -8.412 763.286)"/></g><g id="shape19862-322"><path d="M0 791.553h.852v11.197H0z" class="st10" transform="rotate(20 72.393 867.873)"/></g></g></g><g id="shape19863-324"><path d="M0 776.06h105.091v26.69H0z" class="st8"/><text x="13.98" y="793.56" class="st26">Monitoring<tspan x="20.89" class="st29" dy="1.2em">Solutions</tspan></text></g></g></g><g id="shape19864-328" transform="translate(3 -32.984)"><rect width="350.854" height="697.391" y="105.359" class="st30" rx="9" ry="9"/><text x="131.8" y="130.96" class="st31">Sources</text></g><g id="shape19865-331" transform="translate(558.604 -30.625)"><rect width="254.396" height="697.391" y="105.359" class="st30" rx="9" ry="9"/><text x="83.31" y="130.96" class="st31">Storage</text></g><g id="shape19866-334" transform="translate(813 -30.625)"><rect width="578.666" height="697.391" y="105.359" class="st30" rx="9" ry="9"/><text x="255" y="130.96" class="st31">Usage</text></g><g id="shape19867-337"><path d="M0 802.75h77.62" class="st32" transform="translate(779.104 -357.228)"/></g><g id="shape19868-343"><path d="M0 802.75h39.3" class="st32" transform="translate(312.301 -357.228)"/></g><g id="shape19869-348" transform="translate(353.854 -30.625)"><rect width="204.75" height="697.391" y="105.359" class="st30" rx="9" ry="9"/><text x="46.42" y="130.96" class="st31">Collectors</text></g><g id="shape19870-351"><path d="M0 802.75h60.3" class="st32" transform="translate(558.605 -357.228)"/></g><g id="shape19871-356" transform="translate(353.854 -.25)"><rect width="1098.15" height="779.625" y="23.125" stroke="#0078d7" stroke-dasharray="3.5 2.5" stroke-linecap="round" stroke-linejoin="round" stroke-width=".5" rx="13.5" ry="13.5"/></g><g id="group19872-358" transform="translate(565.635 -751.182)"><g id="shape19873-359"><path d="M0 757.883h247.5v44.867H0z" class="st10" transform="translate(0 -3.163)"/></g><g id="group19874-361" transform="translate(6.75)"><g id="shape19875-362"><path d="M0 751.557h185.302v51.193H0z" class="st8" transform="translate(55.448)"/><text x="4" y="784.95" fill="#0070c0" font-family="Segoe UI Semibold" font-size="2.167em" font-weight="700" transform="translate(55.448)">Azure Monitor</text></g><g id="group19876-365" transform="translate(0 -.559)"><g id="shape19877-366" transform="translate(4.663 -4.663)"><ellipse cx="19.949" cy="782.801" fill="#fff" stroke="#fff" stroke-linecap="round" stroke-linejoin="round" stroke-width=".75" rx="19.949" ry="19.949"/></g><g id="shape19878-368"><path fill="#0070c0" stroke-linecap="butt" stroke-width=".75" d="M8.38 779.17a16.44 16.44 0 0 0 4.07 9.69l4.51-4.52a10.059 10.059 0 0 1-2.18-5.17h-6.4zm26.95-13.41a16.44 16.44 0 0 0-9.69-4.07v6.39c1.85.22 3.64.95 5.16 2.19l4.53-4.51zm-1.72 8.26h6.74c-.61-2.39-1.76-4.66-3.46-6.63l-4.53 4.51c.52.66.93 1.37 1.25 2.12zm-16.75-2.12l-4.53-4.51a16.371 16.371 0 0 0-3.96 9.72h6.39c.19-1.85.89-3.67 2.1-5.21zm7.75-18.38C11.02 753.52 0 764.54 0 778.14c0 13.59 11.02 24.61 24.61 24.61 13.6 0 24.62-11.02 24.62-24.61 0-13.6-11.02-24.62-24.62-24.62zm0 45.1c-11.29 0-20.48-9.19-20.48-20.48 0-11.29 9.19-20.48 20.48-20.48 11.29 0 20.48 9.19 20.48 20.48 0 11.29-9.19 20.48-20.48 20.48zm18.97-20.51a2.102 2.102 0 0 0-2.1-2.08l-.01-.01-.61.01H26.8c-.01-.01-.01 0-.02 0-.56-.56-1.3-.8-2.03-.8a2.876 2.876 0 1 0 0 5.75c.67 0 1.35-.29 1.89-.77h14.85c1.15 0 2.08-.94 2.08-2.09h.01v-.01zm-20-16.42c-3.48.26-6.9 1.61-9.68 4.07l4.52 4.51c1.52-1.24 3.32-1.97 5.16-2.19v-6.39z"/></g></g></g></g><g id="group19883-370" transform="translate(618.696 -209.478)"><g id="shape19884-371"><rect width="162" height="295.499" y="507.251" class="st38" rx="9" ry="9"/></g><g id="group19885-373" transform="translate(36.94 -158.197)"><g id="group19886-374" transform="translate(0 -2.583)"><g id="shape19887-375"><path d="M0 795.37a38.842 7.384-180 1 0 77.68 0v-59.08H0v59.08z" class="st39"/></g><ellipse id="shape19886-377" cx="38.842" cy="736.294" class="st39" rx="38.842" ry="7.384"/></g><g id="group19888-379" transform="translate(5.654 -11.91)"><g id="shape19889-380"><path d="M0 797.23a33.188 5.519-180 1 0 66.37 0v-44.15H0v44.15z" class="st40"/></g><g id="shape19888-382"><ellipse cx="33.188" cy="753.083" class="st40" rx="33.188" ry="5.519"/><text x="6.39" y="779.96" class="st12">Metrics</text></g></g><g id="group19890-385" transform="translate(52.55)"><g id="shape19891-386"><path fill="#e6e6e6" stroke="#e6e6e6" stroke-linecap="round" stroke-linejoin="round" stroke-width=".75" d="M0 778.689h27.325v24.061H0z"/></g><g id="group19892-388" transform="translate(.759 -2.543)"><g id="shape19893-389"><path d="M0 802.75h9.92" class="st22" transform="rotate(90 5.99 798.77)"/></g><g id="shape19894-392"><path d="M0 802.75h14.88" class="st22" transform="rotate(90 12.087 799.96)"/></g><g id="shape19895-395"><path d="M0 802.75h7.44" class="st22" transform="rotate(90 12.012 807.323)"/></g><g id="shape19896-398"><path d="M0 802.75h12.4" class="st22" transform="rotate(90 18.186 808.436)"/></g><g id="shape19897-401" transform="translate(0 -14.87)"><ellipse cx="2.011" cy="800.739" class="st23" rx="2.011" ry="2.011"/></g><g id="shape19898-403"><path d="M0 802.75h10.65" class="st24" transform="rotate(48.04 29.63 802.27)"/></g><g id="shape19899-406"><path d="M0 802.75h8.02" class="st24" transform="rotate(-37.269 -24.43 790.45)"/></g><g id="shape19900-409"><path d="M0 802.75h8.93" class="st24" transform="rotate(-35.311 -14.125 769.56)"/></g><g id="shape19901-412" transform="translate(7.287 -20.039)"><ellipse cx="2.011" cy="800.739" class="st23" rx="2.011" ry="2.011"/></g><g id="shape19902-414" transform="translate(14.573 -12.448)"><ellipse cx="2.011" cy="800.739" class="st23" rx="2.011" ry="2.011"/></g><g id="shape19903-416" transform="translate(21.86 -17.306)"><ellipse cx="2.011" cy="800.739" class="st23" rx="2.011" ry="2.011"/></g></g></g></g><g id="group19904-418" transform="translate(36.94 -60.879)"><g id="group19905-419" transform="translate(0 -5.458)"><g id="shape19906-420"><path d="M0 795.37a38.842 7.384-180 1 0 77.68 0v-59.08H0v59.08z" class="st39"/></g><ellipse id="shape19905-422" cx="38.842" cy="736.294" class="st39" rx="38.842" ry="7.384"/></g><g id="group19907-424" transform="translate(5.654 -14.785)"><g id="shape19908-425"><path d="M0 797.23a33.188 5.519-180 1 0 66.37 0v-44.15H0v44.15z" class="st40"/></g><g id="shape19907-427"><ellipse cx="33.188" cy="753.083" class="st40" rx="33.188" ry="5.519"/><text x="16.23" y="779.96" class="st12">Logs</text></g></g><g id="group19909-430" transform="translate(56.571 -5.412)"><g id="shape19910-431"><path d="M0 776.586h26.164v26.164H0z" class="st38"/></g><g id="group19911-433"><g id="shape19912-434"><path d="M0 796.377h6.373v6.373H0z" class="st42" transform="translate(0 -8.284)"/></g><g id="shape19913-436"><path d="M0 796.377h6.373v6.373H0z" class="st42" transform="translate(0 -16.569)"/></g><g id="shape19914-438"><path d="M0 796.377h6.373v6.373H0z" class="st42"/></g><g id="shape19915-440"><path d="M0 796.377h6.373v6.373H0z" class="st42" transform="translate(8.284)"/></g><g id="shape19916-442"><path d="M0 796.377h6.373v6.373H0z" class="st42" transform="translate(16.569)"/></g><g id="shape19917-444"><path fill="#0072c6" stroke-linecap="butt" stroke-width=".75" d="M11.15 780.45C4.91 780.45 0 785.36 0 791.6v11.15h11.15c6.24 0 11.15-4.91 11.15-11.15s-4.91-11.15-11.15-11.15z" transform="translate(8.284 -8.284)"/></g><g id="shape19918-446"><path d="M0 795.74h1.91v7.01H0v-7.01z" class="st44" transform="translate(12.745 -14.02)"/></g><g id="shape19919-448"><path d="M0 797.65h1.91v5.1H0v-5.1z" class="st44" transform="translate(17.206 -14.02)"/></g><g id="shape19920-450"><path d="M0 793.19h1.91v9.56H0v-9.56z" class="st44" transform="translate(21.667 -14.02)"/></g></g></g></g></g><g id="shape23-452" transform="translate(269.396 -382.861)"><path d="M0 782.723h25.808v20.027H0z" class="st8"/><switch><svg width="25.808" height="20.027" y="782.723" preserveAspectRatio="none" viewBox="268 592.99 67.008 52"><defs><clipPath id="mfid1"><path id="mfid2" d="M268 592.99h67.008v52H268z"/></clipPath></defs><g clip-path="url(#mfid1)"><path fill="#0078d7" stroke-width="5.842" d="M850 1935l94-17-48-58 25-69 83 144H850zm65-155l-65 138h-46l51-88 60-50z" transform="scale(.33333)"/></g></svg></switch><path d="M0 782.723h25.808v20.027H0z" class="st8"/></g><g id="shape24-455" transform="translate(269.396 -324.361)"><path d="M0 782.723h25.808v20.027H0z" class="st8"/><switch><svg width="25.808" height="20.027" y="782.723" preserveAspectRatio="none" viewBox="268 592.99 67.008 52"><defs><clipPath id="mfid3"><path id="mfid4" d="M268 592.99h67.008v52H268z"/></clipPath></defs><g clip-path="url(#mfid3)"><path fill="#0078d7" stroke-width="5.842" d="M850 1935l94-17-48-58 25-69 83 144H850zm65-155l-65 138h-46l51-88 60-50z" transform="scale(.33333)"/></g></svg></switch><path d="M0 782.723h25.808v20.027H0z" class="st8"/></g><g id="shape25-458" transform="translate(269.396 -265.861)"><path d="M0 782.723h25.808v20.027H0z" class="st8"/><switch><svg width="25.808" height="20.027" y="782.723" preserveAspectRatio="none" viewBox="268 592.99 67.008 52"><defs><clipPath id="mfid5"><path id="mfid6" d="M268 592.99h67.008v52H268z"/></clipPath></defs><g clip-path="url(#mfid5)"><path fill="#0078d7" stroke-width="5.842" d="M850 1935l94-17-48-58 25-69 83 144H850zm65-155l-65 138h-46l51-88 60-50z" transform="scale(.33333)"/></g></svg></switch><path d="M0 782.723h25.808v20.027H0z" class="st8"/></g><g id="group19921-461" transform="translate(236.626 -190.574)"><g id="group19922-462" transform="translate(10.412)"><g id="shape19923-463"><path d="M0 802.75h7.87v-24.44H0v24.44zm6.49-14.12h-2.1v-2.11h2.1v2.11zm-5.28-3.15v-2.1h2.11v2.1H1.21zm3.21 0v-2.1h2.1v2.1h-2.1zm-.03-5.25h2.1v2.1h-2.1v-2.1zm-3.15 0h2.1v2.1h-2.1v-2.1zm0 6.29h2.1v2.11h-2.1v-2.11zm5.25 11.61h-2.1v-2.1h2.1v2.1zm-5.28-3.14v-2.11h2.11v2.11H1.21zm3.21 0v-2.11h2.1v2.11h-2.1zm-.03-5.26h2.1v2.11h-2.1v-2.11zm-3.15 0h2.1v2.11h-2.1v-2.11zm0 6.3h2.1v2.1h-2.1v-2.1zm13.16-9.75v-2.51h-1.14v-2.44h-.83v-2.29h-.68v2.29h-.83v2.44H9.78v2.51h-.93v16.47h6.48v-16.47h-.93zm-2.38 9.91h-2.1v-2.1h2.1v2.1zm0-6.45h-2.1v-2.1h2.1v2.1zm2.47 3.2h-2.1v-2.1h2.1v2.1z" class="st45"/></g></g><g id="shape26-465" transform="translate(32.77)"><path d="M0 782.723h25.808v20.027H0z" class="st8"/><switch><svg width="25.808" height="20.027" y="782.723" preserveAspectRatio="none" viewBox="268 592.99 67.008 52"><defs><clipPath id="mfid7"><path id="mfid8" d="M268 592.99h67.008v52H268z"/></clipPath></defs><g clip-path="url(#mfid7)"><path fill="#0078d7" stroke-width="5.842" d="M850 1935l94-17-48-58 25-69 83 144H850zm65-155l-65 138h-46l51-88 60-50z" transform="scale(.33333)"/></g></svg></switch><path d="M0 782.723h25.808v20.027H0z" class="st8"/></g></g><g id="group19924-468" transform="translate(236.626 -439.157)"><g id="group19925-469" transform="translate(10.412)"><g id="shape19926-470"><path d="M0 802.75h7.87v-24.44H0v24.44zm6.49-14.12h-2.1v-2.11h2.1v2.11zm-5.28-3.15v-2.1h2.11v2.1H1.21zm3.21 0v-2.1h2.1v2.1h-2.1zm-.03-5.25h2.1v2.1h-2.1v-2.1zm-3.15 0h2.1v2.1h-2.1v-2.1zm0 6.29h2.1v2.11h-2.1v-2.11zm5.25 11.61h-2.1v-2.1h2.1v2.1zm-5.28-3.14v-2.11h2.11v2.11H1.21zm3.21 0v-2.11h2.1v2.11h-2.1zm-.03-5.26h2.1v2.11h-2.1v-2.11zm-3.15 0h2.1v2.11h-2.1v-2.11zm0 6.3h2.1v2.1h-2.1v-2.1zm13.16-9.75v-2.51h-1.14v-2.44h-.83v-2.29h-.68v2.29h-.83v2.44H9.78v2.51h-.93v16.47h6.48v-16.47h-.93zm-2.38 9.91h-2.1v-2.1h2.1v2.1zm0-6.45h-2.1v-2.1h2.1v2.1zm2.47 3.2h-2.1v-2.1h2.1v2.1z" class="st45"/></g></g><g id="shape27-472" transform="translate(32.77)"><path d="M0 782.723h25.808v20.027H0z" class="st8"/><switch><svg width="25.808" height="20.027" y="782.723" preserveAspectRatio="none" viewBox="268 592.99 67.008 52"><defs><clipPath id="mfid9"><path id="mfid10" d="M268 592.99h67.008v52H268z"/></clipPath></defs><g clip-path="url(#mfid9)"><path fill="#0078d7" stroke-width="5.842" d="M850 1935l94-17-48-58 25-69 83 144H850zm65-155l-65 138h-46l51-88 60-50z" transform="scale(.33333)"/></g></svg></switch><path d="M0 782.723h25.808v20.027H0z" class="st8"/></g></g><g id="group19927-475" transform="translate(236.626 -500.492)"><g id="group19928-476" transform="translate(10.412)"><g id="shape19929-477"><path d="M0 802.75h7.87v-24.44H0v24.44zm6.49-14.12h-2.1v-2.11h2.1v2.11zm-5.28-3.15v-2.1h2.11v2.1H1.21zm3.21 0v-2.1h2.1v2.1h-2.1zm-.03-5.25h2.1v2.1h-2.1v-2.1zm-3.15 0h2.1v2.1h-2.1v-2.1zm0 6.29h2.1v2.11h-2.1v-2.11zm5.25 11.61h-2.1v-2.1h2.1v2.1zm-5.28-3.14v-2.11h2.11v2.11H1.21zm3.21 0v-2.11h2.1v2.11h-2.1zm-.03-5.26h2.1v2.11h-2.1v-2.11zm-3.15 0h2.1v2.11h-2.1v-2.11zm0 6.3h2.1v2.1h-2.1v-2.1zm13.16-9.75v-2.51h-1.14v-2.44h-.83v-2.29h-.68v2.29h-.83v2.44H9.78v2.51h-.93v16.47h6.48v-16.47h-.93zm-2.38 9.91h-2.1v-2.1h2.1v2.1zm0-6.45h-2.1v-2.1h2.1v2.1zm2.47 3.2h-2.1v-2.1h2.1v2.1z" class="st45"/></g></g><g id="shape28-479" transform="translate(32.77)"><path d="M0 782.723h25.808v20.027H0z" class="st8"/><switch><svg width="25.808" height="20.027" y="782.723" preserveAspectRatio="none" viewBox="268 592.99 67.008 52"><defs><clipPath id="mfid11"><path id="mfid12" d="M268 592.99h67.008v52H268z"/></clipPath></defs><g clip-path="url(#mfid11)"><path fill="#0078d7" stroke-width="5.842" d="M850 1935l94-17-48-58 25-69 83 144H850zm65-155l-65 138h-46l51-88 60-50z" transform="scale(.33333)"/></g></svg></switch><path d="M0 782.723h25.808v20.027H0z" class="st8"/></g></g><g id="shape19930-482" transform="translate(375.229 -464.15)"><rect width="162" height="58.725" y="744.025" class="st4" rx="9" ry="9"/><text x="8.89" y="768.59" class="st12">Application Insights <tspan x="66.02" class="st29" dy="1.2em">SDK</tspan></text></g><g id="shape19931-486" transform="translate(375.229 -396.184)"><rect width="162" height="58.725" y="744.025" class="st4" rx="9" ry="9"/><text x="15.93" y="768.59" class="st12">Azure Diagnostics <tspan x="46.06" class="st29" dy="1.2em">Extension</tspan></text></g><g id="shape19932-490" transform="translate(375.229 -328.433)"><rect width="162" height="58.725" y="744.025" class="st4" rx="9" ry="9"/><text x="32.73" y="768.59" class="st12">Log Analytics <tspan x="59" class="st29" dy="1.2em">Agent</tspan></text></g><g id="shape19933-494" transform="translate(375.229 -260.681)"><rect width="162" height="58.725" y="744.025" class="st4" rx="9" ry="9"/><text x="38.07" y="778.19" class="st12">Activity Log</text></g><g id="shape19934-497" transform="translate(375.229 -191.581)"><rect width="162" height="58.725" y="744.025" class="st4" rx="9" ry="9"/><text x="26.07" y="778.19" class="st12">Other methods</text></g><g id="group19935-500" transform="translate(1253.01 -440.354)"><g id="group19936-501" transform="translate(31.5 -34.756)"><g id="shape19937-502"><path d="M0 802.75a4.477 3.045 51.62 0 1 4.84 0" class="st46" transform="rotate(-24.905 -72.364 786.77)"/></g><g id="shape19938-505"><path d="M0 802.75h13.16" class="st46" transform="rotate(-90 -9.4 793.35)"/></g><g id="shape19939-508"><path d="M0 802.75h28.23" class="st46" transform="rotate(17.124 115.11 800.196)"/></g><g id="shape19940-511"><path d="M0 802.75a2.505 1.736 24.13 0 1 3.26 0" class="st46" transform="rotate(54.782 40.332 819.437)"/></g><g id="shape19941-514"><path d="M0 802.75h18.21" class="st46" transform="rotate(-90 13.787 783.95)"/></g><g id="shape19942-517"><path d="M0 802.75a4.607 3.435 108.65 0 1 4.97 0" class="st46" transform="rotate(135 17.461 806.679)"/></g><g id="shape19943-520"><path d="M0 802.75h2.98" class="st46" transform="rotate(21.038 21.877 870.55)"/></g><g id="shape19944-523"><path d="M0 802.75h5.01" class="st47" transform="rotate(90 6.266 796.484)"/></g><g id="shape19945-526"><path d="M0 802.75h10.03" class="st47" transform="rotate(90 10.966 798.677)"/></g><g id="shape19946-529"><path d="M0 802.75h15.04" class="st47" transform="rotate(90 15.666 800.87)"/></g><g id="shape19947-532"><path d="M0 802.75h20.05" class="st47" transform="rotate(90 20.366 803.064)"/></g></g><g id="shape19948-535"><path d="M0 783.686h95.592v19.064H0z" class="st8"/><text x="15.72" y="798.02" class="st12">Power BI</text></g></g><g id="shape19949-538"><path d="M0 778.313h605.285v24.437H0z" class="st8" transform="translate(831 -30.625)"/><text x="79.04" y="794.55" fill="#7f7f7f" font-family="Segoe UI Semibold" font-size="1.167em" font-weight="700" transform="translate(831 -30.625)">Grey items not part of Azure Monitor, but part of Azure Monitor story.</text></g><g id="shape19950-541"><path fill="#fff" fill-opacity=".75" stroke="#fff" stroke-dasharray="5.25 3.75" stroke-linecap="round" stroke-linejoin="round" stroke-width=".75" d="M0 802.75h536.67v-666H0v666z" transform="translate(842.885 -31.775)"/></g></g></svg>