<svg xmlns="http://www.w3.org/2000/svg" xmlns:xlink="http://www.w3.org/1999/xlink" width="1008.326" height="530.933" fill="none" fill-rule="evenodd" stroke-linecap="square" stroke-miterlimit="3" color-interpolation-filters="sRGB" font-size="12" overflow="visible" viewBox="0 0 756.246 398.199"><style>.st2{fill:#00188f;stroke:none;stroke-linecap:butt;stroke-width:.75}.st3{fill:#002060;font-family:Segoe UI;font-size:.75em}.st4{font-size:1em}.st5,.st6{stroke-linecap:round;stroke-linejoin:round}.st5{fill:none;stroke:none;stroke-width:.75}.st6{marker-end:url(#mrkr13-21);stroke:#00b0f0;stroke-width:1.5}.st8{fill:#7f7f7f;stroke:none;stroke-linecap:butt;stroke-width:.75}.st12,.st9{stroke-linecap:round;stroke-linejoin:round;stroke-width:1.5}.st9{fill:none;stroke:none}.st12{stroke:#c00000}.st13{fill:#002060;font-family:Calibri;font-size:.833336em}.st14{fill:#0070c0;stroke:none;stroke-linecap:round;stroke-linejoin:round;stroke-width:.75}.st15{fill:#fff;font-family:Calibri;font-size:1.00001em}.st16,.st17,.st18{stroke:#fff;stroke-linecap:butt;stroke-width:1.5;fill:#fff}.st17,.st18{stroke:none;stroke-width:.75}.st18{fill:none}</style><defs id="Markers"><path id="lend13" d="M3 1L0 0l3-1v2"/><marker id="mrkr13-21" fill="#00b0f0" stroke="#00b0f0" stroke-width=".373" orient="auto" overflow="visible" refX="-8.04"><use transform="scale(-2.68)" xlink:href="#lend13"/></marker><marker id="mrkr13-96" fill="#c00000" stroke="#c00000" stroke-width=".373" orient="auto" overflow="visible" refX="-8.04"><use transform="scale(-2.68)" xlink:href="#lend13"/></marker></defs><g><g id="shape1135-1"><path fill="#fff" stroke="#c3c3c3" stroke-linecap="round" stroke-linejoin="round" stroke-width="1.5" d="M0 1.5h747v396.699H0z" transform="translate(2.12 -.75)"/></g><g id="group1000-3" transform="translate(45.108 -115.5)"><g id="shape1001-4"><path d="M20.21 358.65c-7.95 0-14.39-1.85-14.39-4.15 0-2.28 6.44-4.14 14.39-4.14 7.92 0 14.34 1.84 14.34 4.14s-6.42 4.15-14.34 4.15zM0 382.64v7.53c0 3.52 7.35 7.41 16.97 8.03h6.46c9.6-.6 16.95-3.81 16.95-7.36v-35.52c0-3.92-9.09-7.67-20.22-7.67-11.12 0-20.16 3.55-20.16 7.5V382.64z" class="st2"/></g><g id="shape1000-6"><text x="-20.73" y="416.2" class="st3">Operations Manager<tspan x="1.73" class="st4" dy="1.2em">Database</tspan></text></g></g><g id="shape1021-9"><path d="M0 364.449h119.25v33.75H0z" class="st5" transform="translate(69.62 -145.2)"/><text x="22.8" y="384.02" class="st3" transform="translate(69.62 -145.2)">Management Pack</text></g><g id="shape1023-12"><path d="M29.99 388.44H1.22c-.67 0-1.22.55-1.22 1.22v7.32c0 .67.55 1.22 1.22 1.22h28.77c.68 0 1.23-.55 1.23-1.22v-7.32c0-.67-.55-1.22-1.23-1.22zm-27.33 8.51c-.61 0-1.1-.5-1.1-1.11 0-.61.49-1.1 1.1-1.1.61 0 1.11.49 1.11 1.1 0 .61-.5 1.11-1.11 1.11zm26.24-.45h-6.28c-.19 0-.35-.15-.35-.34 0-.19.16-.35.35-.35h6.28c.19 0 .35.16.35.35 0 .19-.16.34-.35.34zm0-1.22h-6.28c-.19 0-.35-.15-.35-.34 0-.19.16-.35.35-.35h6.28c.19 0 .35.16.35.35 0 .19-.16.34-.35.34zm0-1.22h-6.28c-.19 0-.35-.15-.35-.34 0-.19.16-.34.35-.34h6.28c.19 0 .35.15.35.34 0 .19-.16.34-.35.34z" class="st2" transform="translate(231.761 -135.37)"/><text x="-10.86" y="421.83" class="st3" transform="translate(231.761 -135.37)">Management<tspan x="3.71" class="st4" dy="1.2em">server</tspan></text></g><g id="shape1024-16"><path d="M0 398.2h107.19" class="st6" transform="rotate(180 107.935 328.075)"/></g><g id="group1025-22" transform="translate(378.984 -234.716)"><g id="shape1026-23"><path d="M29.99 388.44H1.22c-.67 0-1.22.55-1.22 1.22v7.32c0 .67.55 1.22 1.22 1.22h28.77c.68 0 1.23-.55 1.23-1.22v-7.32c0-.67-.55-1.22-1.23-1.22zm-27.33 8.51c-.61 0-1.1-.5-1.1-1.11 0-.61.49-1.1 1.1-1.1.61 0 1.11.49 1.11 1.1 0 .61-.5 1.11-1.11 1.11zm26.24-.45h-6.28c-.19 0-.35-.15-.35-.34 0-.19.16-.35.35-.35h6.28c.19 0 .35.16.35.35 0 .19-.16.34-.35.34zm0-1.22h-6.28c-.19 0-.35-.15-.35-.34 0-.19.16-.35.35-.35h6.28c.19 0 .35.16.35.35 0 .19-.16.34-.35.34zm0-1.22h-6.28c-.19 0-.35-.15-.35-.34 0-.19.16-.34.35-.34h6.28c.19 0 .35.15.35.34 0 .19-.16.34-.35.34z" class="st2" transform="translate(28.277 -37.81)"/></g><g id="group1027-25" transform="translate(55.067 -38.813)"><g id="group1028-26" transform="translate(0 -6.836)"><g id="shape1029-27"><path d="M4.22 395.34c-.74 0-1.34-.61-1.34-1.35 0-.74.6-1.34 1.34-1.34.74 0 1.33.6 1.33 1.34.01.74-.59 1.35-1.33 1.35zm2.62-4.68l-1.09.56-.66-.28-.42-1.16h-.95l-.38 1.16-.66.28-1.12-.53-.68.68.56 1.09-.28.65-1.16.43v.95l1.16.38.28.66-.53 1.11.68.68 1.09-.55.65.27.43 1.16h.95l.38-1.16.65-.27 1.12.52.68-.67-.55-1.08.27-.67 1.16-.42v-.96l-1.16-.38-.27-.65.53-1.11-.68-.69z" class="st8"/></g></g><g id="group1030-29" transform="translate(6.251)"><g id="shape1031-30"><path d="M5.96 394.16c-1.05 0-1.9-.86-1.9-1.9 0-1.05.86-1.9 1.9-1.9s1.88.85 1.88 1.9c.01 1.04-.84 1.9-1.88 1.9zm3.69-6.6l-1.53.78-.94-.38-.59-1.65H5.25l-.53 1.65-.94.38-1.58-.74-.95.96.78 1.53-.39.93-1.64.6v1.34l1.63.53.4.94-.75 1.57.97.96 1.53-.78.93.39.59 1.63h1.36l.53-1.63.92-.39 1.58.74.95-.96-.77-1.52.39-.95 1.63-.58v-1.36l-1.63-.53-.39-.93.75-1.56-.97-.97z" class="st8"/></g></g></g><g id="shape1032-32"><path d="M0 365.574h87.773v32.625H0z" class="st9" transform="translate(0 -10.688)"/><text x="7.27" y="384.59" class="st3" transform="translate(0 -10.688)">Domain Controller</text></g></g><g id="group1033-35" transform="translate(378.984 -135.828)"><g id="shape1034-36"><path d="M29.99 388.44H1.22c-.67 0-1.22.55-1.22 1.22v7.32c0 .67.55 1.22 1.22 1.22h28.77c.68 0 1.23-.55 1.23-1.22v-7.32c0-.67-.55-1.22-1.23-1.22zm-27.33 8.51c-.61 0-1.1-.5-1.1-1.11 0-.61.49-1.1 1.1-1.1.61 0 1.11.49 1.11 1.1 0 .61-.5 1.11-1.11 1.11zm26.24-.45h-6.28c-.19 0-.35-.15-.35-.34 0-.19.16-.35.35-.35h6.28c.19 0 .35.16.35.35 0 .19-.16.34-.35.34zm0-1.22h-6.28c-.19 0-.35-.15-.35-.34 0-.19.16-.35.35-.35h6.28c.19 0 .35.16.35.35 0 .19-.16.34-.35.34zm0-1.22h-6.28c-.19 0-.35-.15-.35-.34 0-.19.16-.34.35-.34h6.28c.19 0 .35.15.35.34 0 .19-.16.34-.35.34z" class="st2" transform="translate(28.277 -37.81)"/></g><g id="group1035-38" transform="translate(55.067 -38.813)"><g id="group1036-39" transform="translate(0 -6.836)"><g id="shape1037-40"><path d="M4.22 395.34c-.74 0-1.34-.61-1.34-1.35 0-.74.6-1.34 1.34-1.34.74 0 1.33.6 1.33 1.34.01.74-.59 1.35-1.33 1.35zm2.62-4.68l-1.09.56-.66-.28-.42-1.16h-.95l-.38 1.16-.66.28-1.12-.53-.68.68.56 1.09-.28.65-1.16.43v.95l1.16.38.28.66-.53 1.11.68.68 1.09-.55.65.27.43 1.16h.95l.38-1.16.65-.27 1.12.52.68-.67-.55-1.08.27-.67 1.16-.42v-.96l-1.16-.38-.27-.65.53-1.11-.68-.69z" class="st8"/></g></g><g id="group1038-42" transform="translate(6.251)"><g id="shape1039-43"><path d="M5.96 394.16c-1.05 0-1.9-.86-1.9-1.9 0-1.05.86-1.9 1.9-1.9s1.88.85 1.88 1.9c.01 1.04-.84 1.9-1.88 1.9zm3.69-6.6l-1.53.78-.94-.38-.59-1.65H5.25l-.53 1.65-.94.38-1.58-.74-.95.96.78 1.53-.39.93-1.64.6v1.34l1.63.53.4.94-.75 1.57.97.96 1.53-.78.93.39.59 1.63h1.36l.53-1.63.92-.39 1.58.74.95-.96-.77-1.52.39-.95 1.63-.58v-1.36l-1.63-.53-.39-.93.75-1.56-.97-.97z" class="st8"/></g></g></g><g id="shape1040-45"><path d="M0 365.574h87.773v32.625H0z" class="st9" transform="translate(0 -10.688)"/><text x="22.37" y="384.59" class="st3" transform="translate(0 -10.688)">SQL Server</text></g></g><g id="group1041-48" transform="translate(380.121 -27.75)"><g id="shape1042-49"><path d="M29.99 388.44H1.22c-.67 0-1.22.55-1.22 1.22v7.32c0 .67.55 1.22 1.22 1.22h28.77c.68 0 1.23-.55 1.23-1.22v-7.32c0-.67-.55-1.22-1.23-1.22zm-27.33 8.51c-.61 0-1.1-.5-1.1-1.11 0-.61.49-1.1 1.1-1.1.61 0 1.11.49 1.11 1.1 0 .61-.5 1.11-1.11 1.11zm26.24-.45h-6.28c-.19 0-.35-.15-.35-.34 0-.19.16-.35.35-.35h6.28c.19 0 .35.16.35.35 0 .19-.16.34-.35.34zm0-1.22h-6.28c-.19 0-.35-.15-.35-.34 0-.19.16-.35.35-.35h6.28c.19 0 .35.16.35.35 0 .19-.16.34-.35.34zm0-1.22h-6.28c-.19 0-.35-.15-.35-.34 0-.19.16-.34.35-.34h6.28c.19 0 .35.15.35.34 0 .19-.16.34-.35.34z" class="st2" transform="translate(28.277 -37.81)"/></g><g id="group1043-51" transform="translate(55.067 -38.813)"><g id="group1044-52" transform="translate(0 -6.836)"><g id="shape1045-53"><path d="M4.22 395.34c-.74 0-1.34-.61-1.34-1.35 0-.74.6-1.34 1.34-1.34.74 0 1.33.6 1.33 1.34.01.74-.59 1.35-1.33 1.35zm2.62-4.68l-1.09.56-.66-.28-.42-1.16h-.95l-.38 1.16-.66.28-1.12-.53-.68.68.56 1.09-.28.65-1.16.43v.95l1.16.38.28.66-.53 1.11.68.68 1.09-.55.65.27.43 1.16h.95l.38-1.16.65-.27 1.12.52.68-.67-.55-1.08.27-.67 1.16-.42v-.96l-1.16-.38-.27-.65.53-1.11-.68-.69z" class="st8"/></g></g><g id="group1046-55" transform="translate(6.251)"><g id="shape1047-56"><path d="M5.96 394.16c-1.05 0-1.9-.86-1.9-1.9 0-1.05.86-1.9 1.9-1.9s1.88.85 1.88 1.9c.01 1.04-.84 1.9-1.88 1.9zm3.69-6.6l-1.53.78-.94-.38-.59-1.65H5.25l-.53 1.65-.94.38-1.58-.74-.95.96.78 1.53-.39.93-1.64.6v1.34l1.63.53.4.94-.75 1.57.97.96 1.53-.78.93.39.59 1.63h1.36l.53-1.63.92-.39 1.58.74.95-.96-.77-1.52.39-.95 1.63-.58v-1.36l-1.63-.53-.39-.93.75-1.56-.97-.97z" class="st8"/></g></g></g><g id="shape1048-58"><path d="M0 365.574h87.773v32.625H0z" class="st9" transform="translate(0 -10.688)"/><text x="4.83" y="384.59" class="st3" transform="translate(0 -10.688)">Custom Application</text></g></g><g id="group1073-61" transform="translate(454.371 -153)"><g id="shape1093-62"><path d="M0 382.449h128.25v15.75H0z" class="st5" transform="translate(22.5 -3.526)"/><text x="21.29" y="393.02" class="st3" transform="translate(22.5 -3.526)">Windows Server 2016</text></g><g id="shape1094-65"><path d="M0 382.449h87.773v15.75H0z" class="st5" transform="translate(24.75 -26.625)"/><text x="11.44" y="393.02" class="st3" transform="translate(24.75 -26.625)">SQL Server 2016</text></g></g><g id="group1095-68" transform="translate(463.371 -48.9)"><g id="shape1109-69"><path d="M0 382.449h119.25v15.75H0z" class="st5" transform="translate(22.5 -3.526)"/><text x="26.26" y="393.02" class="st3" transform="translate(22.5 -3.526)">RedHat Linux 6.4</text></g><g id="shape1110-72"><path d="M0 382.449h81v15.75H0z" class="st5" transform="translate(24.75 -26.625)"/><text x="17.43" y="393.02" class="st3" transform="translate(24.75 -26.625)">Custom MP</text></g></g><g id="shape1111-75"><path d="M0 398.2h67.5V261.48h35.19" class="st6" transform="translate(278.871 -140.776)"/></g><g id="shape1112-80"><path d="M0 398.2h37.44" class="st6" transform="translate(346.371 -178.5)"/></g><g id="shape1113-85"><path d="M0 328.45v69.75l41.94-.44" class="st6" transform="translate(346.371 -70.5)"/></g><g id="group1117-90" transform="translate(276.621 -147)"><g id="shape1114-91"><path stroke="#c00000" stroke-linecap="round" stroke-linejoin="round" stroke-width="1.5" marker-end="url(#mrkr13-96)" d="M114.75 258.7H71.16a9 9-180 0 0-9 9v121.5a9 9 0 0 1-9 9h-41.1"/></g><g id="shape1116-97"><path d="M0 398.2h54.84" class="st12" transform="translate(62.156 -40.5)"/></g></g><g id="shape1119-100"><path d="M96.77 327.7H61.42a9 9-180 0 0-9 9v52.5a9 9 0 0 1-9 9H0" class="st12" transform="matrix(1 0 0 -1 299.097 649.399)"/></g><g id="group1122-103" transform="translate(38.12 -243.75)"><g id="shape1120-104"><path d="M0 371.199h148.5v27H0z" class="st5" transform="translate(13.5 2.25)"/><text x="4" y="381.7" class="st13" transform="translate(13.5 2.25)">Management pack installed in <tspan x="4" class="st4" dy="1.2em">management group</tspan></text></g><g id="shape1121-108"><path d="M0 384.699h13.5v13.5H0z" class="st14" transform="translate(0 -13.5)"/><text x="4" y="395.05" class="st15" transform="translate(0 -13.5)">1</text></g></g><g id="group1123-111" transform="translate(168.621 -169.5)"><g id="shape1124-112"><path d="M0 357.699h144v40.5H0z" class="st5" transform="translate(15.75 15.75)"/><text x="4" y="368.95" class="st13" transform="translate(15.75 15.75)">Management server notifies <tspan x="4" class="st4" dy="1.2em">agents of config change and they </tspan><tspan x="4" class="st4" dy="1.2em">download management pack(s)</tspan></text></g><g id="shape1125-117"><path d="M0 384.699h13.5v13.5H0z" class="st14" transform="translate(0 -13.5)"/><text x="4" y="395.05" class="st15" transform="translate(0 -13.5)">2</text></g></g><g id="group1126-120" transform="translate(446.496 -333.75)"><g id="shape1127-121"><path d="M0 365.612h159.75V398.2H0z" class="st5" transform="translate(14.625 6.75)"/><text x="4" y="378.91" class="st13" transform="translate(14.625 6.75)">Agent discovers components and <tspan x="4" class="st4" dy="1.2em">loads workloads</tspan></text></g><g id="shape1128-125"><path d="M0 384.699h13.5v13.5H0z" class="st14" transform="translate(0 -13.5)"/><text x="4" y="395.05" class="st15" transform="translate(0 -13.5)">3</text></g></g><g id="group1129-128" transform="translate(580.371 -192)"><g id="shape1130-129"><path d="M0 371.199h159.75v27H0z" class="st5" transform="translate(15.75 -2.25)"/><text x="4" y="387.7" class="st13" transform="translate(15.75 -2.25)">Workflows run on agent</text></g><g id="shape1131-132"><path d="M0 384.699h13.5v13.5H0z" class="st14" transform="translate(0 -13.5)"/><text x="4" y="395.05" class="st15" transform="translate(0 -13.5)">4</text></g></g><g id="group1132-135" transform="translate(166.371 -68.25)"><g id="shape1133-136"><path d="M0 335.199h116.977v63H0z" class="st5" transform="translate(15.75 38.25)"/><text x="4" y="345.7" class="st13" transform="translate(15.75 38.25)">Agent forwards collected <tspan x="4" class="st4" dy="1.2em">data to management </tspan><tspan x="4" class="st4" dy="1.2em">servers and is then written </tspan><tspan x="4" class="st4" dy="1.2em">to Operations Manager </tspan><tspan x="4" class="st4" dy="1.2em">database.</tspan></text></g><g id="shape1134-143"><path d="M0 384.699h13.5v13.5H0z" class="st14" transform="translate(0 -13.5)"/><text x="4" y="395.05" class="st15" transform="translate(0 -13.5)">5</text></g></g><g id="group1163-146" transform="translate(455.121 -261.75)"><g id="shape1069-147"><path d="M0 382.449h128.25v15.75H0z" class="st5" transform="translate(22.875 -4.5)"/><text x="21.29" y="393.02" class="st3" transform="translate(22.875 -4.5)">Windows Server 2016</text></g><g id="shape1070-150"><path d="M0 382.449h87.773v15.75H0z" class="st5" transform="translate(17.25 -21.974)"/><text x="21.36" y="393.02" class="st3" transform="translate(17.25 -21.974)">DNS Server</text></g><g id="shape1071-153"><path d="M0 382.449h95.625v15.75H0z" class="st5" transform="translate(12.188 -43.875)"/><text x="16.33" y="393.02" class="st3" transform="translate(12.188 -43.875)">Active Directory</text></g><g id="group1136-156" transform="translate(0 -36)"><g id="shape1137-157"><path d="M16.5 368.2H0v30h24v-22.5l-7.5-7.5z" class="st16"/></g><g id="shape1138-159"><path d="M16.5 368.2H0v30h24v-22.5l-7.5-7.5z" class="st17"/></g><g id="shape1139-161"><path d="M16.5 368.2H0v30h24v-22.5l-7.5-7.5zm6 28.5h-21v-27h14.25v6.75h6.75v20.25z" class="st8"/></g><g id="shape1140-163"><path d="M0 396.699h13.5v1.5H0z" class="st8" transform="translate(5.25 -16.5)"/></g><g id="shape1141-165"><path d="M0 396.699h13.5v1.5H0z" class="st8" transform="translate(5.25 -12.75)"/></g><g id="shape1142-167"><path d="M0 396.699h13.5v1.5H0z" class="st8" transform="translate(5.25 -9)"/></g><g id="shape1143-169"><path d="M0 396.699h13.5v1.5H0z" class="st8" transform="translate(5.25 -5.25)"/></g><g id="shape1144-171"><path d="M0 368.199h24v30H0z" class="st18"/></g></g><g id="group1145-173" transform="translate(6 -18)"><g id="shape1146-174"><path d="M16.5 368.2H0v30h24v-22.5l-7.5-7.5z" class="st16"/></g><g id="shape1147-176"><path d="M16.5 368.2H0v30h24v-22.5l-7.5-7.5z" class="st17"/></g><g id="shape1148-178"><path d="M16.5 368.2H0v30h24v-22.5l-7.5-7.5zm6 28.5h-21v-27h14.25v6.75h6.75v20.25z" class="st8"/></g><g id="shape1149-180"><path d="M0 396.699h13.5v1.5H0z" class="st8" transform="translate(5.25 -16.5)"/></g><g id="shape1150-182"><path d="M0 396.699h13.5v1.5H0z" class="st8" transform="translate(5.25 -12.75)"/></g><g id="shape1151-184"><path d="M0 396.699h13.5v1.5H0z" class="st8" transform="translate(5.25 -9)"/></g><g id="shape1152-186"><path d="M0 396.699h13.5v1.5H0z" class="st8" transform="translate(5.25 -5.25)"/></g><g id="shape1153-188"><path d="M0 368.199h24v30H0z" class="st18"/></g></g><g id="group1154-190" transform="translate(15)"><g id="shape1155-191"><path d="M16.5 368.2H0v30h24v-22.5l-7.5-7.5z" class="st16"/></g><g id="shape1156-193"><path d="M16.5 368.2H0v30h24v-22.5l-7.5-7.5z" class="st17"/></g><g id="shape1157-195"><path d="M16.5 368.2H0v30h24v-22.5l-7.5-7.5zm6 28.5h-21v-27h14.25v6.75h6.75v20.25z" class="st8"/></g><g id="shape1158-197"><path d="M0 396.699h13.5v1.5H0z" class="st8" transform="translate(5.25 -16.5)"/></g><g id="shape1159-199"><path d="M0 396.699h13.5v1.5H0z" class="st8" transform="translate(5.25 -12.75)"/></g><g id="shape1160-201"><path d="M0 396.699h13.5v1.5H0z" class="st8" transform="translate(5.25 -9)"/></g><g id="shape1161-203"><path d="M0 396.699h13.5v1.5H0z" class="st8" transform="translate(5.25 -5.25)"/></g><g id="shape1162-205"><path d="M0 368.199h24v30H0z" class="st18"/></g></g></g><g id="group1164-207" transform="translate(463.371 -172.5)"><g id="shape1165-208"><path d="M16.5 368.2H0v30h24v-22.5l-7.5-7.5z" class="st16"/></g><g id="shape1166-210"><path d="M16.5 368.2H0v30h24v-22.5l-7.5-7.5z" class="st17"/></g><g id="shape1167-212"><path d="M16.5 368.2H0v30h24v-22.5l-7.5-7.5zm6 28.5h-21v-27h14.25v6.75h6.75v20.25z" class="st8"/></g><g id="shape1168-214"><path d="M0 396.699h13.5v1.5H0z" class="st8" transform="translate(5.25 -16.5)"/></g><g id="shape1169-216"><path d="M0 396.699h13.5v1.5H0z" class="st8" transform="translate(5.25 -12.75)"/></g><g id="shape1170-218"><path d="M0 396.699h13.5v1.5H0z" class="st8" transform="translate(5.25 -9)"/></g><g id="shape1171-220"><path d="M0 396.699h13.5v1.5H0z" class="st8" transform="translate(5.25 -5.25)"/></g><g id="shape1172-222"><path d="M0 368.199h24v30H0z" class="st18"/></g></g><g id="group1173-224" transform="translate(470.121 -153)"><g id="shape1174-225"><path d="M16.5 368.2H0v30h24v-22.5l-7.5-7.5z" class="st16"/></g><g id="shape1175-227"><path d="M16.5 368.2H0v30h24v-22.5l-7.5-7.5z" class="st17"/></g><g id="shape1176-229"><path d="M16.5 368.2H0v30h24v-22.5l-7.5-7.5zm6 28.5h-21v-27h14.25v6.75h6.75v20.25z" class="st8"/></g><g id="shape1177-231"><path d="M0 396.699h13.5v1.5H0z" class="st8" transform="translate(5.25 -16.5)"/></g><g id="shape1178-233"><path d="M0 396.699h13.5v1.5H0z" class="st8" transform="translate(5.25 -12.75)"/></g><g id="shape1179-235"><path d="M0 396.699h13.5v1.5H0z" class="st8" transform="translate(5.25 -9)"/></g><g id="shape1180-237"><path d="M0 396.699h13.5v1.5H0z" class="st8" transform="translate(5.25 -5.25)"/></g><g id="shape1181-239"><path d="M0 368.199h24v30H0z" class="st18"/></g></g><g id="group1182-241" transform="translate(476.121 -68.4)"><g id="shape1183-242"><path d="M16.5 368.2H0v30h24v-22.5l-7.5-7.5z" class="st16"/></g><g id="shape1184-244"><path d="M16.5 368.2H0v30h24v-22.5l-7.5-7.5z" class="st17"/></g><g id="shape1185-246"><path d="M16.5 368.2H0v30h24v-22.5l-7.5-7.5zm6 28.5h-21v-27h14.25v6.75h6.75v20.25z" class="st8"/></g><g id="shape1186-248"><path d="M0 396.699h13.5v1.5H0z" class="st8" transform="translate(5.25 -16.5)"/></g><g id="shape1187-250"><path d="M0 396.699h13.5v1.5H0z" class="st8" transform="translate(5.25 -12.75)"/></g><g id="shape1188-252"><path d="M0 396.699h13.5v1.5H0z" class="st8" transform="translate(5.25 -9)"/></g><g id="shape1189-254"><path d="M0 396.699h13.5v1.5H0z" class="st8" transform="translate(5.25 -5.25)"/></g><g id="shape1190-256"><path d="M0 368.199h24v30H0z" class="st18"/></g></g><g id="group1191-258" transform="translate(482.121 -48.9)"><g id="shape1192-259"><path d="M16.5 368.2H0v30h24v-22.5l-7.5-7.5z" class="st16"/></g><g id="shape1193-261"><path d="M16.5 368.2H0v30h24v-22.5l-7.5-7.5z" class="st17"/></g><g id="shape1194-263"><path d="M16.5 368.2H0v30h24v-22.5l-7.5-7.5zm6 28.5h-21v-27h14.25v6.75h6.75v20.25z" class="st8"/></g><g id="shape1195-265"><path d="M0 396.699h13.5v1.5H0z" class="st8" transform="translate(5.25 -16.5)"/></g><g id="shape1196-267"><path d="M0 396.699h13.5v1.5H0z" class="st8" transform="translate(5.25 -12.75)"/></g><g id="shape1197-269"><path d="M0 396.699h13.5v1.5H0z" class="st8" transform="translate(5.25 -9)"/></g><g id="shape1198-271"><path d="M0 396.699h13.5v1.5H0z" class="st8" transform="translate(5.25 -5.25)"/></g><g id="shape1199-273"><path d="M0 368.199h24v30H0z" class="st18"/></g></g><g id="group1200-275" transform="translate(71.12 -201.75)"><g id="shape1201-276"><path d="M16.5 368.2H0v30h24v-22.5l-7.5-7.5z" class="st16"/></g><g id="shape1202-278"><path d="M16.5 368.2H0v30h24v-22.5l-7.5-7.5z" class="st17"/></g><g id="shape1203-280"><path d="M16.5 368.2H0v30h24v-22.5l-7.5-7.5zm6 28.5h-21v-27h14.25v6.75h6.75v20.25z" class="st8"/></g><g id="shape1204-282"><path d="M0 396.699h13.5v1.5H0z" class="st8" transform="translate(5.25 -16.5)"/></g><g id="shape1205-284"><path d="M0 396.699h13.5v1.5H0z" class="st8" transform="translate(5.25 -12.75)"/></g><g id="shape1206-286"><path d="M0 396.699h13.5v1.5H0z" class="st8" transform="translate(5.25 -9)"/></g><g id="shape1207-288"><path d="M0 396.699h13.5v1.5H0z" class="st8" transform="translate(5.25 -5.25)"/></g><g id="shape1208-290"><path d="M0 368.199h24v30H0z" class="st18"/></g></g><g id="group1209-292" transform="translate(80.12 -186.75)"><g id="shape1210-293"><path d="M16.5 368.2H0v30h24v-22.5l-7.5-7.5z" class="st16"/></g><g id="shape1211-295"><path d="M16.5 368.2H0v30h24v-22.5l-7.5-7.5z" class="st17"/></g><g id="shape1212-297"><path d="M16.5 368.2H0v30h24v-22.5l-7.5-7.5zm6 28.5h-21v-27h14.25v6.75h6.75v20.25z" class="st8"/></g><g id="shape1213-299"><path d="M0 396.699h13.5v1.5H0z" class="st8" transform="translate(5.25 -16.5)"/></g><g id="shape1214-301"><path d="M0 396.699h13.5v1.5H0z" class="st8" transform="translate(5.25 -12.75)"/></g><g id="shape1215-303"><path d="M0 396.699h13.5v1.5H0z" class="st8" transform="translate(5.25 -9)"/></g><g id="shape1216-305"><path d="M0 396.699h13.5v1.5H0z" class="st8" transform="translate(5.25 -5.25)"/></g><g id="shape1217-307"><path d="M0 368.199h24v30H0z" class="st18"/></g></g><g id="group1218-309" transform="translate(89.12 -171.75)"><g id="shape1219-310"><path d="M16.5 368.2H0v30h24v-22.5l-7.5-7.5z" class="st16"/></g><g id="shape1220-312"><path d="M16.5 368.2H0v30h24v-22.5l-7.5-7.5z" class="st17"/></g><g id="shape1221-314"><path d="M16.5 368.2H0v30h24v-22.5l-7.5-7.5zm6 28.5h-21v-27h14.25v6.75h6.75v20.25z" class="st8"/></g><g id="shape1222-316"><path d="M0 396.699h13.5v1.5H0z" class="st8" transform="translate(5.25 -16.5)"/></g><g id="shape1223-318"><path d="M0 396.699h13.5v1.5H0z" class="st8" transform="translate(5.25 -12.75)"/></g><g id="shape1224-320"><path d="M0 396.699h13.5v1.5H0z" class="st8" transform="translate(5.25 -9)"/></g><g id="shape1225-322"><path d="M0 396.699h13.5v1.5H0z" class="st8" transform="translate(5.25 -5.25)"/></g><g id="shape1226-324"><path d="M0 368.199h24v30H0z" class="st18"/></g></g></g></svg>