<svg xmlns="http://www.w3.org/2000/svg" xmlns:xlink="http://www.w3.org/1999/xlink" width="511.063" height="419" fill="none" fill-rule="evenodd" stroke-linecap="square" stroke-miterlimit="3" color-interpolation-filters="sRGB" font-size="12" overflow="visible" viewBox="0 0 383.297 314.25"><style>.st2,.st3{fill:#00188f}.st2{stroke:none;stroke-linecap:butt;stroke-width:.75}.st3{font-family:Segoe UI;font-size:.75em}.st4{font-size:1em}.st5{fill:none;stroke:none;stroke-linecap:round;stroke-linejoin:round;stroke-width:1.5}.st6{fill:#000;font-family:Segoe UI;font-size:.75em}.st10,.st11{stroke:none;stroke-linecap:butt;stroke-width:.75}.st7{fill:#fff}.st7,.st8,.st9{stroke:none;stroke-linecap:butt;stroke-width:.75}.st8{fill:gray}.st9{fill:#76a797}.st10{fill:#edc87e}.st11{fill:#b3b3b3}.st12{fill:#002060;font-family:Segoe UI;font-size:.75em}.st13,.st16{fill:#7f7f7f;stroke:none;stroke-linecap:butt;stroke-width:.75}.st16{fill:#515050}.st17{fill:none}.st18,.st19{stroke:#a5a5a5;stroke-linecap:butt;stroke-width:2.25}.st19{marker-end:url(#mrkr3-154);stroke-linecap:round;stroke-linejoin:round;stroke-width:2}</style><defs id="Markers"><path id="lend3" stroke-linecap="round" stroke-linejoin="round" d="M2 1L0 0l2-1"/><marker id="mrkr3-154" fill="#a5a5a5" stroke="#a5a5a5" stroke-width=".442" orient="auto" overflow="visible"><use transform="scale(-2.26)" xlink:href="#lend3"/></marker></defs><g><g id="shape1003-1" transform="translate(6.797 -.75)"><rect width="375.75" height="312.75" y="1.5" fill="#fff" stroke="#595959" stroke-linecap="round" stroke-linejoin="round" stroke-width="1.5" rx="9" ry="9"/></g><g id="group1-3" transform="translate(35.808 -115.5)"><g id="shape2-4"><path d="M20.6 314.25l-7.53-16.03-4.31 8.55-4.31-4.64-1.86 3.72H0v-1.98h1.37l2.59-5.18 4.31 4.65 4.86-9.64 7.8 16.6L30 297.2l3.35 10.63h1.25v1.97h-2.7l-2.58-8.16-8.72 12.61z" class="st2" transform="translate(5.438 -6.04)"/></g><g id="shape3-6"><path d="M41.52 285.58v24.72H3.95v-24.72h37.57zm2.47-3.96H1.48c-.82 0-1.48.67-1.48 1.49v29.66c0 .82.66 1.48 1.48 1.48h42.51c.82 0 1.49-.66 1.49-1.48v-29.66c0-.82-.67-1.49-1.49-1.49z" class="st2"/></g><g id="shape1-8"><text x=".72" y="332.7" class="st3">Operations<tspan x="7.43" class="st4" dy="1.2em">console</tspan></text></g></g><g id="shape1072-11"><path d="M0 289.5h90v24.75H0z" class="st5" transform="translate(150.797 -280.875)"/><text x="4.08" y="299.18" class="st6" transform="translate(150.797 -280.875)">Operations Manager<tspan x="4.82" class="st4" dy="1.2em">Management Group</tspan></text></g><g id="group1141-15" transform="translate(274.524 -216.978)"><g id="group1113-16" transform="translate(29.022 -18)"><g id="shape1114-17"><path d="M2.1 314.25a2.1 2.1 0 0 1-2.1-2.1v-6.71c0-.86.49-1.64 1.21-1.97l4.81-4.74h19.99l4.74 4.74c.72.34 1.21 1.12 1.21 1.97v6.71c0 1.16-.95 2.1-2.1 2.1H2.1z" class="st7"/></g><g id="shape1115-19"><path d="M30.2 312.99c0 .7-.56 1.26-1.25 1.26H1.26c-.7 0-1.26-.56-1.26-1.26v-6.71c0-.7.56-1.26 1.26-1.26h27.69c.69 0 1.25.56 1.25 1.26v6.71z" class="st8" transform="translate(.839 -.839)"/></g><g id="shape1116-21"><path d="M.42 314.25c-.23 0-.42-.19-.42-.42v-6.71c0-.23.19-.42.42-.42h27.67c.23 0 .42.19.42.42v6.71c0 .23-.19.42-.42.42H.42z" class="st7" transform="translate(1.678 -1.678)"/></g><g id="shape1117-23"><path d="M26.85 314.25H0l3.78-3.78h19.29l3.78 3.78z" class="st8" transform="translate(2.517 -10.907)"/></g><g id="group1118-25" transform="translate(4.195 -2.517)"><g id="shape1119-26" transform="translate(1.049 -4.615)"><ellipse cx=".629" cy="313.621" class="st9" rx=".629" ry=".629"/></g><g id="shape1120-28" transform="translate(1.049)"><ellipse cx=".629" cy="313.621" class="st10" rx=".629" ry=".629"/></g><g id="shape1121-30"><path d="M3.36 313.41c0 .46-.38.84-.84.84H.84c-.46 0-.84-.38-.84-.84 0-.46.38-.84.84-.84h1.68c.46 0 .84.38.84.84z" class="st11" transform="translate(0 -2.098)"/></g></g><g id="group1122-32" transform="translate(10.907 -2.517)"><g id="shape1123-33" transform="translate(1.049 -4.615)"><ellipse cx=".629" cy="313.621" class="st9" rx=".629" ry=".629"/></g><g id="shape1124-35" transform="translate(1.049)"><ellipse cx=".629" cy="313.621" class="st10" rx=".629" ry=".629"/></g><g id="shape1125-37"><path d="M3.36 313.41c0 .46-.38.84-.84.84H.84c-.46 0-.84-.38-.84-.84 0-.46.38-.84.84-.84h1.68c.46 0 .84.38.84.84z" class="st11" transform="translate(0 -2.098)"/></g></g><g id="group1126-39" transform="translate(17.62 -2.517)"><g id="shape1127-40" transform="translate(1.049 -4.615)"><ellipse cx=".629" cy="313.621" class="st9" rx=".629" ry=".629"/></g><g id="shape1128-42" transform="translate(1.049)"><ellipse cx=".629" cy="313.621" class="st10" rx=".629" ry=".629"/></g><g id="shape1129-44"><path d="M3.36 313.41c0 .46-.38.84-.84.84H.84c-.46 0-.84-.38-.84-.84 0-.46.38-.84.84-.84h1.68c.46 0 .84.38.84.84z" class="st11" transform="translate(0 -2.098)"/></g></g><g id="group1130-46" transform="translate(24.332 -2.517)"><g id="shape1131-47" transform="translate(1.049 -4.615)"><ellipse cx=".629" cy="313.621" class="st9" rx=".629" ry=".629"/></g><g id="shape1132-49" transform="translate(1.049)"><ellipse cx=".629" cy="313.621" class="st10" rx=".629" ry=".629"/></g><g id="shape1133-51"><path d="M3.36 313.41c0 .46-.38.84-.84.84H.84c-.46 0-.84-.38-.84-.84 0-.46.38-.84.84-.84h1.68c.46 0 .84.38.84.84z" class="st11" transform="translate(0 -2.098)"/></g></g></g><g id="shape1134-53"><path d="M0 296.25h90v18H0z" class="st5"/><text x="13.65" y="307.95" class="st12">Network Device</text></g></g><g id="group1198-57" transform="translate(276.774 -153.83)"><g id="shape1199-58"><path d="M29.99 304.49H1.22c-.67 0-1.22.55-1.22 1.22v7.32c0 .67.55 1.22 1.22 1.22h28.77c.68 0 1.23-.55 1.23-1.22v-7.32c0-.67-.55-1.22-1.23-1.22zM2.66 313c-.61 0-1.1-.5-1.1-1.11 0-.61.49-1.1 1.1-1.1.61 0 1.11.49 1.11 1.1 0 .61-.5 1.11-1.11 1.11zm26.24-.45h-6.28c-.19 0-.35-.15-.35-.34 0-.19.16-.35.35-.35h6.28c.19 0 .35.16.35.35 0 .19-.16.34-.35.34zm0-1.22h-6.28c-.19 0-.35-.15-.35-.34 0-.19.16-.35.35-.35h6.28c.19 0 .35.16.35.35 0 .19-.16.34-.35.34zm0-1.22h-6.28c-.19 0-.35-.15-.35-.34 0-.19.16-.34.35-.34h6.28c.19 0 .35.15.35.34 0 .19-.16.34-.35.34z" class="st2" transform="translate(28.277 -37.81)"/></g><g id="group1200-60" transform="translate(55.067 -38.813)"><g id="group1201-61" transform="translate(0 -6.836)"><g id="shape1202-62"><path d="M4.22 311.39c-.74 0-1.34-.61-1.34-1.35 0-.74.6-1.34 1.34-1.34.74 0 1.33.6 1.33 1.34.01.74-.59 1.35-1.33 1.35zm2.62-4.68l-1.09.56-.66-.28-.42-1.16h-.95l-.38 1.16-.66.28-1.12-.53-.68.68.56 1.09-.28.66-1.16.42v.95l1.16.38.28.66-.53 1.11.68.68 1.09-.55.65.27.43 1.16h.95l.38-1.16.65-.27 1.12.52.68-.67-.55-1.08.27-.67 1.16-.42v-.96l-1.16-.37-.27-.66.53-1.11-.68-.69z" class="st13"/></g></g><g id="group1203-64" transform="translate(6.251)"><g id="shape1204-65"><path d="M5.96 310.21c-1.05 0-1.9-.86-1.9-1.9 0-1.05.86-1.9 1.9-1.9s1.88.85 1.88 1.9c.01 1.04-.84 1.9-1.88 1.9zm3.69-6.6l-1.53.78-.94-.38-.59-1.65H5.25l-.53 1.65-.94.38-1.58-.74-.95.96.78 1.53-.39.93-1.64.6v1.34l1.63.53.4.94-.75 1.57.97.96 1.53-.78.93.39.59 1.63h1.36l.53-1.63.92-.39 1.58.74.95-.96-.77-1.52.39-.95 1.63-.58v-1.36l-1.63-.53-.39-.93.75-1.56-.97-.97z" class="st13"/></g></g></g><g id="shape1205-67"><path d="M0 294.003h87.773v20.247H0z" class="st5" transform="translate(0 -16.346)"/><text x="5.99" y="306.83" class="st12" transform="translate(0 -16.346)">UNIX/Linux System</text></g></g><g id="group1206-70" transform="translate(276.774 -99.898)"><g id="shape1207-71"><path d="M29.99 304.49H1.22c-.67 0-1.22.55-1.22 1.22v7.32c0 .67.55 1.22 1.22 1.22h28.77c.68 0 1.23-.55 1.23-1.22v-7.32c0-.67-.55-1.22-1.23-1.22zM2.66 313c-.61 0-1.1-.5-1.1-1.11 0-.61.49-1.1 1.1-1.1.61 0 1.11.49 1.11 1.1 0 .61-.5 1.11-1.11 1.11zm26.24-.45h-6.28c-.19 0-.35-.15-.35-.34 0-.19.16-.35.35-.35h6.28c.19 0 .35.16.35.35 0 .19-.16.34-.35.34zm0-1.22h-6.28c-.19 0-.35-.15-.35-.34 0-.19.16-.35.35-.35h6.28c.19 0 .35.16.35.35 0 .19-.16.34-.35.34zm0-1.22h-6.28c-.19 0-.35-.15-.35-.34 0-.19.16-.34.35-.34h6.28c.19 0 .35.15.35.34 0 .19-.16.34-.35.34z" class="st2" transform="translate(28.277 -37.81)"/></g><g id="group1208-73" transform="translate(55.067 -38.813)"><g id="group1209-74" transform="translate(0 -6.836)"><g id="shape1210-75"><path d="M4.22 311.39c-.74 0-1.34-.61-1.34-1.35 0-.74.6-1.34 1.34-1.34.74 0 1.33.6 1.33 1.34.01.74-.59 1.35-1.33 1.35zm2.62-4.68l-1.09.56-.66-.28-.42-1.16h-.95l-.38 1.16-.66.28-1.12-.53-.68.68.56 1.09-.28.66-1.16.42v.95l1.16.38.28.66-.53 1.11.68.68 1.09-.55.65.27.43 1.16h.95l.38-1.16.65-.27 1.12.52.68-.67-.55-1.08.27-.67 1.16-.42v-.96l-1.16-.37-.27-.66.53-1.11-.68-.69z" class="st13"/></g></g><g id="group1211-77" transform="translate(6.251)"><g id="shape1212-78"><path d="M5.96 310.21c-1.05 0-1.9-.86-1.9-1.9 0-1.05.86-1.9 1.9-1.9s1.88.85 1.88 1.9c.01 1.04-.84 1.9-1.88 1.9zm3.69-6.6l-1.53.78-.94-.38-.59-1.65H5.25l-.53 1.65-.94.38-1.58-.74-.95.96.78 1.53-.39.93-1.64.6v1.34l1.63.53.4.94-.75 1.57.97.96 1.53-.78.93.39.59 1.63h1.36l.53-1.63.92-.39 1.58.74.95-.96-.77-1.52.39-.95 1.63-.58v-1.36l-1.63-.53-.39-.93.75-1.56-.97-.97z" class="st13"/></g></g></g><g id="shape1213-80"><path d="M0 292.456h87.773v21.794H0z" class="st5" transform="translate(0 -10.83)"/><text x="11.46" y="300.65" class="st12" transform="translate(0 -10.83)">Agent-managed <tspan x="30.14" class="st4" dy="1.2em">system</tspan></text></g></g><g id="group1214-84" transform="translate(276.774 -35.739)"><g id="shape1215-85"><path d="M29.99 304.49H1.22c-.67 0-1.22.55-1.22 1.22v7.32c0 .67.55 1.22 1.22 1.22h28.77c.68 0 1.23-.55 1.23-1.22v-7.32c0-.67-.55-1.22-1.23-1.22zM2.66 313c-.61 0-1.1-.5-1.1-1.11 0-.61.49-1.1 1.1-1.1.61 0 1.11.49 1.11 1.1 0 .61-.5 1.11-1.11 1.11zm26.24-.45h-6.28c-.19 0-.35-.15-.35-.34 0-.19.16-.35.35-.35h6.28c.19 0 .35.16.35.35 0 .19-.16.34-.35.34zm0-1.22h-6.28c-.19 0-.35-.15-.35-.34 0-.19.16-.35.35-.35h6.28c.19 0 .35.16.35.35 0 .19-.16.34-.35.34zm0-1.22h-6.28c-.19 0-.35-.15-.35-.34 0-.19.16-.34.35-.34h6.28c.19 0 .35.15.35.34 0 .19-.16.34-.35.34z" class="st2" transform="translate(28.277 -37.81)"/></g><g id="shape1221-87"><path d="M0 294.003h87.773v20.247H0z" class="st5" transform="translate(0 -12.378)"/><text x="4.19" y="301.43" class="st12" transform="translate(0 -12.378)">Agentless-managed<tspan x="30.14" class="st4" dy="1.2em">system</tspan></text></g></g><g id="group1269-91" transform="translate(29.297 -172.875)"><g id="group1270-92" transform="translate(5.37 -26.103)"><g id="group1271-93"><g id="shape1272-94"><path fill="#fff" stroke="#fff" stroke-linecap="butt" stroke-width="1.5" d="M42.76 280.73H2.47c-1.37 0-2.47 1.22-2.47 2.59v28.34c0 1.37 1.1 2.59 2.47 2.59h40.29c1.36 0 2.75-1.22 2.75-2.59v-28.34c0-1.38-1.39-2.59-2.75-2.59z"/></g><g id="shape1273-96"><path d="M42.76 280.73H2.47c-1.37 0-2.47 1.22-2.47 2.59v28.34c0 1.37 1.1 2.59 2.47 2.59h40.29c1.36 0 2.75-1.22 2.75-2.59v-28.34c0-1.38-1.39-2.59-2.75-2.59zm-17.2 32.46h-5.61c-.57 0-1.04-.32-1.04-.72 0-.4.47-.72 1.04-.72h5.61c.57 0 1.05.32 1.05.72 0 .4-.48.72-1.05.72zm16.36-28.88v26.35H3.59v-26.35l38.38-.05-.05.05z" class="st13"/></g></g><g id="group1274-98" transform="translate(12.988 -6.207)"><g id="shape1275-99"><path d="M10.55 294.61c5.01 0 9.09 4.08 9.09 9.09 0 5-4.08 9.08-9.09 9.08-5 0-9.08-4.08-9.08-9.08 0-5.01 4.08-9.09 9.08-9.09zm0-1.47C4.73 293.14 0 297.87 0 303.7c0 5.82 4.73 10.55 10.55 10.55 5.83 0 10.56-4.73 10.56-10.55 0-5.83-4.73-10.56-10.56-10.56z" class="st2"/></g><g id="shape1276-101"><path d="M15.03 313.37c-.27.31-.55.6-.85.88-1.68-1.45-4.04-2.36-6.67-2.36-2.62 0-4.98.91-6.66 2.36-.3-.28-.59-.57-.85-.88 1.9-1.66 4.56-2.7 7.51-2.7 2.96 0 5.62 1.04 7.52 2.7z" class="st2" transform="translate(2.946 -3.287)"/></g><g id="shape1277-103"><path d="M15.03 311.55a8.87 8.87 0 0 0-.85-.88c-1.68 1.44-4.04 2.35-6.67 2.35-2.62 0-4.98-.91-6.66-2.35-.3.27-.59.56-.85.88 1.9 1.66 4.56 2.7 7.51 2.7 2.96 0 5.62-1.04 7.52-2.7z" class="st2" transform="translate(3.135 -14.236)"/></g><g id="shape1278-105"><path d="M0 312.777h19.636v1.473H0z" class="st2" transform="translate(.49 -9.818)"/></g><g id="shape1279-107"><path d="M0 294.124h1.473v20.126H0z" class="st2" transform="translate(9.818 -.414)"/></g><g id="shape1280-109"><path d="M7 314.25c-3.86 0-7-4.46-7-9.94 0-5.48 3.14-9.94 7-9.94 3.85 0 6.99 4.46 6.99 9.94 0 5.48-3.14 9.94-6.99 9.94zm0-18.65c-3.18 0-5.77 3.91-5.77 8.71 0 4.8 2.59 8.71 5.77 8.71 3.18 0 5.76-3.91 5.76-8.71 0-4.8-2.58-8.71-5.76-8.71z" class="st2" transform="translate(3.559 -.614)"/></g></g></g><g id="shape1281-111"><path stroke-linecap="round" stroke-linejoin="round" stroke-width=".75" d="M0 294h56.25v20.25H0z"/><text x="18.92" y="301.43" class="st6">Web <tspan x="12.87" class="st4" dy="1.2em">console</tspan></text></g></g><g id="group1282-115" transform="translate(119.893 -18.647)"><g id="shape1193-116"><path d="M0 285.973h82.974v28.277H0z" class="st5" transform="translate(21.529 -70.213)"/><text x="11.1" y="302.81" class="st6" transform="translate(21.529 -70.213)">Operational DB</text></g><g id="shape1194-119"><path d="M0 285.973h104.438v28.277H0z" class="st5" transform="translate(20.371 -37.425)"/><text x="12.36" y="302.81" class="st6" transform="translate(20.371 -37.425)">Data Warehouse DB</text></g><g id="shape1195-122"><path d="M0 285.973h90v28.277H0z" class="st5" transform="translate(15.215)"/><text x="18.33" y="302.81" class="st6" transform="translate(15.215)">Reporting DB</text></g><g id="group1255-125" transform="translate(.283 -71.381)"><g id="shape1256-126"><path d="M26.17 287.62c0-4.2-7.04-5.7-13.12-5.7-6.08 0-13.05 1.5-13.05 5.7V308.03c.38 3.97 5.03 6.22 13.05 6.22 8.1 0 12.75-2.18 13.05-6.22V287.62h.07z" class="st7"/></g><g id="shape1257-128"><path d="M10.87 294.9c-4.27 0-8.62-.75-10.87-2.4v17.63c.37 3.82 8.1 4.12 10.8 4.12 2.7 0 10.5-.3 10.8-4.12V292.58c-2.1 1.57-6.45 2.32-10.73 2.32z" class="st16" transform="translate(2.25 -2.325)"/></g><g id="shape1258-130" transform="translate(2.25 -23.175)"><ellipse cx="10.875" cy="310.8" class="st16" rx="10.875" ry="3.45"/></g></g><g id="group1259-132" transform="translate(0 -37.425)"><g id="shape1260-133"><path d="M26.17 287.62c0-4.2-7.04-5.7-13.12-5.7-6.08 0-13.05 1.5-13.05 5.7V308.03c.38 3.97 5.03 6.22 13.05 6.22 8.1 0 12.75-2.18 13.05-6.22V287.62h.07z" class="st7"/></g><g id="shape1261-135"><path d="M10.87 294.9c-4.27 0-8.62-.75-10.87-2.4v17.63c.37 3.82 8.1 4.12 10.8 4.12 2.7 0 10.5-.3 10.8-4.12V292.58c-2.1 1.57-6.45 2.32-10.73 2.32z" class="st16" transform="translate(2.25 -2.325)"/></g><g id="shape1262-137" transform="translate(2.25 -23.175)"><ellipse cx="10.875" cy="310.8" class="st16" rx="10.875" ry="3.45"/></g></g><g id="group1263-139" transform="translate(.29 -1.425)"><g id="shape1264-140"><path d="M26.17 287.62c0-4.2-7.04-5.7-13.12-5.7-6.08 0-13.05 1.5-13.05 5.7V308.03c.38 3.97 5.03 6.22 13.05 6.22 8.1 0 12.75-2.18 13.05-6.22V287.62h.07z" class="st7"/></g><g id="shape1265-142"><path d="M10.87 294.9c-4.27 0-8.62-.75-10.87-2.4v17.63c.37 3.82 8.1 4.12 10.8 4.12 2.7 0 10.5-.3 10.8-4.12V292.58c-2.1 1.57-6.45 2.32-10.73 2.32z" class="st16" transform="translate(2.25 -2.325)"/></g><g id="shape1266-144" transform="translate(2.25 -23.175)"><ellipse cx="10.875" cy="310.8" class="st16" rx="10.875" ry="3.45"/></g></g></g><g id="shape1283-146"><path d="M0 156.45c8.47 0 15.33 2.16 15.33 4.83v148.14c0 2.67-6.86 4.83-15.33 4.83v-157.8z" class="st17" transform="translate(81.047 -83.696)"/><path d="M0 156.45c8.47 0 15.33 2.16 15.33 4.83v148.14c0 2.67-6.86 4.83-15.33 4.83" class="st18" transform="translate(81.047 -83.696)"/></g><g id="shape1284-149"><path d="M0 314.25h38.67" class="st19" transform="translate(96.379 -162.598)"/></g><g id="group1285-155" transform="translate(156.134 -145.909)"><g id="group1106-156" transform="translate(26.719 -1.105)"><g id="shape1107-157"><path d="M0 306.793h2.373v7.457H0z" class="st13" transform="translate(1.017 -1.356)"/></g><g id="shape1108-159"><path d="M0 309.844h2.373v4.406H0z" class="st13" transform="translate(4.068 -1.356)"/></g><g id="shape1109-161"><path d="M0 304.76h2.373v9.49H0z" class="st13" transform="translate(10.169 -1.356)"/></g><g id="shape1110-163"><path d="M0 308.827h2.373v5.423H0z" class="st13" transform="translate(13.22 -1.356)"/></g><g id="shape1111-165"><path d="M0 303.065h2.373v11.185H0z" class="st13" transform="translate(7.118 -1.356)"/></g><g id="shape1112-167"><path d="M.68 313.57v-15.25H0v15.93h16.61v-.68H.68z" class="st13"/></g></g><g id="shape1242-169"><path d="M29.99 304.49H1.22c-.67 0-1.22.55-1.22 1.22v7.32c0 .67.55 1.22 1.22 1.22h28.77c.68 0 1.23-.55 1.23-1.22v-7.32c0-.67-.55-1.22-1.23-1.22zM2.66 313c-.61 0-1.1-.5-1.1-1.11 0-.61.49-1.1 1.1-1.1.61 0 1.11.49 1.11 1.1 0 .61-.5 1.11-1.11 1.11zm26.24-.45h-6.28c-.19 0-.35-.15-.35-.34 0-.19.16-.35.35-.35h6.28c.19 0 .35.16.35.35 0 .19-.16.34-.35.34zm0-1.22h-6.28c-.19 0-.35-.15-.35-.34 0-.19.16-.35.35-.35h6.28c.19 0 .35.16.35.35 0 .19-.16.34-.35.34zm0-1.22h-6.28c-.19 0-.35-.15-.35-.34 0-.19.16-.34.35-.34h6.28c.19 0 .35.15.35.34 0 .19-.16.34-.35.34z" class="st2" transform="translate(0 -12.807)"/><text x="-10.86" y="337.88" class="st3" transform="translate(0 -12.807)">Management<tspan x="3.71" class="st4" dy="1.2em">server</tspan></text></g><g id="group1244-173" transform="translate(10.898)"><g id="shape1245-174"><path d="M6.82 301.56c3.24 0 5.87 2.63 5.87 5.87s-2.63 5.87-5.87 5.87-5.87-2.63-5.87-5.87 2.63-5.87 5.87-5.87zm0-.95c-3.77 0-6.82 3.05-6.82 6.82 0 3.77 3.05 6.82 6.82 6.82 3.77 0 6.82-3.05 6.82-6.82 0-3.77-3.05-6.82-6.82-6.82z" class="st2"/></g><g id="shape1246-176"><path d="M9.71 313.68c-.17.2-.35.39-.55.57-1.08-.94-2.61-1.52-4.3-1.52-1.7 0-3.23.58-4.31 1.52a7.4 7.4 0 0 1-.55-.57c1.23-1.07 2.95-1.75 4.86-1.75 1.9 0 3.62.68 4.85 1.75z" class="st2" transform="translate(1.904 -2.124)"/></g><g id="shape1247-178"><path d="M9.71 312.5c-.17-.2-.35-.39-.55-.57-1.08.94-2.61 1.53-4.3 1.53-1.7 0-3.23-.59-4.31-1.53-.2.18-.38.37-.55.57 1.23 1.08 2.95 1.75 4.86 1.75 1.9 0 3.62-.67 4.85-1.75z" class="st2" transform="translate(2.026 -9.2)"/></g><g id="shape1248-180"><path d="M0 313.298h12.689v.952H0z" class="st2" transform="translate(.317 -6.344)"/></g><g id="shape1249-182"><path d="M0 301.244h.952v13.006H0z" class="st2" transform="translate(6.344 -.268)"/></g><g id="shape1250-184"><path d="M4.52 314.25c-2.49 0-4.52-2.88-4.52-6.42 0-3.55 2.03-6.43 4.52-6.43 2.49 0 4.52 2.88 4.52 6.43 0 3.54-2.03 6.42-4.52 6.42zm0-12.05c-2.05 0-3.73 2.52-3.73 5.63 0 3.1 1.68 5.63 3.73 5.63 2.06 0 3.73-2.53 3.73-5.63 0-3.11-1.67-5.63-3.73-5.63z" class="st2" transform="translate(2.3 -.397)"/></g></g></g><g id="shape1286-186"><path d="M0 111.75c8.47 0 15.33 2.78 15.33 6.2v190.1c0 3.42-6.86 6.2-15.33 6.2v-202.5z" class="st17" transform="matrix(-1 0 0 1 270.047 -48)"/><path d="M0 111.75c8.47 0 15.33 2.78 15.33 6.2v190.1c0 3.42-6.86 6.2-15.33 6.2" class="st18" transform="matrix(-1 0 0 1 270.047 -48)"/></g><g id="shape1287-189"><path d="M0 314.25h38.67" class="st19" transform="matrix(-1 0 0 1 254.715 -162.75)"/></g></g></svg>