<svg xmlns="http://www.w3.org/2000/svg" width="1587.571" height="315.021" fill="none" fill-rule="evenodd" stroke-linecap="square" stroke-miterlimit="3" color-interpolation-filters="sRGB" font-size="12" overflow="visible" viewBox="0 0 1190.68 236.266"><style>.st2{fill:none;stroke:none;stroke-linecap:round;stroke-linejoin:round;stroke-width:.75}.st3{fill:#000;font-family:Calibri;font-size:1.16666em;font-weight:700}.st4{font-size:1em}.st5{fill:#fff;font-family:Calibri;font-size:1.99999em;font-weight:700}.st6{stroke:#ff0;stroke-linecap:round;stroke-linejoin:round;stroke-width:.75}</style><g><g id="shape1001-1"><path fill="#0070c0" stroke="#000" stroke-linecap="round" stroke-linejoin="round" stroke-width=".75" d="M0 153.918h1189.93v82.348H0z" transform="translate(.375 -151.896)"/></g><g id="shape1004-3"><path d="M0 173.681h121.875v62.585H0z" class="st2" transform="translate(.375 -76.959)"/><text x="32.72" y="190.28" class="st3" transform="translate(.375 -76.959)">Microsoft<tspan x="28.52" class="st4" dy="1.2em">Operations</tspan><tspan x="34.82" class="st4" dy="1.2em">Manager</tspan></text></g><g id="shape1005-8"><path d="M0 173.681h121.875v62.585H0z" class="st2" transform="translate(109.898 -76.959)"/><text x="32.72" y="190.28" class="st3" transform="translate(109.898 -76.959)">Microsoft<tspan x="28.52" class="st4" dy="1.2em">Operations</tspan><tspan x="19.05" class="st4" dy="1.2em">Manager 2005</tspan></text></g><g id="shape1006-13"><path d="M0 153.918h121.875v82.348H0z" class="st2" transform="translate(228.479 -57.195)"/><text x="18.87" y="170.52" class="st3" transform="translate(228.479 -57.195)">System Center<tspan x="28.52" class="st4" dy="1.2em">Operations </tspan><tspan x="34.82" class="st4" dy="1.2em">Manager </tspan><tspan x="46.75" class="st4" dy="1.2em">2007</tspan></text></g><g id="shape1007-19"><path d="M0 173.681h121.875v62.585H0z" class="st2" transform="translate(487.053 -76.959)"/><text x="18.87" y="190.28" class="st3" transform="translate(487.053 -76.959)">System Center<tspan x="28.52" class="st4" dy="1.2em">Operations </tspan><tspan x="19.05" class="st4" dy="1.2em">Manager 2012</tspan></text></g><g id="shape1008-24"><path d="M0 198.386h121.875v37.88H0z" class="st2" transform="translate(361.406 -101.663)"/><text x="9.48" y="214.99" class="st3" transform="translate(361.406 -101.663)">Azure Diagnostics<tspan x="28.21" class="st4" dy="1.2em">(Extension)</tspan></text></g><g id="shape1009-28"><path d="M0 132.507h121.875v103.759H0z" class="st2" transform="translate(613.406 -35.785)"/><text x="44.15" y="149.11" class="st3" transform="translate(613.406 -35.785)">Azure<tspan x="26.14" class="st4" dy="1.2em">Operational </tspan><tspan x="38.51" class="st4" dy="1.2em">Insights</tspan><tspan x="57.93" class="st4" dy="1.2em">/</tspan><tspan x="46.78" class="st4" dy="1.2em">OMS</tspan></text></g><g id="shape1011-35"><path d="M0 173.681h80.701v62.585H0z" class="st2" transform="translate(865.931 -76.959)"/><text x="25.14" y="190.28" class="st3" transform="translate(865.931 -76.959)">Azure<tspan x="16.32" class="st4" dy="1.2em">Monitor </tspan><tspan x="27.29" class="st4" dy="1.2em">(GA)</tspan></text></g><g id="shape1012-40"><path d="M0 183.563h72.466v52.703H0z" class="st2" transform="translate(136.249 -166.718)"/><text x="11.91" y="217.11" class="st5" transform="translate(136.249 -166.718)">2005</text></g><g id="shape1013-43"><path d="M0 183.563h72.466v52.703H0z" class="st2" transform="translate(254.831 -166.718)"/><text x="11.91" y="217.11" class="st5" transform="translate(254.831 -166.718)">2007</text></g><g id="shape1014-46"><path d="M0 183.563h72.466v52.703H0z" class="st2" transform="translate(511.757 -166.718)"/><text x="11.91" y="217.11" class="st5" transform="translate(511.757 -166.718)">2012</text></g><g id="shape1015-49"><path d="M0 183.563h72.466v52.703H0z" class="st2" transform="translate(386.11 -166.718)"/><text x="11.91" y="217.11" class="st5" transform="translate(386.11 -166.718)">2010</text></g><g id="shape1016-52"><path d="M0 236.27h82.35" class="st6" transform="rotate(90 233.009 235.03)"/></g><g id="shape1017-55"><path d="M0 236.27h82.35" class="st6" transform="rotate(90 295.593 297.615)"/></g><g id="shape1018-58"><path d="M0 236.27h82.35" class="st6" transform="rotate(90 359.825 361.846)"/></g><g id="shape1019-61"><path d="M0 236.27h82.35" class="st6" transform="rotate(90 422.409 424.431)"/></g><g id="shape1020-64"><path d="M0 183.563h72.466v52.703H0z" class="st2" transform="translate(638.11 -166.718)"/><text x="11.91" y="217.11" class="st5" transform="translate(638.11 -166.718)">2015</text></g><g id="shape1021-67"><path d="M0 236.27h82.35" class="st6" transform="rotate(90 483.347 485.369)"/></g><g id="shape1022-70"><path d="M0 183.563h72.466v52.703H0z" class="st2" transform="translate(20.962 -166.718)"/><text x="11.91" y="217.11" class="st5" transform="translate(20.962 -166.718)">2000</text></g><g id="shape1023-73"><path d="M0 236.27h82.35" class="st6" transform="rotate(90 172.071 174.093)"/></g><g id="shape1024-76"><path d="M0 183.563h72.466v52.703H0z" class="st2" transform="translate(870.048 -166.718)"/><text x="11.91" y="217.11" class="st5" transform="translate(870.048 -166.718)">2017</text></g><g id="shape1026-79"><path d="M0 183.563h72.466v52.703H0z" class="st2" transform="translate(1092.99 -166.718)"/><text x="11.91" y="217.11" class="st5" transform="translate(1092.99 -166.718)">2019</text></g><g id="shape1027-82"><path d="M0 173.681h121.875v62.585H0z" class="st2" transform="translate(1068.28 -76.959)"/><text x="18.87" y="190.28" class="st3" transform="translate(1068.28 -76.959)">System Center<tspan x="28.52" class="st4" dy="1.2em">Operations </tspan><tspan x="19.05" class="st4" dy="1.2em">Manager 2019</tspan></text></g><g id="shape1029-87"><path d="M0 183.563h72.466v52.703H0z" class="st2" transform="translate(755.11 -165.071)"/><text x="11.91" y="217.11" class="st5" transform="translate(755.11 -165.071)">2016</text></g><g id="shape1030-90"><path d="M0 236.27h82.35" class="st6" transform="rotate(90 542.639 544.661)"/></g><g id="shape1031-93"><path d="M0 173.681h121.875v62.585H0z" class="st2" transform="translate(730.406 -76.959)"/><text x="18.87" y="190.28" class="st3" transform="translate(730.406 -76.959)">System Center<tspan x="28.52" class="st4" dy="1.2em">Operations </tspan><tspan x="19.05" class="st4" dy="1.2em">Manager 2016</tspan></text></g><g id="shape1032-98"><path d="M0 236.27h82.35" class="st6" transform="rotate(90 598.633 599.008)"/></g><g id="shape1033-101"><path d="M0 183.563h72.466v52.703H0z" class="st2" transform="translate(982.788 -166.718)"/><text x="11.91" y="217.11" class="st5" transform="translate(982.788 -166.718)">2018</text></g><g id="shape1034-104"><path d="M0 236.27h82.35" class="st6" transform="rotate(90 652.984 655.006)"/></g><g id="shape1035-107"><path d="M0 173.681h121.875v62.585H0z" class="st2" transform="translate(958.084 -76.959)"/><text x="18.87" y="190.28" class="st3" transform="translate(958.084 -76.959)">System Center<tspan x="28.52" class="st4" dy="1.2em">Operations </tspan><tspan x="19.05" class="st4" dy="1.2em">Manager 1801</tspan></text></g><g id="shape1036-112"><path d="M0 173.681h80.701v62.585H0z" class="st2" transform="translate(978.671 -.375)"/><text x="25.14" y="190.28" class="st3" transform="translate(978.671 -.375)">Azure<tspan x="16.32" class="st4" dy="1.2em">Monitor </tspan><tspan x="17.13" class="st4" dy="1.2em">rebrand</tspan></text></g></g></svg>