<svg xmlns="http://www.w3.org/2000/svg" xmlns:ev="http://www.w3.org/2001/xml-events" xmlns:xlink="http://www.w3.org/1999/xlink" width="1936.33" height="1070.333" class="st50" color-interpolation-filters="sRGB" viewBox="0 0 1452.25 802.75" xml:space="preserve"><style type="text/css">.st1{stroke:#e6e6e6;stroke-linecap:round;stroke-linejoin:round;stroke-width:3}.st2{fill:none}.st3,.st4,.st5{stroke:#a5a5a5;stroke-linecap:butt;stroke-width:2.25}.st4,.st5{fill:#e6e6e6;stroke:#e6e6e6;stroke-linecap:round;stroke-linejoin:round}.st5{fill:none;stroke-width:.75}.st6{fill:#000;font-family:Segoe UI Semibold;font-size:1.75001em;font-weight:700}.st10,.st7,.st8,.st9{stroke-linecap:round;stroke-linejoin:round}.st7,.st8,.st9{fill:#fff;stroke:#e6e6e6;stroke-width:2.25}.st8,.st9{fill:none;stroke:none;stroke-width:.75}.st9{stroke:#0078d7;stroke-width:2.25}.st10{fill:#fff;stroke:none;stroke-width:.75}.st11,.st12{fill:#0070c0;font-family:Segoe UI Semibold;font-size:1.58334em}.st12{fill:#000;font-size:1.33333em;font-weight:700}.st13,.st14{fill:#0078d7;stroke:none;stroke-linecap:butt;stroke-width:.75}.st14{fill:#fff;stroke-width:.772727}.st15{fill:#7f7f7f}.st16{fill:#0070c0}.st17,.st18,.st19{fill:#fff;stroke:#0070c0;stroke-linecap:round;stroke-linejoin:round;stroke-width:.5}.st18,.st19{fill:#0070c0;stroke:none;stroke-width:2}.st19{fill:#fff}.st20,.st21{fill:#0078d7;stroke:none;stroke-linecap:butt;stroke-width:.6375}.st21{fill:#7f7f7f;stroke-width:.75}.st22{stroke:#0070c0;stroke-width:4}.st23{fill:#0070c0;stroke:none;stroke-linecap:round;stroke-linejoin:round;stroke-width:.75}.st24{stroke:#0070c0;stroke-width:.5}.st25{fill:#0070c0;stroke:none;stroke-width:.25}.st26{fill:#000;font-family:Segoe UI Semibold;font-size:1.24999em;font-weight:700}.st27,.st28{fill:#fff;stroke:#0078d7;stroke-linecap:round;stroke-linejoin:round;stroke-width:1}.st28{fill:#e4e4e4}.st29{font-size:1em}.st30{fill:none;stroke:#f2f2f2;stroke-linecap:round;stroke-linejoin:round;stroke-width:6}.st31{fill:#000;font-family:Segoe UI;font-size:1.99999em;font-weight:700}.st32,.st33{stroke:#a5a5a5}.st32{marker-end:url(#mrkr3-342);stroke-linecap:round;stroke-linejoin:round;stroke-width:2}.st33{fill:#a5a5a5;fill-opacity:1;stroke-opacity:1;stroke-width:.44247787610619}.st34{fill:none;stroke:#0078d7;stroke-dasharray:3.5,2.5;stroke-linecap:round;stroke-linejoin:round;stroke-width:.5}.st35{fill:#0070c0;font-family:Segoe UI Semibold;font-size:2.16666em;font-weight:700}.st36,.st37{stroke-width:.75}.st36{fill:#fff;stroke:#fff;stroke-linecap:round;stroke-linejoin:round}.st37{fill:#0070c0;stroke:none;stroke-linecap:butt}.st38{stroke:none;stroke-linecap:round;stroke-linejoin:round;stroke-width:2.25}.st38,.st39{fill:#e6e6e6}.st39,.st40,.st41{stroke-linecap:round;stroke-linejoin:round}.st39{stroke:#000;stroke-width:1.5}.st40{fill:none;stroke:none;stroke-width:.24}.st41{fill:#e6e6e6;stroke:#e6e6e6;stroke-width:.75}.st42{fill:#a0a1a2}.st42,.st43,.st44,.st45{stroke:none;stroke-linecap:butt;stroke-width:.75}.st43{fill:#0072c6}.st44{fill:#fff}.st45{fill:#00188f}.st46,.st47{stroke:#7f7f7f;stroke-linecap:round;stroke-linejoin:round;stroke-width:2.25}.st47{stroke-width:4.25}.st48{fill:#7f7f7f;font-family:Segoe UI Semibold;font-size:1.16666em;font-weight:700}.st49{fill:#fff;fill-opacity:.75;stroke:#fff;stroke-dasharray:5.25,3.75;stroke-linecap:round;stroke-linejoin:round;stroke-width:.75}.st50{fill:none;fill-rule:evenodd;font-size:12px;overflow:visible;stroke-linecap:square;stroke-miterlimit:3}</style><defs id="Markers"><g id="lend3"><path d="M 2 1 L 0 0 L 2 -1" style="stroke-linecap:round;stroke-linejoin:round;fill:none"/></g><marker id="mrkr3-342" class="st33" markerUnits="strokeWidth" orient="auto" overflow="visible"><use transform="scale(-2.26,-2.26)" xlink:href="#lend3"/></marker></defs><g><title>Page-1</title><g id="shape19697-1" transform="translate(857.635,310.375) rotate(90)"><title>Sheet.19697</title><path d="M0 802.75 L220.5 802.75" class="st1"/></g><g id="shape19698-4" transform="translate(296.969,-172.728)"><title>Sheet.19698</title><path d="M0 433.75 C8.47 433.75 15.33 438.81 15.33 445.05 L15.33 791.45 C15.33 797.69 8.47 802.75 0 802.75 L0 433.75 Z" class="st2"/><path d="M0 433.75 C8.47 433.75 15.33 438.81 15.33 445.05 L15.33 791.45 C15.33 797.69 8.47 802.75 0 802.75" class="st3"/></g><g id="group19699-7" transform="translate(25.6351,-492.375)"><title>Sheet.19699</title><g id="shape19700-8"><title>Sheet.19700</title><rect width="272.25" height="40.67" x="0" y="762.08" class="st4" rx="9" ry="9"/></g><g id="shape19701-10" transform="translate(18,-3.9375)"><title>Sheet.19701</title><desc>Application</desc><rect width="238.5" height="32.795" x="0" y="769.955" class="st5"/><text x="4" y="792.65" class="st6">Application</text></g></g><g id="group19702-13" transform="translate(25.6351,-431.04)"><title>Sheet.19702</title><g id="shape19703-14"><title>Sheet.19703</title><rect width="272.25" height="40.67" x="0" y="762.08" class="st4" rx="9" ry="9"/></g><g id="shape19704-16" transform="translate(18,-3.9375)"><title>Sheet.19704</title><desc>Operating System</desc><rect width="232.313" height="32.795" x="0" y="769.955" class="st5"/><text x="4" y="792.65" class="st6">Operating System</text></g></g><g id="group19705-19" transform="translate(25.6351,-372.54)"><title>Sheet.19705</title><g id="shape19706-20"><title>Sheet.19706</title><rect width="272.25" height="40.67" x="0" y="762.08" class="st4" rx="9" ry="9"/></g><g id="shape19707-22" transform="translate(18,-3.9375)"><title>Sheet.19707</title><desc>Azure Resources</desc><rect width="238.5" height="32.795" x="0" y="769.955" class="st5"/><text x="4" y="792.65" class="st6">Azure Resources</text></g></g><g id="group19708-25" transform="translate(25.6351,-314.04)"><title>Sheet.19708</title><g id="shape19709-26"><title>Sheet.19709</title><rect width="272.25" height="40.67" x="0" y="762.08" class="st4" rx="9" ry="9"/></g><g id="shape19710-28" transform="translate(18,-3.9375)"><title>Sheet.19710</title><desc>Azure Subscription</desc><rect width="238.5" height="32.795" x="0" y="769.955" class="st5"/><text x="4" y="792.65" class="st6">Azure Subscription</text></g></g><g id="group19711-31" transform="translate(25.6351,-255.54)"><title>Sheet.19711</title><g id="shape19712-32"><title>Sheet.19712</title><rect width="272.25" height="40.67" x="0" y="762.08" class="st4" rx="9" ry="9"/></g><g id="shape19713-34" transform="translate(18,-3.9375)"><title>Sheet.19713</title><desc>Azure Tenant</desc><rect width="238.5" height="32.795" x="0" y="769.955" class="st5"/><text x="4" y="792.65" class="st6">Azure Tenant</text></g></g><g id="group19714-37" transform="translate(23.3851,-179.125)"><title>Sheet.19714</title><g id="shape19715-38"><title>Sheet.19715</title><rect width="276.75" height="47.335" x="0" y="755.415" class="st7" rx="9" ry="9"/></g><g id="shape19716-40" transform="translate(18,-4.58276)"><title>Sheet.19716</title><desc>Custom Sources</desc><rect width="216" height="38.17" x="0" y="764.58" class="st8"/><text x="4" y="789.97" class="st6">Custom Sources</text></g></g><g id="shape19717-43" transform="translate(882.046,955.772) rotate(180)"><title>Sheet.19717</title><path d="M0 217.75 C13.98 217.75 25.32 225.77 25.32 235.66 L25.32 784.84 C25.32 794.73 13.98 802.75 0 802.75 L0 217.75 Z" class="st2"/><path d="M0 217.75 C13.98 217.75 25.32 225.77 25.32 235.66 L25.32 784.84 C25.32 794.73 13.98 802.75 0 802.75" class="st3"/></g><g id="group19718-46" transform="translate(868.885,-189.432)"><title>Sheet.19718</title><g id="shape19719-47" transform="translate(41.5,2.27374E-13)"><title>Sheet.19719</title><rect width="445.5" height="101.591" x="0" y="701.159" class="st9" rx="9" ry="9"/></g><g id="group19720-49" transform="translate(1.91847E-13,-37.4503)"><title>Sheet.19720</title><g id="shape19721-50" transform="translate(7.75,1.13687E-13)"><title>Sheet.19721</title><rect width="66.375" height="24.555" x="0" y="778.195" class="st10"/></g><g id="shape19722-52" transform="translate(-7.99361E-15,-2.13534)"><title>Sheet.19722</title><desc>Respond</desc><rect width="81" height="24.555" x="0" y="778.195" class="st8"/><text x="2.78" y="796.17" class="st11">Respond</text></g></g><g id="group19723-55" transform="translate(163.714,-13.8297)"><title>Sheet.19723</title><g id="shape19724-56"><title>Sheet.19724</title><desc>Autoscale</desc><rect width="80.621" height="26.633" x="0" y="776.117" class="st8"/><text x="4.88" y="794.52" class="st12">Autoscale</text></g><g id="group19725-59" transform="translate(19.2235,-38.423)"><title>Autoscaling.4323</title><g id="shape19726-60" transform="translate(18.6834,-10.984)"><title>Sheet.19726</title><path d="M2.43 797.91 C1.09 797.91 0 798.99 0 800.32 C0 801.66 1.08 802.75 2.43 802.75 C3.75 802.75 4.83 801.66 4.82 800.32 C4.82 798.99 3.75 797.91 2.43 797.91 Z" class="st13"/></g><g id="shape19727-62"><title>Sheet.19727</title><path d="M21.09 779.48 C12.75 779.48 5.24 778.11 0 775.91 L0 802.75 C5.24 800.55 12.75 799.18 21.09 799.18 C29.43 799.18 36.93 800.55 42.17 802.75 L42.17 775.91 C36.93 778.11 29.43 779.48 21.09 779.48 ZM28.67 790.17 L26.59 790.91 L26.09 792.12 L26.96 793.84 L27.08 794.07 L25.86 795.29 L23.85 794.34 L22.67 794.84 L22.07 796.68 L22 796.92 L20.27 796.92 L19.51 794.84 L18.33 794.34 L16.6 795.23 L16.37 795.34 L15.14 794.11 L16.1 792.11 L15.59 790.91 L13.76 790.32 L13.51 790.24 L13.51 788.52 L15.6 787.76 L16.1 786.58 L15.21 784.85 L15.1 784.62 L16.32 783.4 L18.33 784.35 L19.53 783.85 L20.12 782.01 L20.2 781.76 L21.92 781.76 L22.66 783.85 L23.86 784.35 L25.59 783.46 L25.82 783.35 L26.48 784.02 C26.63 784.27 26.78 784.52 26.94 784.76 L26.09 786.58 L26.59 787.76 L28.42 788.36 L28.67 788.44 L28.67 790.17 L28.67 790.17 Z" class="st13"/></g></g></g></g><g id="group19728-64" transform="translate(868.885,-306.773)"><title>Sheet.19728</title><g id="shape19729-65" transform="translate(41.5,2.27374E-13)"><title>Sheet.19729</title><rect width="445.5" height="101.591" x="0" y="701.159" class="st9" rx="9" ry="9"/></g><g id="group19730-67" transform="translate(1.91847E-13,-37.4503)"><title>Sheet.19730</title><g id="shape19731-68" transform="translate(7.75,1.13687E-13)"><title>Sheet.19731</title><rect width="66.375" height="24.555" x="0" y="778.195" class="st10"/></g><g id="shape19732-70" transform="translate(-7.99361E-15,-2.13534)"><title>Sheet.19732</title><desc>Analyze</desc><rect width="81" height="24.555" x="0" y="778.195" class="st8"/><text x="6.85" y="796.17" class="st11">Analyze</text></g></g></g><g id="shape19733-73" transform="translate(910.385,-424.728)"><title>Sheet.19733</title><rect width="445.5" height="101.591" x="0" y="701.159" class="st9" rx="9" ry="9"/></g><g id="group19734-75" transform="translate(868.885,-462.178)"><title>Sheet.19734</title><g id="shape19735-76" transform="translate(7.75,1.13687E-13)"><title>Sheet.19735</title><rect width="66.375" height="24.555" x="0" y="778.195" class="st10"/></g><g id="shape19736-78" transform="translate(-7.99361E-15,-2.13534)"><title>Sheet.19736</title><desc>Visualize</desc><rect width="81" height="24.555" x="0" y="778.195" class="st8"/><text x="2.9" y="796.17" class="st11">Visualize</text></g></g><g id="group19737-81" transform="translate(1159.06,-440.354)"><title>Sheet.19737</title><g id="group19738-82" transform="translate(24.171,-33.6234)"><title>Dashboard.2001</title><g id="group19739-83"><title>Sheet.19739</title><g id="shape19740-84"><title>Sheet.19740</title><path d="M41.03 802.75 L2.74 802.75 C1.19 802.75 0 801.56 0 800.01 L0 769.02 C-0 767.47 1.19 766.28 2.74 766.28 L41.03 766.28 C42.58 766.28 43.76 767.47 43.76 769.02 L43.76 800.01 C43.76 801.56 42.58 802.75 41.03 802.75 Z" class="st14"/></g><g id="shape19741-86" transform="translate(0.911682,-0.911682)"><title>Sheet.19741</title><path d="M40.11 802.75 L1.82 802.75 C0.82 802.75 0 801.93 0 800.93 L0 769.93 C0 768.93 0.82 768.11 1.82 768.11 L40.11 768.11 C41.12 768.11 41.94 768.93 41.94 769.93 L41.94 800.93 C41.94 801.93 41.12 802.75 40.11 802.75 ZM39.2 773.58 L2.74 773.58 L2.74 800.01 L39.2 800.01 L39.2 773.58 ZM20.06 793.63 L5.47 793.63 L5.47 779.05 L20.06 779.05 L20.06 793.63 ZM28.26 785.43 L21.88 785.43 L21.88 779.05 L28.26 779.05 L28.26 785.43 ZM28.26 793.63 L21.88 793.63 L21.88 787.25 L28.26 787.25 L28.26 793.63 ZM36.47 785.43 L30.09 785.43 L30.09 779.05 L36.47 779.05 L36.47 785.43 ZM36.47 793.63 L30.09 793.63 L30.09 787.25 L36.47 787.25 L36.47 793.63 Z" class="st15"/></g></g></g><g id="shape19742-89"><title>Sheet.19742</title><desc>Dashboards</desc><rect width="95.592" height="19.064" x="0" y="783.686" class="st8"/><text x="4.77" y="798.02" class="st12">Dashboards</text></g></g><g id="group19743-92" transform="translate(1061.84,-440.354)"><title>Sheet.19743</title><g id="group19744-93" transform="translate(25.6179,-33.3753)"><title>Sheet.19744</title><g id="group19745-94"><title>Dashboard.1032</title><g id="group19746-95"><title>Sheet.19746</title><g id="shape19747-96"><title>Sheet.19747</title><path d="M41.58 802.75 L2.77 802.75 C1.2 802.75 0 801.55 0 799.98 L0 768.56 C0 766.99 1.2 765.79 2.77 765.79 L41.58 765.79 C43.15 765.79 44.36 766.99 44.36 768.56 L44.36 799.98 C44.36 801.55 43.15 802.75 41.58 802.75 Z" class="st14"/></g><g id="shape19748-98" transform="translate(0.924086,-0.924086)"><title>Sheet.19748</title><path d="M40.66 802.75 L1.85 802.75 C0.83 802.75 0 801.92 0 800.9 L0 769.48 C0 768.47 0.83 767.63 1.85 767.63 L40.66 767.63 C41.68 767.63 42.51 768.47 42.51 769.48 L42.51 800.9 C42.51 801.92 41.68 802.75 40.66 802.75 ZM39.74 773.18 L2.77 773.18 L2.77 799.98 L39.74 799.98 L39.74 773.18 ZM20.33 793.51 L5.54 793.51 L5.54 778.72 L20.33 778.72 L20.33 793.51 ZM28.65 785.19 L22.18 785.19 L22.18 778.72 L28.65 778.72 L28.65 785.19 ZM28.65 793.51 L22.18 793.51 L22.18 787.04 L28.65 787.04 L28.65 793.51 ZM36.96 785.19 L30.49 785.19 L30.49 778.72 L36.96 778.72 L36.96 785.19 ZM36.96 793.51 L30.49 793.51 L30.49 787.04 L36.96 787.04 L36.96 793.51 Z" class="st16"/></g></g></g><g id="shape19749-101" transform="translate(5.18493,-4.55477)"><title>Sheet.19749</title><rect width="34.072" height="13.927" x="0" y="788.823" class="st10"/></g></g><g id="shape19750-103"><title>Sheet.19750</title><desc>Views</desc><rect width="95.592" height="19.064" x="0" y="783.686" class="st8"/><text x="26.82" y="798.02" class="st12">Views</text></g></g><g id="group19751-106" transform="translate(959.606,-440.354)"><title>Sheet.19751</title><g id="shape19752-107"><title>Sheet.19752</title><desc>Workbooks</desc><rect width="95.592" height="19.064" x="0" y="783.686" class="st8"/><text x="6.11" y="798.02" class="st12">Workbooks</text></g><g id="group19753-110" transform="translate(32.9819,-34.2965)"><title>Sheet.19753</title><g id="shape19754-111"><title>Sheet.19754</title><rect width="29.628" height="35.121" x="0" y="767.629" class="st17"/></g><g id="shape19755-113" transform="translate(0,-0.253436)"><title>Sheet.19755</title><rect width="28.364" height="33.58" x="0" y="769.17" class="st18"/></g><g id="shape19756-115" transform="translate(7.09102,-19.7064)"><title>Sheet.19756</title><rect width="14.182" height="8.8" x="0" y="793.95" class="st19"/></g></g></g><g id="shape19757-117" transform="translate(910.385,-542.682)"><title>Sheet.19757</title><rect width="445.5" height="101.591" x="0" y="701.159" class="st9" rx="9" ry="9"/></g><g id="group19758-119" transform="translate(868.885,-580.133)"><title>Sheet.19758</title><g id="shape19759-120" transform="translate(7.75,1.13687E-13)"><title>Sheet.19759</title><rect width="66.375" height="24.555" x="0" y="778.195" class="st10"/></g><g id="shape19760-122" transform="translate(-7.99361E-15,-2.13534)"><title>Sheet.19760</title><desc>Insights</desc><rect width="81" height="24.555" x="0" y="778.195" class="st8"/><text x="6.83" y="796.17" class="st11">Insights</text></g></g><g id="group19761-125" transform="translate(868.885,-70.1824)"><title>Sheet.19761</title><g id="shape19762-126" transform="translate(41.5,2.27374E-13)"><title>Sheet.19762</title><rect width="445.5" height="101.591" x="0" y="701.159" class="st9" rx="9" ry="9"/></g><g id="group19763-128" transform="translate(1.91847E-13,-37.4503)"><title>Sheet.19763</title><g id="shape19764-129" transform="translate(7.75,1.13687E-13)"><title>Sheet.19764</title><rect width="66.375" height="24.555" x="0" y="778.195" class="st10"/></g><g id="shape19765-131" transform="translate(-7.99361E-15,-2.13534)"><title>Sheet.19765</title><desc>Integrate</desc><rect width="81" height="24.555" x="0" y="778.195" class="st8"/><text x="1.03" y="796.17" class="st11">Integrate</text></g></g><g id="group19766-134" transform="translate(152.929,-10.3926)"><title>Sheet.19766</title><g id="shape19767-135" transform="translate(29.3402,-37.3549)"><title>API management.4270</title><path d="M38.94 781.1 C39.03 780.46 39.03 779.73 39.03 779.09 C39.03 771.36 32.66 764.9 24.93 764.9 L24.84 764.9 C19.29 764.9 14.28 768.36 12.01 773.36 C11.37 773.27 10.74 773.27 10.1 773.27 C4.46 773.27 0 777.82 0 783.46 C-0 789.01 4.55 793.56 10.19 793.56 L15.38 793.56 C15.56 794.29 16.01 794.93 16.56 795.47 C18.38 797.29 21.38 797.29 23.2 795.47 C25.02 793.65 25.02 790.74 23.2 788.92 C21.38 787.1 18.47 787.1 16.56 788.92 C16.1 789.38 15.74 789.92 15.56 790.47 C15.56 790.47 10.28 790.38 10.28 790.38 C6.37 790.38 3.28 787.28 3.18 783.46 C3.18 779.55 6.37 776.46 10.28 776.46 C11.01 776.46 11.83 776.64 12.56 776.82 L14.01 777.37 L14.47 775.91 C15.92 771.36 20.2 768.36 24.93 768.36 C31.02 768.36 35.94 773.27 35.94 779.37 C35.94 780.37 35.85 781.37 35.57 782.28 L34.94 784.46 L37.21 784.19 C37.39 784.19 37.48 784.19 37.58 784.19 C39.3 784.19 40.76 785.65 40.76 787.37 C40.76 789.01 39.58 790.38 37.94 790.56 C37.94 790.56 30.39 790.65 29.93 790.65 C29.57 788.56 28.57 786.56 27.02 785.01 C25.11 783.01 22.47 781.92 19.65 781.92 C17.74 781.92 15.92 782.46 14.28 783.37 L15.92 786.01 C17.01 785.28 18.38 784.92 19.74 784.92 C21.65 784.92 23.56 785.65 24.93 787.1 C26.29 788.47 27.11 790.29 27.11 792.29 C27.11 794.2 26.38 796.11 24.93 797.47 C23.56 798.84 21.74 799.66 19.74 799.66 C18.38 799.66 17.01 799.29 15.92 798.56 L14.28 801.2 C15.92 802.2 17.83 802.75 19.74 802.75 C22.56 802.75 25.11 801.66 27.11 799.66 C28.75 798.02 29.75 795.93 30.02 793.74 C30.39 793.74 38.03 793.65 38.03 793.65 L38.12 793.65 C41.4 793.38 43.85 790.65 43.85 787.37 C43.94 784.19 41.85 781.64 38.94 781.1 Z" class="st20"/></g><g id="shape19768-137"><title>Sheet.19768</title><desc>Export APIs</desc><rect width="103.59" height="32.469" x="0" y="770.281" class="st8"/><text x="10.17" y="788.68" class="st12">Export APIs</text></g></g><g id="group19769-140" transform="translate(297.766,-10.3926)"><title>Sheet.19769</title><g id="group19770-141" transform="translate(27.7171,-38.67)"><title>Page-1.4265</title><g id="group19771-142"><title>Sheet.19771</title><g id="shape19772-143"><title>Sheet.19772</title><path d="M39.73 766.13 L39.83 768.58 C40.58 768.58 41.05 768.77 41.43 769.15 C41.72 769.53 41.9 770.2 41.9 771.04 L41.9 780.39 C41.9 782.55 42.66 783.87 43.98 784.44 C42.56 785.01 41.9 786.33 41.9 788.51 L41.9 797.94 C41.9 799.54 41.15 800.3 39.73 800.3 L39.73 802.75 C41.72 802.75 43.14 802.37 43.98 801.62 C44.82 800.86 45.2 799.54 45.2 797.75 L45.2 788.22 C45.2 786.52 45.87 785.67 47.19 785.67 L47.19 783.22 C45.87 783.22 45.2 782.36 45.2 780.77 L45.2 770.95 C45.2 769.15 44.82 767.93 43.98 767.18 C43.14 766.51 41.72 766.13 39.73 766.13 ZM28.69 795.87 C28.69 796.9 29.55 797.75 30.58 797.75 L34.92 797.75 C35.96 797.75 36.81 796.9 36.81 795.87 L36.81 791.53 C36.81 790.48 35.96 789.64 34.92 789.64 L33.89 789.64 L33.89 788.03 C33.89 786.14 32.38 784.44 30.2 783.79 L26.24 782.93 C25.38 782.67 24.77 782.23 24.46 781.7 C24.51 781.45 24.54 781.21 24.54 780.95 L24.54 780.77 L24.54 778.02 L25.77 778.02 C26.8 778.02 27.66 777.18 27.66 776.14 L27.66 771.14 C27.66 770.09 26.8 769.25 25.77 769.25 L20.76 769.25 C19.73 769.25 18.88 770.09 18.88 771.14 L18.88 776.14 C18.88 777.18 19.73 778.02 20.76 778.02 L21.9 778.02 L21.9 780.77 L21.9 780.95 C21.9 781.21 21.92 781.45 21.97 781.7 C21.67 782.23 21.05 782.67 20.2 782.93 L16.99 783.6 C14.82 784.25 13.31 785.95 13.31 787.84 L13.31 789.45 L12.27 789.45 C11.24 789.45 10.38 790.29 10.38 791.34 L10.38 795.68 C10.38 796.71 11.24 797.57 12.27 797.57 L16.61 797.57 C17.66 797.57 18.5 796.71 18.5 795.68 L18.5 791.34 C18.5 790.29 17.66 789.45 16.61 789.45 L15.67 789.45 L15.67 787.84 C15.67 786.99 16.42 786.24 17.66 785.86 L20.86 785.11 C21.78 784.86 22.59 784.42 23.2 783.84 C23.83 784.43 24.64 784.91 25.57 785.2 L29.55 786.05 C30.77 786.43 31.52 787.18 31.52 788.03 L31.52 789.64 L30.58 789.64 C29.55 789.64 28.69 790.48 28.69 791.53 L28.69 795.87 ZM25.02 771.89 L25.02 775.38 L21.52 775.38 L21.52 771.89 L25.02 771.89 ZM7.45 802.75 L7.36 800.3 C6.61 800.3 6.13 800.11 5.75 799.73 C5.47 799.35 5.29 798.7 5.29 797.84 L5.29 788.51 C5.29 786.33 4.53 785.01 3.21 784.44 C4.62 783.87 5.29 782.55 5.29 780.39 L5.29 770.95 C5.29 769.34 6.04 768.58 7.45 768.58 L7.45 766.13 C5.47 766.13 4.05 766.42 3.21 767.18 C2.37 767.93 1.99 769.25 1.99 771.04 L1.99 780.67 C1.99 782.36 1.32 783.22 0 783.22 L0 785.67 C1.32 785.67 1.99 786.52 1.99 788.13 L1.99 797.94 C1.99 799.73 2.37 800.96 3.21 801.72 C4.05 802.37 5.47 802.75 7.45 802.75 Z" class="st21"/></g></g></g><g id="shape19773-145"><title>Sheet.19773</title><desc>Logic Apps</desc><rect width="103.59" height="32.469" x="0" y="770.281" class="st8"/><text x="11.78" y="788.68" class="st12">Logic Apps</text></g></g></g><g id="group19774-148" transform="translate(1176.8,-202.075)"><title>Sheet.19774</title><g id="shape19775-149"><title>Sheet.19775</title><desc>Alerts</desc><rect width="89.219" height="27.964" x="0" y="774.786" class="st8"/><text x="23.6" y="793.19" class="st12">Alerts</text></g><g id="group19776-152" transform="translate(28.848,-34.1405)"><title>Alerts.4226</title><g id="group19777-153"><title>Sheet.19777</title><g id="shape19778-154"><title>Sheet.19778</title><path d="M29.64 791.82 L29.47 791.64 C29.47 791.64 27.59 790.36 26.74 787.29 C26.23 785.32 26.06 784.64 25.97 784.47 C25.54 775.24 23.07 770.03 18.79 768.83 C18.79 768.75 18.79 768.75 18.79 768.66 C18.79 767.38 17.85 766.02 15.72 766.02 C13.92 766.02 12.64 767.13 12.64 768.66 C12.64 768.75 12.64 768.75 12.64 768.83 C8.37 770.03 5.98 775.33 5.47 784.47 C5.38 784.64 5.21 785.24 4.7 787.29 C3.84 790.36 1.96 791.64 1.96 791.64 L1.79 791.82 C0.51 793.27 0 794.55 0.43 795.57 C0.6 796 1.11 796.51 2.48 796.51 L9.57 796.51 L9.74 797.71 C10.34 800.53 12.9 802.75 15.72 802.75 C18.54 802.75 21.1 800.53 21.7 797.71 L21.87 796.51 L28.96 796.51 C30.33 796.51 30.75 796 31.01 795.57 C31.52 794.55 31.01 793.27 29.64 791.82 Z" class="st14"/></g><g id="group19779-156" transform="translate(0.683433,-0.854292)"><title>Sheet.19779</title></g></g><g id="shape19780-157" transform="translate(1.29976,-0.854292)"><title>Sheet.19780</title><path d="M14.59 802.75 C17.07 802.75 19.2 800.7 19.72 798.48 L9.46 798.48 C9.89 800.79 12.03 802.75 14.59 802.75 ZM27.75 796.68 C29.71 796.68 29.37 794.98 27.83 793.1 C27.83 793.1 25.7 791.73 24.76 788.23 C23.99 785.41 23.99 785.32 23.99 785.32 C23.56 777.38 21.77 770.88 16.64 770.2 C16.73 769.95 16.81 769.6 16.81 769.35 C16.81 768.32 16.04 767.55 14.59 767.55 C13.22 767.55 12.37 768.41 12.37 769.35 C12.37 769.69 12.45 769.95 12.54 770.2 C7.41 770.88 5.62 777.38 5.19 785.32 C5.19 785.32 5.19 785.41 4.42 788.23 C3.48 791.64 1.35 793.1 1.35 793.1 C-0.27 794.89 -0.62 796.68 1.35 796.68 L27.75 796.68 Z" class="st16"/></g></g></g><g id="group19781-160" transform="translate(1030.33,-318.598)"><title>Sheet.19781</title><g id="shape19782-161" transform="translate(-23.2358,-1.13687E-13)"><title>Sheet.19782</title><desc>Metric Explorer</desc><rect width="131.625" height="25.419" x="0" y="777.331" class="st8"/><text x="10.26" y="794.84" class="st12">Metric Explorer</text></g><g id="group19783-164" transform="translate(24.2996,-36.4596)"><title>Sheet.19783</title><g id="shape19784-165" transform="translate(805.591,788.67) rotate(90)"><title>Sheet.19784</title><path d="M0 802.75 L14.01 802.75" class="st22"/></g><g id="shape19785-168" transform="translate(815.882,781.739) rotate(90)"><title>Sheet.19785</title><path d="M0 802.75 L21.01 802.75" class="st22"/></g><g id="shape19786-171" transform="translate(826.173,792.245) rotate(90)"><title>Sheet.19786</title><path d="M0 802.75 L10.51 802.75" class="st22"/></g><g id="shape19787-174" transform="translate(836.463,785.095) rotate(90)"><title>Sheet.19787</title><path d="M0 802.75 L17.51 802.75" class="st22"/></g><g id="shape19788-177" transform="translate(3.64708E-14,-21.0005)"><title>Sheet.19788</title><ellipse cx="2.841" cy="799.909" class="st23" rx="2.841" ry="2.841"/></g><g id="shape19789-179" transform="translate(610.294,234.677) rotate(48.0397)"><title>Sheet.19789</title><path d="M0 802.75 L15.05 802.75" class="st24"/></g><g id="shape19790-182" transform="translate(-482.643,139.483) rotate(-37.2694)"><title>Sheet.19790</title><path d="M0 802.75 L11.33 802.75" class="st24"/></g><g id="shape19791-185" transform="translate(-440.581,127.533) rotate(-35.3112)"><title>Sheet.19791</title><path d="M0 802.75 L12.61 802.75" class="st24"/></g><g id="shape19792-188" transform="translate(10.2909,-28.3)"><title>Sheet.19792</title><ellipse cx="2.841" cy="799.909" class="st23" rx="2.841" ry="2.841"/></g><g id="shape19793-190" transform="translate(20.5818,-17.5803)"><title>Sheet.19793</title><ellipse cx="2.841" cy="799.909" class="st23" rx="2.841" ry="2.841"/></g><g id="shape19794-192" transform="translate(30.8728,-24.4409)"><title>Sheet.19794</title><ellipse cx="2.841" cy="799.909" class="st23" rx="2.841" ry="2.841"/></g></g><g id="group19795-194" transform="translate(114.82,-0.387572)"><title>Sheet.19795</title><g id="shape19796-195"><title>Sheet.19796</title><desc>Log Analytics</desc><rect width="152.514" height="25.419" x="0" y="777.331" class="st8"/><text x="27.99" y="794.84" class="st12">Log Analytics</text></g><g id="group19797-198" transform="translate(55.6672,-33.0382)"><title>Sheet.19797</title><g id="shape19798-199" transform="translate(10.6498,-10.2948)"><title>Sheet.19798</title><ellipse cx="15.265" cy="787.485" class="st10" rx="15.265" ry="15.265"/></g><g id="shape19799-201" transform="translate(8.17774,-11.0048)"><title>Sheet.19799</title><ellipse cx="13.845" cy="788.905" class="st10" rx="13.845" ry="13.845"/></g><g id="shape19800-203"><title>Sheet.19800</title><ellipse cx="15.265" cy="787.485" class="st10" rx="15.265" ry="15.265"/></g><g id="shape19801-205" transform="translate(0.948772,-2.28628)"><title>Operational Insights.1120</title><path d="M3.77 787.68 L6.28 787.68 L6.28 785.17 L3.77 785.17 L3.77 787.68 ZM3.77 780.15 L6.28 780.15 L6.28 777.89 C5.4 778.39 4.52 778.89 3.77 779.52 L3.77 780.15 ZM7.53 795.22 L10.04 795.22 L10.04 792.71 L7.53 792.71 L7.53 795.22 ZM7.53 802.75 L10.04 802.75 L10.04 800.24 L7.53 800.24 L7.53 802.75 ZM7.53 791.45 L10.04 791.45 L10.04 788.94 L7.53 788.94 L7.53 791.45 ZM7.53 798.98 L10.04 798.98 L10.04 796.47 L7.53 796.47 L7.53 798.98 ZM3.77 795.22 L6.28 795.22 L6.28 792.71 L3.77 792.71 L3.77 795.22 ZM3.77 798.98 L6.28 798.98 L6.28 796.47 L3.77 796.47 L3.77 798.98 ZM0 791.45 L2.51 791.45 L2.51 788.94 L0 788.94 L0 791.45 ZM0 795.22 L2.51 795.22 L2.51 792.71 L0 792.71 L0 795.22 ZM0 787.68 L2.51 787.68 L2.51 785.17 L0 785.17 L0 787.68 ZM0.25 783.92 L2.51 783.92 L2.51 781.41 L1.88 781.41 C1.26 782.16 0.75 783.04 0.25 783.92 ZM3.77 800.87 C4.52 801.49 5.4 802 6.28 802.5 L6.28 800.24 L3.77 800.24 L3.77 800.87 ZM3.77 783.92 L6.28 783.92 L6.28 781.41 L3.77 781.41 L3.77 783.92 ZM22.6 798.98 L23.23 798.98 C23.86 798.23 24.36 797.35 24.86 796.47 L22.6 796.47 L22.6 798.98 ZM18.83 795.22 L21.34 795.22 L21.34 792.71 L18.83 792.71 L18.83 795.22 ZM18.83 802.5 C19.71 802 20.59 801.49 21.34 800.87 L21.34 800.24 L18.83 800.24 L18.83 802.5 ZM18.83 798.98 L21.34 798.98 L21.34 796.47 L18.83 796.47 L18.83 798.98 ZM7.53 787.68 L10.04 787.68 L10.04 785.17 L7.53 785.17 L7.53 787.68 ZM24.48 765.08 C17.2 765.08 11.3 770.99 11.3 778.27 C11.3 782.16 11.3 791.45 11.3 791.45 C11.3 791.45 21.09 791.45 24.48 791.45 C31.76 791.45 37.67 785.55 37.67 778.27 C37.67 770.99 31.76 765.08 24.48 765.08 ZM20.09 783.92 L17.58 783.92 L17.58 776.38 L20.09 776.38 L20.09 783.92 ZM25.11 783.92 L22.6 783.92 L22.6 778.89 L25.11 778.89 L25.11 783.92 ZM30.13 783.92 L27.62 783.92 L27.62 773.87 L30.13 773.87 L30.13 783.92 ZM22.6 795.22 L25.11 795.22 L25.11 792.71 L22.6 792.71 L22.6 795.22 ZM7.53 780.15 L10.04 780.15 L10.04 777.64 L7.53 777.64 L7.53 780.15 ZM15.07 798.98 L17.58 798.98 L17.58 796.47 L15.07 796.47 L15.07 798.98 ZM11.3 798.98 L13.81 798.98 L13.81 796.47 L11.3 796.47 L11.3 798.98 ZM11.3 795.22 L13.81 795.22 L13.81 792.71 L11.3 792.71 L11.3 795.22 ZM15.07 802.75 L17.58 802.75 L17.58 800.24 L15.07 800.24 L15.07 802.75 Z" class="st25"/></g></g></g></g><g id="group19802-207" transform="translate(960.405,-560.738)"><title>Sheet.19802</title><g id="group19803-208"><title>Sheet.19803</title><g id="shape19804-209"><title>Sheet.19804</title><desc>Application</desc><rect width="93.993" height="26.69" x="0" y="776.06" class="st8"/><text x="8.04" y="793.56" class="st26">Application</text></g><g id="group19805-212" transform="translate(34.7783,-32.9182)"><title>Application Insights.4181</title><g id="shape19806-213" transform="translate(8.59705,-5.18178)"><title>Sheet.19806</title><path d="M0 800.34 L7.6 800.34 L7.6 802.75 L0 802.75 L0 800.34 Z" class="st13"/></g><g id="shape19807-215" transform="translate(8.59705,1.13687E-13)"><title>Sheet.19807</title><path d="M2.36 802.75 L5.18 802.75 L7.54 800.22 L0 800.22 L2.36 802.75 Z" class="st13"/></g><g id="group19808-217" transform="translate(0,-10.2458)"><title>Sheet.19808</title><g id="shape19809-218" transform="translate(7.71379,-10.7758)"><title>Sheet.19809</title><path d="M1.24 800.28 C0.59 800.28 0 800.81 0 801.51 C0 802.16 0.59 802.75 1.24 802.75 L2.47 802.75 L2.47 801.51 C2.36 800.81 1.88 800.28 1.24 800.28 Z" class="st13"/></g><g id="shape19810-220" transform="translate(14.2499,-10.7758)"><title>Sheet.19810</title><path d="M1.24 800.28 C0.59 800.28 0 800.87 0 801.51 L0 802.75 L1.24 802.75 C1.88 802.75 2.47 802.16 2.47 801.51 C2.47 800.87 1.94 800.28 1.24 800.28 Z" class="st13"/></g><g id="shape19811-222"><title>Sheet.19811</title><path d="M23.97 787.68 L23.97 787.5 C23.97 781.96 19.26 777.43 13.43 777.31 C13.31 777.08 9.95 777.37 9.95 777.37 C4.71 778.02 0.59 782.38 0.59 787.44 C0.59 787.56 0 791.62 4.12 794.98 C6.01 796.63 7.95 801.04 8.18 802.34 L8.42 802.75 L16.02 802.75 L16.25 802.34 C16.55 801.04 18.55 796.63 20.31 795.04 C24.44 791.62 23.97 787.85 23.97 787.68 ZM15.49 793.33 L14.25 793.33 L14.25 802.4 L12.84 802.4 L12.84 793.33 L11.6 793.33 L11.6 802.34 L10.19 802.34 L10.19 793.33 L8.95 793.33 C7.54 793.33 6.3 792.09 6.3 790.68 C6.3 789.27 7.48 788.03 8.95 788.03 C10.42 788.03 11.6 789.27 11.6 790.68 L11.6 791.92 L12.84 791.92 L12.84 790.68 C12.84 789.27 14.07 788.03 15.49 788.03 C16.9 788.03 18.14 789.27 18.14 790.68 C18.14 792.15 16.9 793.33 15.49 793.33 Z" class="st13"/></g></g></g></g><g id="group19812-224" transform="translate(111.701,1.13687E-13)"><title>Sheet.19812</title><g id="group19813-225" transform="translate(21.7961,-32.9139)"><title>Sheet.19813</title><g id="group19814-226" transform="translate(7.21367,-24.2372)"><title>Cube.1126</title><g id="shape19815-227"><title>Sheet.19815</title><path d="M0 794.9 L8.14 794.9 L10.1 792.94 L1.96 792.94 L0 794.9 Z" class="st27"/></g><g id="shape19816-229"><title>Sheet.19816</title><path d="M8.14 802.75 L10.1 800.79 L10.1 792.94 L8.14 794.9 L8.14 802.75 Z" class="st28"/></g><g id="shape19814-231"><rect width="8.137" height="7.848" x="0" y="794.902" class="st27"/></g></g><g id="group19817-233" transform="translate(0,-12.1186)"><title>Cube.1129</title><g id="shape19818-234"><title>Sheet.19818</title><path d="M0 794.9 L8.14 794.9 L10.1 792.94 L1.96 792.94 L0 794.9 Z" class="st27"/></g><g id="shape19819-236"><title>Sheet.19819</title><path d="M8.14 802.75 L10.1 800.79 L10.1 792.94 L8.14 794.9 L8.14 802.75 Z" class="st28"/></g><g id="shape19817-238"><rect width="8.137" height="7.848" x="0" y="794.902" class="st27"/></g></g><g id="group19820-240" transform="translate(7.21367,0)"><title>Cube.1132</title><g id="shape19821-241"><title>Sheet.19821</title><path d="M0 794.9 L8.14 794.9 L10.1 792.94 L1.96 792.94 L0 794.9 Z" class="st27"/></g><g id="shape19822-243"><title>Sheet.19822</title><path d="M8.14 802.75 L10.1 800.79 L10.1 792.94 L8.14 794.9 L8.14 802.75 Z" class="st28"/></g><g id="shape19820-245"><rect width="8.137" height="7.848" x="0" y="794.902" class="st27"/></g></g><g id="group19823-247" transform="translate(14.4274,-12.1186)"><title>Cube.1135</title><g id="shape19824-248"><title>Sheet.19824</title><path d="M0 794.9 L8.14 794.9 L10.1 792.94 L1.96 792.94 L0 794.9 Z" class="st27"/></g><g id="shape19825-250"><title>Sheet.19825</title><path d="M8.14 802.75 L10.1 800.79 L10.1 792.94 L8.14 794.9 L8.14 802.75 Z" class="st28"/></g><g id="shape19823-252"><rect width="8.137" height="7.848" x="0" y="794.902" class="st27"/></g></g><g id="group19826-254" transform="translate(28.8547,-12.1186)"><title>Cube.1138</title><g id="shape19827-255"><title>Sheet.19827</title><path d="M0 794.9 L8.14 794.9 L10.1 792.94 L1.96 792.94 L0 794.9 Z" class="st27"/></g><g id="shape19828-257"><title>Sheet.19828</title><path d="M8.14 802.75 L10.1 800.79 L10.1 792.94 L8.14 794.9 L8.14 802.75 Z" class="st28"/></g><g id="shape19826-259"><rect width="8.137" height="7.848" x="0" y="794.902" class="st27"/></g></g><g id="group19829-261" transform="translate(21.641,-24.2372)"><title>Cube.1141</title><g id="shape19830-262"><title>Sheet.19830</title><path d="M0 794.9 L8.14 794.9 L10.1 792.94 L1.96 792.94 L0 794.9 Z" class="st27"/></g><g id="shape19831-264"><title>Sheet.19831</title><path d="M8.14 802.75 L10.1 800.79 L10.1 792.94 L8.14 794.9 L8.14 802.75 Z" class="st28"/></g><g id="shape19829-266"><rect width="8.137" height="7.848" x="0" y="794.902" class="st27"/></g></g><g id="group19832-268" transform="translate(21.641,0)"><title>Cube.1144</title><g id="shape19833-269"><title>Sheet.19833</title><path d="M0 794.9 L8.14 794.9 L10.1 792.94 L1.96 792.94 L0 794.9 Z" class="st27"/></g><g id="shape19834-271"><title>Sheet.19834</title><path d="M8.14 802.75 L10.1 800.79 L10.1 792.94 L8.14 794.9 L8.14 802.75 Z" class="st28"/></g><g id="shape19832-273"><rect width="8.137" height="7.848" x="0" y="794.902" class="st27"/></g></g></g><g id="shape19835-275"><title>Sheet.19835</title><desc>Container</desc><rect width="81" height="26.69" x="0" y="776.06" class="st8"/><text x="7.27" y="793.56" class="st26">Container</text></g></g><g id="group19836-278" transform="translate(199.451,-1.13687E-13)"><title>Sheet.19836</title><g id="group19837-279" transform="translate(27.4894,-31.2664)"><title>Virtual Machine symbol only.4188</title><g id="shape19838-280"><title>Sheet.19838</title><path d="M37.13 766.28 L2.15 766.28 C0.95 766.28 0 767.34 0 768.53 L0 792.92 C0 794.1 0.95 795.15 2.15 795.15 L14.13 795.15 C15.42 799.71 13.68 800.36 6.08 800.36 L6.08 802.75 L15.74 802.75 L22.8 802.75 L31.92 802.75 L31.92 800.36 C24.32 800.36 23.57 799.71 24.86 795.15 L37.13 795.15 C38.31 795.15 39.52 794.1 39.52 792.92 L39.52 768.53 C39.52 767.34 38.31 766.28 37.13 766.28 ZM36.48 769.32 L36.48 792.11 L3.04 792.11 L3.04 769.32 L36.58 769.26 L36.48 769.32 Z" class="st13"/></g><g id="group19839-282" transform="translate(12.6174,-14.6309)"><title>Sheet.19839</title><g id="group19840-283" transform="translate(0.626961,-8.04539)"><title>Sheet.19840</title><g id="shape19841-284"><title>Sheet.19841</title><path d="M12.26 799.13 L6.13 795.59 L0 799.13 L0 799.21 L6.13 802.75 L12.26 799.21 L12.26 799.13 Z" class="st13"/></g></g><g id="group19842-286" transform="translate(7.38357,2.27374E-13)"><title>Sheet.19842</title><g id="shape19843-287"><title>Sheet.19843</title><path d="M0 795.76 L0 802.75 L6.13 799.21 L6.13 792.22 L0 795.76 Z" class="st13"/></g></g><g id="group19844-289"><title>Sheet.19844</title><g id="shape19845-290"><title>Sheet.19845</title><path d="M6.13 795.76 L0 792.22 L0 799.21 L6.13 802.75 L6.13 795.76 Z" class="st13"/></g></g></g></g><g id="shape19846-292"><title>Sheet.19846</title><desc>VM</desc><rect width="93.993" height="26.69" x="0" y="776.06" class="st8"/><text x="35.25" y="793.56" class="st26">VM</text></g></g><g id="group19847-295" transform="translate(287.859,1.13687E-13)"><title>Sheet.19847</title><g id="group19848-296" transform="translate(34.4491,-32.5636)"><title>Sheet.19848</title><g id="shape19849-297" transform="translate(1.81855E-13,-0.062359)"><title>Sheet.19849</title><rect width="25.637" height="25.448" x="0" y="777.302" class="st10"/></g><g id="group19850-299"><title>Sheet.19850</title><g id="shape19851-300"><title>Sheet.19851</title><rect width="11.922" height="11.922" x="0" y="790.828" class="st23"/></g><g id="shape19852-302" transform="translate(13.6257,1.13687E-13)"><title>Sheet.19852</title><rect width="11.922" height="11.922" x="0" y="790.828" class="st23"/></g><g id="shape19853-304" transform="translate(0,-13.6257)"><title>Sheet.19853</title><rect width="11.922" height="11.922" x="0" y="790.828" class="st23"/></g><g id="shape19854-306" transform="translate(13.6257,-13.6257)"><title>Sheet.19854</title><rect width="11.922" height="11.922" x="0" y="790.828" class="st23"/></g><g id="shape19855-308" transform="translate(13.6257,-13.6257)"><title>Sheet.19855</title><ellipse cx="11.284" cy="791.466" class="st23" rx="11.284" ry="11.284"/></g><g id="shape19856-310" transform="translate(15.4353,-15.3289)"><title>Sheet.19856</title><ellipse cx="1.65" cy="801.1" class="st10" rx="1.65" ry="1.65"/></g><g id="shape19857-312" transform="translate(28.9545,-29.061)"><title>Sheet.19857</title><ellipse cx="1.65" cy="801.1" class="st10" rx="1.65" ry="1.65"/></g><g id="shape19858-314" transform="translate(25.6546,-19.5869)"><title>Sheet.19858</title><ellipse cx="1.65" cy="801.1" class="st10" rx="1.65" ry="1.65"/></g><g id="shape19859-316" transform="translate(19.0014,-24.9231)"><title>Sheet.19859</title><ellipse cx="1.65" cy="801.1" class="st10" rx="1.65" ry="1.65"/></g><g id="shape19860-318" transform="translate(291.19,31.6818) rotate(20)"><title>Sheet.19860</title><rect width=".852" height="11.197" x="0" y="791.553" class="st10"/></g><g id="shape19861-320" transform="translate(-587.716,266.211) rotate(-50)"><title>Sheet.19861</title><rect width=".852" height="8.43" x="0" y="794.32" class="st10"/></g><g id="shape19862-322" transform="translate(301.196,27.5792) rotate(20)"><title>Sheet.19862</title><rect width=".852" height="11.197" x="0" y="791.553" class="st10"/></g></g></g><g id="shape19863-324"><title>Sheet.19863</title><desc>Monitoring Solutions</desc><rect width="105.091" height="26.69" x="0" y="776.06" class="st8"/><text x="13.98" y="793.56" class="st26">Monitoring<tspan x="20.89" class="st29" dy="1.2em">Solutions</tspan></text></g></g></g><g id="shape19864-328" transform="translate(3,-32.984)"><title>Sheet.19864</title><desc>Sources</desc><rect width="350.854" height="697.391" x="0" y="105.359" class="st30" rx="9" ry="9"/><text x="131.8" y="130.96" class="st31">Sources</text></g><g id="shape19865-331" transform="translate(558.604,-30.625)"><title>Sheet.19865</title><desc>Storage</desc><rect width="254.396" height="697.391" x="0" y="105.359" class="st30" rx="9" ry="9"/><text x="83.31" y="130.96" class="st31">Storage</text></g><g id="shape19866-334" transform="translate(813,-30.625)"><title>Sheet.19866</title><desc>Usage</desc><rect width="578.666" height="697.391" x="0" y="105.359" class="st30" rx="9" ry="9"/><text x="255" y="130.96" class="st31">Usage</text></g><g id="shape19867-337" transform="translate(779.104,-357.228)"><title>Sheet.19867</title><path d="M0 802.75 L77.62 802.75" class="st32"/></g><g id="shape19868-343" transform="translate(312.301,-357.228)"><title>Sheet.19868</title><path d="M0 802.75 L39.3 802.75" class="st32"/></g><g id="shape19869-348" transform="translate(353.854,-30.625)"><title>Sheet.19869</title><desc>Collectors</desc><rect width="204.75" height="697.391" x="0" y="105.359" class="st30" rx="9" ry="9"/><text x="46.42" y="130.96" class="st31">Collectors</text></g><g id="shape19870-351" transform="translate(558.605,-357.228)"><title>Sheet.19870</title><path d="M0 802.75 L60.3 802.75" class="st32"/></g><g id="shape19871-356" transform="translate(353.854,-0.25)"><title>Sheet.19871</title><rect width="1098.15" height="779.625" x="0" y="23.125" class="st34" rx="13.5" ry="13.5"/></g><g id="group19872-358" transform="translate(565.635,-751.182)"><title>Sheet.19872</title><g id="shape19873-359" transform="translate(0,-3.1631)"><title>Sheet.19873</title><rect width="247.5" height="44.867" x="0" y="757.883" class="st10"/></g><g id="group19874-361" transform="translate(6.75,1.13687E-13)"><title>Sheet.19874</title><g id="shape19875-362" transform="translate(55.4481,-2.27374E-13)"><title>Sheet.19875</title><desc>Azure Monitor</desc><rect width="185.302" height="51.193" x="0" y="751.557" class="st8"/><text x="4" y="784.95" class="st35">Azure Monitor</text></g><g id="group19876-365" transform="translate(0,-0.558656)"><title>Sheet.19876</title><g id="shape19877-366" transform="translate(4.66331,-4.66331)"><title>Sheet.19877</title><ellipse cx="19.949" cy="782.801" class="st36" rx="19.949" ry="19.949"/></g><g id="shape19878-368"><title>Sheet.19878</title><path d="M8.38 779.17 C8.64 782.65 9.99 786.08 12.45 788.86 L16.96 784.34 C15.72 782.81 15 781.02 14.78 779.17 L8.38 779.17 ZM35.33 765.76 C32.55 763.3 29.12 761.95 25.64 761.69 L25.64 768.08 C27.49 768.3 29.28 769.03 30.8 770.27 L35.33 765.76 ZM33.61 774.02 L40.35 774.02 C39.74 771.63 38.59 769.36 36.89 767.39 L32.36 771.9 C32.88 772.56 33.29 773.27 33.61 774.02 ZM16.86 771.9 L12.33 767.39 C9.91 770.2 8.58 773.62 8.37 777.11 L14.76 777.11 C14.95 775.26 15.65 773.44 16.86 771.9 ZM24.61 753.52 C11.02 753.52 0 764.54 0 778.14 C0 791.73 11.02 802.75 24.61 802.75 C38.21 802.75 49.23 791.73 49.23 778.14 C49.23 764.54 38.21 753.52 24.61 753.52 ZM24.61 798.62 C13.32 798.62 4.13 789.43 4.13 778.14 C4.13 766.85 13.32 757.66 24.61 757.66 C35.9 757.66 45.09 766.85 45.09 778.14 C45.09 789.43 35.9 798.62 24.61 798.62 ZM43.58 778.11 C43.57 776.96 42.63 776.03 41.48 776.03 L41.47 776.02 L40.86 776.03 L26.8 776.03 C26.79 776.02 26.79 776.03 26.78 776.03 C26.22 775.47 25.48 775.23 24.75 775.23 C24.01 775.23 23.27 775.51 22.71 776.08 C21.59 777.21 21.6 779.03 22.73 780.15 C23.29 780.7 24.02 780.98 24.75 780.98 C25.42 780.98 26.1 780.69 26.64 780.21 L41.49 780.21 C42.64 780.21 43.57 779.27 43.57 778.12 L43.58 778.12 C43.58 778.12 43.58 778.12 43.58 778.11 C43.58 778.11 43.58 778.11 43.58 778.11 ZM23.58 761.69 C20.1 761.95 16.68 763.3 13.9 765.76 L18.42 770.27 C19.94 769.03 21.74 768.3 23.58 768.08 L23.58 761.69 L23.58 761.69 Z" class="st37"/></g></g></g></g><g id="group19883-370" transform="translate(618.696,-209.478)"><title>Sheet.19883</title><g id="shape19884-371"><title>Sheet.19884</title><rect width="162" height="295.499" x="0" y="507.251" class="st38" rx="9" ry="9"/></g><g id="group19885-373" transform="translate(36.9395,-158.197)"><title>Sheet.19885</title><g id="group19886-374" transform="translate(1.67866E-13,-2.58299)"><title>Can.2034</title><g id="shape19887-375"><title>Sheet.19887</title><path d="M0 795.37 A38.8418 7.38397 -180 1 0 77.68 795.37 L77.68 736.29 L0 736.29 L0 795.37 Z" class="st39"/></g><g id="shape19886-377"><ellipse cx="38.842" cy="736.294" class="st39" rx="38.842" ry="7.384"/></g></g><g id="group19888-379" transform="translate(5.65428,-11.9102)"><title>Can.4121</title><desc>Metrics</desc><g id="shape19889-380"><title>Sheet.19889</title><path d="M0 797.23 A33.1875 5.51854 -180 1 0 66.37 797.23 L66.37 753.08 L0 753.08 L0 797.23 Z" class="st40"/></g><g id="shape19888-382"><ellipse cx="33.188" cy="753.083" class="st40" rx="33.188" ry="5.519"/><text x="6.39" y="779.96" class="st12">Metrics</text></g></g><g id="group19890-385" transform="translate(52.5497,1.13687E-13)"><title>Sheet.19890</title><g id="shape19891-386"><title>Sheet.19891</title><rect width="27.325" height="24.061" x="0" y="778.689" class="st41"/></g><g id="group19892-388" transform="translate(0.759041,-2.54278)"><title>Sheet.19892</title><g id="shape19893-389" transform="translate(804.761,792.78) rotate(90)"><title>Sheet.19893</title><path d="M0 802.75 L9.92 802.75" class="st22"/></g><g id="shape19894-392" transform="translate(812.048,787.873) rotate(90)"><title>Sheet.19894</title><path d="M0 802.75 L14.88 802.75" class="st22"/></g><g id="shape19895-395" transform="translate(819.335,795.311) rotate(90)"><title>Sheet.19895</title><path d="M0 802.75 L7.44 802.75" class="st22"/></g><g id="shape19896-398" transform="translate(826.622,790.249) rotate(90)"><title>Sheet.19896</title><path d="M0 802.75 L12.4 802.75" class="st22"/></g><g id="shape19897-401" transform="translate(2.57294E-14,-14.87)"><title>Sheet.19897</title><ellipse cx="2.011" cy="800.739" class="st23" rx="2.011" ry="2.011"/></g><g id="shape19898-403" transform="translate(606.393,243.827) rotate(48.0397)"><title>Sheet.19898</title><path d="M0 802.75 L10.65 802.75" class="st24"/></g><g id="shape19899-406" transform="translate(-483.657,146.618) rotate(-37.2694)"><title>Sheet.19899</title><path d="M0 802.75 L8.02 802.75" class="st24"/></g><g id="shape19900-409" transform="translate(-447.418,133.416) rotate(-35.3112)"><title>Sheet.19900</title><path d="M0 802.75 L8.93 802.75" class="st24"/></g><g id="shape19901-412" transform="translate(7.28676,-20.0386)"><title>Sheet.19901</title><ellipse cx="2.011" cy="800.739" class="st23" rx="2.011" ry="2.011"/></g><g id="shape19902-414" transform="translate(14.5735,-12.4482)"><title>Sheet.19902</title><ellipse cx="2.011" cy="800.739" class="st23" rx="2.011" ry="2.011"/></g><g id="shape19903-416" transform="translate(21.8603,-17.306)"><title>Sheet.19903</title><ellipse cx="2.011" cy="800.739" class="st23" rx="2.011" ry="2.011"/></g></g></g></g><g id="group19904-418" transform="translate(36.9395,-60.8789)"><title>Sheet.19904</title><g id="group19905-419" transform="translate(4.8761E-13,-5.458)"><title>Can.2074</title><g id="shape19906-420"><title>Sheet.19906</title><path d="M0 795.37 A38.8418 7.38397 -180 1 0 77.68 795.37 L77.68 736.29 L0 736.29 L0 795.37 Z" class="st39"/></g><g id="shape19905-422"><ellipse cx="38.842" cy="736.294" class="st39" rx="38.842" ry="7.384"/></g></g><g id="group19907-424" transform="translate(5.65428,-14.7852)"><title>Can.2076</title><desc>Logs</desc><g id="shape19908-425"><title>Sheet.19908</title><path d="M0 797.23 A33.1875 5.51854 -180 1 0 66.37 797.23 L66.37 753.08 L0 753.08 L0 797.23 Z" class="st40"/></g><g id="shape19907-427"><ellipse cx="33.188" cy="753.083" class="st40" rx="33.188" ry="5.519"/><text x="16.23" y="779.96" class="st12">Logs</text></g></g><g id="group19909-430" transform="translate(56.571,-5.41177)"><title>Sheet.19909</title><g id="shape19910-431"><title>Square.19272</title><rect width="26.164" height="26.164" x="0" y="776.586" class="st38"/></g><g id="group19911-433"><title>Sheet.19911</title><g id="shape19912-434" transform="translate(1.53377E-13,-8.28431)"><title>Sheet.19912</title><rect width="6.373" height="6.373" x="0" y="796.377" class="st42"/></g><g id="shape19913-436" transform="translate(1.53377E-13,-16.5686)"><title>Sheet.19913</title><rect width="6.373" height="6.373" x="0" y="796.377" class="st42"/></g><g id="shape19914-438"><title>Sheet.19914</title><rect width="6.373" height="6.373" x="0" y="796.377" class="st42"/></g><g id="shape19915-440" transform="translate(8.28431,0)"><title>Sheet.19915</title><rect width="6.373" height="6.373" x="0" y="796.377" class="st42"/></g><g id="shape19916-442" transform="translate(16.5686,0)"><title>Sheet.19916</title><rect width="6.373" height="6.373" x="0" y="796.377" class="st42"/></g><g id="shape19917-444" transform="translate(8.28431,-8.28431)"><title>Sheet.19917</title><path d="M11.15 780.45 C4.91 780.45 0 785.36 0 791.6 L0 802.75 C0 802.75 8.28 802.75 11.15 802.75 C17.39 802.75 22.3 797.84 22.3 791.6 C22.3 785.36 17.39 780.45 11.15 780.45 Z" class="st43"/></g><g id="shape19918-446" transform="translate(12.7451,-14.0196)"><title>Sheet.19918</title><path d="M0 795.74 L1.91 795.74 L1.91 802.75 L0 802.75 L0 795.74 Z" class="st44"/></g><g id="shape19919-448" transform="translate(17.2059,-14.0196)"><title>Sheet.19919</title><path d="M0 797.65 L1.91 797.65 L1.91 802.75 L0 802.75 L0 797.65 Z" class="st44"/></g><g id="shape19920-450" transform="translate(21.6667,-14.0196)"><title>Sheet.19920</title><path d="M0 793.19 L1.91 793.19 L1.91 802.75 L0 802.75 L0 793.19 Z" class="st44"/></g></g></g></g></g><g id="shape23-452" transform="translate(269.396,-382.861)"><title>Microsoft Azure.26</title><rect width="25.808" height="20.027" x="0" y="782.723" class="st8"/><switch><svg width="25.808" height="20.027" x="0" y="782.723" color-interpolation-filters="sRGB" enable-background="new" preserveAspectRatio="none" viewBox="268 592.99 67.008 52"><defs><clipPath id="mfid1"><rect id="mfid2" width="67.008" height="52" x="268" y="592.99"/></clipPath></defs><g clip-path="url(#mfid1)"><g><g fill="#0078d7" stroke="none" stroke-width="5.842"><path d="M850,1935 L944,1918 L896,1860 L921,1791 L1004,1935 L850,1935 Z M915,1780 L850,1918 L850,1918 L804,1918 L855,1830 L915,1780 Z" transform="matrix(0.33333, 0, 0, 0.33333, 0, 0)"/></g></g></g></svg></switch><rect width="25.808" height="20.027" x="0" y="782.723" class="st8"/></g><g id="shape24-455" transform="translate(269.396,-324.361)"><title>Microsoft Azure.27</title><rect width="25.808" height="20.027" x="0" y="782.723" class="st8"/><switch><svg width="25.808" height="20.027" x="0" y="782.723" color-interpolation-filters="sRGB" enable-background="new" preserveAspectRatio="none" viewBox="268 592.99 67.008 52"><defs><clipPath id="mfid3"><rect id="mfid4" width="67.008" height="52" x="268" y="592.99"/></clipPath></defs><g clip-path="url(#mfid3)"><g><g fill="#0078d7" stroke="none" stroke-width="5.842"><path d="M850,1935 L944,1918 L896,1860 L921,1791 L1004,1935 L850,1935 Z M915,1780 L850,1918 L850,1918 L804,1918 L855,1830 L915,1780 Z" transform="matrix(0.33333, 0, 0, 0.33333, 0, 0)"/></g></g></g></svg></switch><rect width="25.808" height="20.027" x="0" y="782.723" class="st8"/></g><g id="shape25-458" transform="translate(269.396,-265.861)"><title>Microsoft Azure.28</title><rect width="25.808" height="20.027" x="0" y="782.723" class="st8"/><switch><svg width="25.808" height="20.027" x="0" y="782.723" color-interpolation-filters="sRGB" enable-background="new" preserveAspectRatio="none" viewBox="268 592.99 67.008 52"><defs><clipPath id="mfid5"><rect id="mfid6" width="67.008" height="52" x="268" y="592.99"/></clipPath></defs><g clip-path="url(#mfid5)"><g><g fill="#0078d7" stroke="none" stroke-width="5.842"><path d="M850,1935 L944,1918 L896,1860 L921,1791 L1004,1935 L850,1935 Z M915,1780 L850,1918 L850,1918 L804,1918 L855,1830 L915,1780 Z" transform="matrix(0.33333, 0, 0, 0.33333, 0, 0)"/></g></g></g></svg></switch><rect width="25.808" height="20.027" x="0" y="782.723" class="st8"/></g><g id="group19921-461" transform="translate(236.626,-190.574)"><title>Sheet.19921</title><g id="group19922-462" transform="translate(10.412,1.13687E-13)"><title>Enterprise / Building.8136</title><g id="shape19923-463"><title>Sheet.19923</title><path d="M0 802.75 L7.87 802.75 L7.87 778.31 L0 778.31 L0 802.75 ZM6.49 788.63 L4.39 788.63 L4.39 786.52 L6.49 786.52 L6.49 788.63 ZM1.21 785.48 L1.21 783.38 L3.32 783.38 L3.32 785.48 L1.21 785.48 ZM4.42 785.48 L4.42 783.38 L6.52 783.38 L6.52 785.48 L4.42 785.48 ZM4.39 780.23 L6.49 780.23 L6.49 782.33 L4.39 782.33 L4.39 780.23 ZM1.24 780.23 L3.34 780.23 L3.34 782.33 L1.24 782.33 L1.24 780.23 ZM1.24 786.52 L3.34 786.52 L3.34 788.63 L1.24 788.63 L1.24 786.52 ZM6.49 798.13 L4.39 798.13 L4.39 796.03 L6.49 796.03 L6.49 798.13 ZM1.21 794.99 L1.21 792.88 L3.32 792.88 L3.32 794.99 L1.21 794.99 ZM4.42 794.99 L4.42 792.88 L6.52 792.88 L6.52 794.99 L4.42 794.99 ZM4.39 789.73 L6.49 789.73 L6.49 791.84 L4.39 791.84 L4.39 789.73 ZM1.24 789.73 L3.34 789.73 L3.34 791.84 L1.24 791.84 L1.24 789.73 ZM1.24 796.03 L3.34 796.03 L3.34 798.13 L1.24 798.13 L1.24 796.03 ZM14.4 786.28 L14.4 783.77 L13.26 783.77 L13.26 781.33 L12.43 781.33 L12.43 779.04 L11.75 779.04 L11.75 781.33 L10.92 781.33 L10.92 783.77 L9.78 783.77 L9.78 786.28 L8.85 786.28 L8.85 802.75 L15.33 802.75 L15.33 786.28 L14.4 786.28 ZM12.02 796.19 L9.92 796.19 L9.92 794.09 L12.02 794.09 L12.02 796.19 ZM12.02 789.74 L9.92 789.74 L9.92 787.64 L12.02 787.64 L12.02 789.74 ZM14.49 792.94 L12.39 792.94 L12.39 790.84 L14.49 790.84 L14.49 792.94 Z" class="st45"/></g></g><g id="shape26-465" transform="translate(32.7701,-6.82121E-13)"><title>Microsoft Azure.17</title><rect width="25.808" height="20.027" x="0" y="782.723" class="st8"/><switch><svg width="25.808" height="20.027" x="0" y="782.723" color-interpolation-filters="sRGB" enable-background="new" preserveAspectRatio="none" viewBox="268 592.99 67.008 52"><defs><clipPath id="mfid7"><rect id="mfid8" width="67.008" height="52" x="268" y="592.99"/></clipPath></defs><g clip-path="url(#mfid7)"><g><g fill="#0078d7" stroke="none" stroke-width="5.842"><path d="M850,1935 L944,1918 L896,1860 L921,1791 L1004,1935 L850,1935 Z M915,1780 L850,1918 L850,1918 L804,1918 L855,1830 L915,1780 Z" transform="matrix(0.33333, 0, 0, 0.33333, 0, 0)"/></g></g></g></svg></switch><rect width="25.808" height="20.027" x="0" y="782.723" class="st8"/></g></g><g id="group19924-468" transform="translate(236.626,-439.157)"><title>Sheet.19924</title><g id="group19925-469" transform="translate(10.412,1.13687E-13)"><title>Enterprise / Building.8136</title><g id="shape19926-470"><title>Sheet.19926</title><path d="M0 802.75 L7.87 802.75 L7.87 778.31 L0 778.31 L0 802.75 ZM6.49 788.63 L4.39 788.63 L4.39 786.52 L6.49 786.52 L6.49 788.63 ZM1.21 785.48 L1.21 783.38 L3.32 783.38 L3.32 785.48 L1.21 785.48 ZM4.42 785.48 L4.42 783.38 L6.52 783.38 L6.52 785.48 L4.42 785.48 ZM4.39 780.23 L6.49 780.23 L6.49 782.33 L4.39 782.33 L4.39 780.23 ZM1.24 780.23 L3.34 780.23 L3.34 782.33 L1.24 782.33 L1.24 780.23 ZM1.24 786.52 L3.34 786.52 L3.34 788.63 L1.24 788.63 L1.24 786.52 ZM6.49 798.13 L4.39 798.13 L4.39 796.03 L6.49 796.03 L6.49 798.13 ZM1.21 794.99 L1.21 792.88 L3.32 792.88 L3.32 794.99 L1.21 794.99 ZM4.42 794.99 L4.42 792.88 L6.52 792.88 L6.52 794.99 L4.42 794.99 ZM4.39 789.73 L6.49 789.73 L6.49 791.84 L4.39 791.84 L4.39 789.73 ZM1.24 789.73 L3.34 789.73 L3.34 791.84 L1.24 791.84 L1.24 789.73 ZM1.24 796.03 L3.34 796.03 L3.34 798.13 L1.24 798.13 L1.24 796.03 ZM14.4 786.28 L14.4 783.77 L13.26 783.77 L13.26 781.33 L12.43 781.33 L12.43 779.04 L11.75 779.04 L11.75 781.33 L10.92 781.33 L10.92 783.77 L9.78 783.77 L9.78 786.28 L8.85 786.28 L8.85 802.75 L15.33 802.75 L15.33 786.28 L14.4 786.28 ZM12.02 796.19 L9.92 796.19 L9.92 794.09 L12.02 794.09 L12.02 796.19 ZM12.02 789.74 L9.92 789.74 L9.92 787.64 L12.02 787.64 L12.02 789.74 ZM14.49 792.94 L12.39 792.94 L12.39 790.84 L14.49 790.84 L14.49 792.94 Z" class="st45"/></g></g><g id="shape27-472" transform="translate(32.7701,-6.82121E-13)"><title>Microsoft Azure.17</title><rect width="25.808" height="20.027" x="0" y="782.723" class="st8"/><switch><svg width="25.808" height="20.027" x="0" y="782.723" color-interpolation-filters="sRGB" enable-background="new" preserveAspectRatio="none" viewBox="268 592.99 67.008 52"><defs><clipPath id="mfid9"><rect id="mfid10" width="67.008" height="52" x="268" y="592.99"/></clipPath></defs><g clip-path="url(#mfid9)"><g><g fill="#0078d7" stroke="none" stroke-width="5.842"><path d="M850,1935 L944,1918 L896,1860 L921,1791 L1004,1935 L850,1935 Z M915,1780 L850,1918 L850,1918 L804,1918 L855,1830 L915,1780 Z" transform="matrix(0.33333, 0, 0, 0.33333, 0, 0)"/></g></g></g></svg></switch><rect width="25.808" height="20.027" x="0" y="782.723" class="st8"/></g></g><g id="group19927-475" transform="translate(236.626,-500.492)"><title>Sheet.19927</title><g id="group19928-476" transform="translate(10.412,1.13687E-13)"><title>Enterprise / Building.8136</title><g id="shape19929-477"><title>Sheet.19929</title><path d="M0 802.75 L7.87 802.75 L7.87 778.31 L0 778.31 L0 802.75 ZM6.49 788.63 L4.39 788.63 L4.39 786.52 L6.49 786.52 L6.49 788.63 ZM1.21 785.48 L1.21 783.38 L3.32 783.38 L3.32 785.48 L1.21 785.48 ZM4.42 785.48 L4.42 783.38 L6.52 783.38 L6.52 785.48 L4.42 785.48 ZM4.39 780.23 L6.49 780.23 L6.49 782.33 L4.39 782.33 L4.39 780.23 ZM1.24 780.23 L3.34 780.23 L3.34 782.33 L1.24 782.33 L1.24 780.23 ZM1.24 786.52 L3.34 786.52 L3.34 788.63 L1.24 788.63 L1.24 786.52 ZM6.49 798.13 L4.39 798.13 L4.39 796.03 L6.49 796.03 L6.49 798.13 ZM1.21 794.99 L1.21 792.88 L3.32 792.88 L3.32 794.99 L1.21 794.99 ZM4.42 794.99 L4.42 792.88 L6.52 792.88 L6.52 794.99 L4.42 794.99 ZM4.39 789.73 L6.49 789.73 L6.49 791.84 L4.39 791.84 L4.39 789.73 ZM1.24 789.73 L3.34 789.73 L3.34 791.84 L1.24 791.84 L1.24 789.73 ZM1.24 796.03 L3.34 796.03 L3.34 798.13 L1.24 798.13 L1.24 796.03 ZM14.4 786.28 L14.4 783.77 L13.26 783.77 L13.26 781.33 L12.43 781.33 L12.43 779.04 L11.75 779.04 L11.75 781.33 L10.92 781.33 L10.92 783.77 L9.78 783.77 L9.78 786.28 L8.85 786.28 L8.85 802.75 L15.33 802.75 L15.33 786.28 L14.4 786.28 ZM12.02 796.19 L9.92 796.19 L9.92 794.09 L12.02 794.09 L12.02 796.19 ZM12.02 789.74 L9.92 789.74 L9.92 787.64 L12.02 787.64 L12.02 789.74 ZM14.49 792.94 L12.39 792.94 L12.39 790.84 L14.49 790.84 L14.49 792.94 Z" class="st45"/></g></g><g id="shape28-479" transform="translate(32.7701,-5.68434E-13)"><title>Microsoft Azure.17</title><rect width="25.808" height="20.027" x="0" y="782.723" class="st8"/><switch><svg width="25.808" height="20.027" x="0" y="782.723" color-interpolation-filters="sRGB" enable-background="new" preserveAspectRatio="none" viewBox="268 592.99 67.008 52"><defs><clipPath id="mfid11"><rect id="mfid12" width="67.008" height="52" x="268" y="592.99"/></clipPath></defs><g clip-path="url(#mfid11)"><g><g fill="#0078d7" stroke="none" stroke-width="5.842"><path d="M850,1935 L944,1918 L896,1860 L921,1791 L1004,1935 L850,1935 Z M915,1780 L850,1918 L850,1918 L804,1918 L855,1830 L915,1780 Z" transform="matrix(0.33333, 0, 0, 0.33333, 0, 0)"/></g></g></g></svg></switch><rect width="25.808" height="20.027" x="0" y="782.723" class="st8"/></g></g><g id="shape19930-482" transform="translate(375.229,-464.15)"><title>Sheet.19930</title><desc>Application Insights SDK</desc><rect width="162" height="58.725" x="0" y="744.025" class="st4" rx="9" ry="9"/><text x="8.89" y="768.59" class="st12">Application Insights <tspan x="66.02" class="st29" dy="1.2em">SDK</tspan></text></g><g id="shape19931-486" transform="translate(375.229,-396.184)"><title>Sheet.19931</title><desc>Azure Diagnostics Extension</desc><rect width="162" height="58.725" x="0" y="744.025" class="st4" rx="9" ry="9"/><text x="15.93" y="768.59" class="st12">Azure Diagnostics <tspan x="46.06" class="st29" dy="1.2em">Extension</tspan></text></g><g id="shape19932-490" transform="translate(375.229,-328.433)"><title>Sheet.19932</title><desc>Log Analytics Agent</desc><rect width="162" height="58.725" x="0" y="744.025" class="st4" rx="9" ry="9"/><text x="32.73" y="768.59" class="st12">Log Analytics <tspan x="59" class="st29" dy="1.2em">Agent</tspan></text></g><g id="shape19933-494" transform="translate(375.229,-260.681)"><title>Sheet.19933</title><desc>Activity Log</desc><rect width="162" height="58.725" x="0" y="744.025" class="st4" rx="9" ry="9"/><text x="38.07" y="778.19" class="st12">Activity Log</text></g><g id="shape19934-497" transform="translate(375.229,-191.581)"><title>Sheet.19934</title><desc>Other methods</desc><rect width="162" height="58.725" x="0" y="744.025" class="st4" rx="9" ry="9"/><text x="26.07" y="778.19" class="st12">Other methods</text></g><g id="group19935-500" transform="translate(1253.01,-440.354)"><title>Sheet.19935</title><g id="group19936-501" transform="translate(31.5005,-34.756)"><title>Sheet.19936</title><g id="shape19937-502" transform="translate(-338.047,42.6893) rotate(-24.9048)"><title>Sheet.19937</title><path d="M-0 802.75 A4.4771 3.04495 51.62 0 1 4.84 802.75" class="st46"/></g><g id="shape19938-505" transform="translate(-802.75,783.95) rotate(-90)"><title>Sheet.19938</title><path d="M0 802.75 L13.16 802.75" class="st46"/></g><g id="shape19939-508" transform="translate(240.709,1.57922) rotate(17.1237)"><title>Sheet.19939</title><path d="M0 802.75 L28.23 802.75" class="st46"/></g><g id="shape19940-511" transform="translate(686.527,313.932) rotate(54.7824)"><title>Sheet.19940</title><path d="M0 802.75 A2.50514 1.73576 24.13 0 1 3.26 802.75" class="st46"/></g><g id="shape19941-514" transform="translate(-770.164,797.737) rotate(-90)"><title>Sheet.19941</title><path d="M0 802.75 L18.21 802.75" class="st46"/></g><g id="shape19942-517" transform="translate(600.216,1364.74) rotate(135)"><title>Sheet.19942</title><path d="M-0 802.75 A4.60671 3.43549 108.65 0 1 4.97 802.75" class="st46"/></g><g id="shape19943-520" transform="translate(313.967,50.1726) rotate(21.0375)"><title>Sheet.19943</title><path d="M0 802.75 L2.98 802.75" class="st46"/></g><g id="shape19944-523" transform="translate(802.75,790.217) rotate(90)"><title>Sheet.19944</title><path d="M0 802.75 L5.01 802.75" class="st47"/></g><g id="shape19945-526" transform="translate(809.643,787.71) rotate(90)"><title>Sheet.19945</title><path d="M0 802.75 L10.03 802.75" class="st47"/></g><g id="shape19946-529" transform="translate(816.536,785.204) rotate(90)"><title>Sheet.19946</title><path d="M0 802.75 L15.04 802.75" class="st47"/></g><g id="shape19947-532" transform="translate(823.43,782.697) rotate(90)"><title>Sheet.19947</title><path d="M0 802.75 L20.05 802.75" class="st47"/></g></g><g id="shape19948-535"><title>Sheet.19948</title><desc>Power BI</desc><rect width="95.592" height="19.064" x="0" y="783.686" class="st8"/><text x="15.72" y="798.02" class="st12">Power BI</text></g></g><g id="shape19949-538" transform="translate(831,-30.625)"><title>Sheet.19949</title><desc>Grey items not part of Azure Monitor, but part of Azure Monit...</desc><rect width="605.285" height="24.437" x="0" y="778.313" class="st8"/><text x="79.04" y="794.55" class="st48">Grey items not part of Azure Monitor, but part of Azure Monitor story.</text></g><g id="shape19950-541" transform="translate(842.885,-31.775)"><title>Sheet.19950</title><path d="M0 802.75 L536.67 802.75 L536.67 136.75 L0 136.75 L0 802.75 Z" class="st49"/></g></g></svg>