<svg xmlns="http://www.w3.org/2000/svg" xmlns:ev="http://www.w3.org/2001/xml-events" xmlns:xlink="http://www.w3.org/1999/xlink" width="1008.326" height="530.933" class="st19" color-interpolation-filters="sRGB" viewBox="0 0 756.246 398.199" xml:space="preserve"><style type="text/css">.st1{fill:#fff;stroke:#c3c3c3;stroke-linecap:round;stroke-linejoin:round;stroke-width:1.5}.st2{fill:#00188f;stroke:none;stroke-linecap:butt;stroke-width:.75}.st3{fill:#002060;font-family:Segoe UI;font-size:.75em}.st4{font-size:1em}.st5{fill:none;stroke:none;stroke-linecap:round;stroke-linejoin:round;stroke-width:.75}.st6,.st7{stroke:#00b0f0}.st6{marker-end:url(#mrkr13-21);stroke-linecap:round;stroke-linejoin:round;stroke-width:1.5}.st7{fill:#00b0f0;fill-opacity:1;stroke-opacity:1;stroke-width:.37313432835821}.st8{fill:#7f7f7f;stroke:none;stroke-linecap:butt;stroke-width:.75}.st10,.st9{stroke-linecap:round;stroke-linejoin:round;stroke-width:1.5}.st9{fill:none;stroke:none}.st10{marker-end:url(#mrkr13-96)}.st10,.st11,.st12{stroke:#c00000}.st11{fill:#c00000;fill-opacity:1;stroke-opacity:1;stroke-width:.37313432835821}.st12{stroke-linecap:round;stroke-linejoin:round;stroke-width:1.5}.st13{fill:#002060;font-family:Calibri;font-size:.833336em}.st14{fill:#0070c0;stroke:none;stroke-linecap:round;stroke-linejoin:round;stroke-width:.75}.st15{fill:#fff;font-family:Calibri;font-size:1.00001em}.st16{stroke:#fff;stroke-linecap:butt;stroke-width:1.5}.st16,.st17{fill:#fff}.st17,.st18{stroke-linecap:butt}.st17,.st18{stroke:none;stroke-width:.75}.st18,.st19{fill:none}.st19{fill-rule:evenodd;font-size:12px;overflow:visible;stroke-linecap:square;stroke-miterlimit:3}</style><defs id="Markers"><g id="lend13"><path d="M 3 1 L 0 0 L 3 -1 L 3 1" style="stroke:none"/></g><marker id="mrkr13-21" class="st7" markerUnits="strokeWidth" orient="auto" overflow="visible" refX="-8.04"><use transform="scale(-2.68,-2.68)" xlink:href="#lend13"/></marker><marker id="mrkr13-96" class="st11" markerUnits="strokeWidth" orient="auto" overflow="visible" refX="-8.04"><use transform="scale(-2.68,-2.68)" xlink:href="#lend13"/></marker></defs><g><title>Page-1</title><g id="shape1135-1" transform="translate(2.12062,-0.75)"><title>Sheet.1135</title><rect width="747" height="396.699" x="0" y="1.5" class="st1"/></g><g id="group1000-3" transform="translate(45.1075,-115.5)"><title>Database generic.1000</title><desc>Operations Manager Database</desc><g id="shape1001-4"><title>Sheet.1001</title><path d="M20.21 358.65 C12.26 358.65 5.82 356.8 5.82 354.5 C5.82 352.22 12.26 350.36 20.21 350.36 C28.13 350.36 34.55 352.2 34.55 354.5 C34.55 356.8 28.13 358.65 20.21 358.65 ZM0 382.64 L0 390.17 C0 393.69 7.35 397.58 16.97 398.2 L23.43 398.2 C33.03 397.6 40.38 394.39 40.38 390.84 L40.38 355.32 C40.38 351.4 31.29 347.65 20.16 347.65 C9.04 347.65 0 351.2 0 355.15 L0 370.98 L0 382.64 L0 382.64 Z" class="st2"/></g><g id="shape1000-6"><text x="-20.73" y="416.2" class="st3">Operations Manager<tspan x="1.73" class="st4" dy="1.2em">Database</tspan></text></g></g><g id="shape1021-9" transform="translate(69.6206,-145.2)"><title>Sheet.1021</title><desc>Management Pack</desc><rect width="119.25" height="33.75" x="0" y="364.449" class="st5"/><text x="22.8" y="384.02" class="st3">Management Pack</text></g><g id="shape1023-12" transform="translate(231.761,-135.37)"><title>Server (blade).1633</title><desc>Management server</desc><path d="M29.99 388.44 L1.22 388.44 C0.55 388.44 0 388.99 0 389.66 L0 396.98 C-0 397.65 0.55 398.2 1.22 398.2 L29.99 398.2 C30.67 398.2 31.22 397.65 31.22 396.98 L31.22 389.66 C31.22 388.99 30.67 388.44 29.99 388.44 ZM2.66 396.95 C2.05 396.95 1.56 396.45 1.56 395.84 C1.56 395.23 2.05 394.74 2.66 394.74 C3.27 394.74 3.77 395.23 3.77 395.84 C3.77 396.45 3.27 396.95 2.66 396.95 ZM28.9 396.5 L22.62 396.5 C22.43 396.5 22.27 396.35 22.27 396.16 C22.27 395.97 22.43 395.81 22.62 395.81 L28.9 395.81 C29.09 395.81 29.25 395.97 29.25 396.16 C29.25 396.35 29.09 396.5 28.9 396.5 ZM28.9 395.28 L22.62 395.28 C22.43 395.28 22.27 395.13 22.27 394.94 C22.27 394.75 22.43 394.59 22.62 394.59 L28.9 394.59 C29.09 394.59 29.25 394.75 29.25 394.94 C29.25 395.13 29.09 395.28 28.9 395.28 ZM28.9 394.06 L22.62 394.06 C22.43 394.06 22.27 393.91 22.27 393.72 C22.27 393.53 22.43 393.38 22.62 393.38 L28.9 393.38 C29.09 393.38 29.25 393.53 29.25 393.72 C29.25 393.91 29.09 394.06 28.9 394.06 Z" class="st2"/><text x="-10.86" y="421.83" class="st3">Management<tspan x="3.71" class="st4" dy="1.2em">server</tspan></text></g><g id="shape1024-16" transform="translate(215.871,656.149) rotate(180)"><title>Sheet.1024</title><path d="M0 398.2 L107.19 398.2" class="st6"/></g><g id="group1025-22" transform="translate(378.984,-234.716)"><title>Sheet.1025</title><g id="shape1026-23" transform="translate(28.2774,-37.8098)"><title>Server (blade)</title><path d="M29.99 388.44 L1.22 388.44 C0.55 388.44 0 388.99 0 389.66 L0 396.98 C-0 397.65 0.55 398.2 1.22 398.2 L29.99 398.2 C30.67 398.2 31.22 397.65 31.22 396.98 L31.22 389.66 C31.22 388.99 30.67 388.44 29.99 388.44 ZM2.66 396.95 C2.05 396.95 1.56 396.45 1.56 395.84 C1.56 395.23 2.05 394.74 2.66 394.74 C3.27 394.74 3.77 395.23 3.77 395.84 C3.77 396.45 3.27 396.95 2.66 396.95 ZM28.9 396.5 L22.62 396.5 C22.43 396.5 22.27 396.35 22.27 396.16 C22.27 395.97 22.43 395.81 22.62 395.81 L28.9 395.81 C29.09 395.81 29.25 395.97 29.25 396.16 C29.25 396.35 29.09 396.5 28.9 396.5 ZM28.9 395.28 L22.62 395.28 C22.43 395.28 22.27 395.13 22.27 394.94 C22.27 394.75 22.43 394.59 22.62 394.59 L28.9 394.59 C29.09 394.59 29.25 394.75 29.25 394.94 C29.25 395.13 29.09 395.28 28.9 395.28 ZM28.9 394.06 L22.62 394.06 C22.43 394.06 22.27 393.91 22.27 393.72 C22.27 393.53 22.43 393.38 22.62 393.38 L28.9 393.38 C29.09 393.38 29.25 393.53 29.25 393.72 C29.25 393.91 29.09 394.06 28.9 394.06 Z" class="st2"/></g><g id="group1027-25" transform="translate(55.0672,-38.8125)"><title>gears</title><g id="group1028-26" transform="translate(-4.53637E-13,-6.83609)"><title>Sheet.1028</title><g id="shape1029-27"><title>Sheet.1029</title><path d="M4.22 395.34 C3.48 395.34 2.88 394.73 2.88 393.99 C2.88 393.25 3.48 392.65 4.22 392.65 C4.96 392.65 5.55 393.25 5.55 393.99 C5.56 394.73 4.96 395.34 4.22 395.34 ZM6.84 390.66 L5.75 391.22 L5.09 390.94 L4.67 389.78 L3.72 389.78 L3.34 390.94 L2.68 391.22 L1.56 390.69 L0.88 391.37 L1.44 392.46 L1.16 393.11 L0 393.54 L0 394.49 L1.16 394.87 L1.44 395.53 L0.91 396.64 L1.59 397.32 L2.68 396.77 L3.33 397.04 L3.76 398.2 L4.71 398.2 L5.09 397.04 L5.74 396.77 L6.86 397.29 L7.54 396.62 L6.99 395.54 L7.26 394.87 L8.42 394.45 L8.42 393.49 L7.26 393.11 L6.99 392.46 L7.52 391.35 L6.84 390.66 Z" class="st8"/></g></g><g id="group1030-29" transform="translate(6.25134,5.68434E-14)"><title>Sheet.1030</title><g id="shape1031-30"><title>Sheet.1031</title><path d="M5.96 394.16 C4.91 394.16 4.06 393.3 4.06 392.26 C4.06 391.21 4.92 390.36 5.96 390.36 C7 390.36 7.84 391.21 7.84 392.26 C7.85 393.3 7 394.16 5.96 394.16 ZM9.65 387.56 L8.12 388.34 L7.18 387.96 L6.59 386.31 L5.25 386.31 L4.72 387.96 L3.78 388.34 L2.2 387.6 L1.25 388.56 L2.03 390.09 L1.64 391.02 L0 391.62 L0 392.96 L1.63 393.49 L2.03 394.43 L1.28 396 L2.25 396.96 L3.78 396.18 L4.71 396.57 L5.3 398.2 L6.66 398.2 L7.19 396.57 L8.11 396.18 L9.69 396.92 L10.64 395.96 L9.87 394.44 L10.26 393.49 L11.89 392.91 L11.89 391.55 L10.26 391.02 L9.87 390.09 L10.62 388.53 L9.65 387.56 Z" class="st8"/></g></g></g><g id="shape1032-32" transform="translate(0,-10.6875)"><title>Sheet.1032</title><desc>Domain Controller</desc><rect width="87.773" height="32.625" x="0" y="365.574" class="st9"/><text x="7.27" y="384.59" class="st3">Domain Controller</text></g></g><g id="group1033-35" transform="translate(378.984,-135.828)"><title>Sheet.1033</title><g id="shape1034-36" transform="translate(28.2774,-37.8098)"><title>Server (blade)</title><path d="M29.99 388.44 L1.22 388.44 C0.55 388.44 0 388.99 0 389.66 L0 396.98 C-0 397.65 0.55 398.2 1.22 398.2 L29.99 398.2 C30.67 398.2 31.22 397.65 31.22 396.98 L31.22 389.66 C31.22 388.99 30.67 388.44 29.99 388.44 ZM2.66 396.95 C2.05 396.95 1.56 396.45 1.56 395.84 C1.56 395.23 2.05 394.74 2.66 394.74 C3.27 394.74 3.77 395.23 3.77 395.84 C3.77 396.45 3.27 396.95 2.66 396.95 ZM28.9 396.5 L22.62 396.5 C22.43 396.5 22.27 396.35 22.27 396.16 C22.27 395.97 22.43 395.81 22.62 395.81 L28.9 395.81 C29.09 395.81 29.25 395.97 29.25 396.16 C29.25 396.35 29.09 396.5 28.9 396.5 ZM28.9 395.28 L22.62 395.28 C22.43 395.28 22.27 395.13 22.27 394.94 C22.27 394.75 22.43 394.59 22.62 394.59 L28.9 394.59 C29.09 394.59 29.25 394.75 29.25 394.94 C29.25 395.13 29.09 395.28 28.9 395.28 ZM28.9 394.06 L22.62 394.06 C22.43 394.06 22.27 393.91 22.27 393.72 C22.27 393.53 22.43 393.38 22.62 393.38 L28.9 393.38 C29.09 393.38 29.25 393.53 29.25 393.72 C29.25 393.91 29.09 394.06 28.9 394.06 Z" class="st2"/></g><g id="group1035-38" transform="translate(55.0672,-38.8125)"><title>gears</title><g id="group1036-39" transform="translate(-4.53637E-13,-6.83609)"><title>Sheet.1036</title><g id="shape1037-40"><title>Sheet.1037</title><path d="M4.22 395.34 C3.48 395.34 2.88 394.73 2.88 393.99 C2.88 393.25 3.48 392.65 4.22 392.65 C4.96 392.65 5.55 393.25 5.55 393.99 C5.56 394.73 4.96 395.34 4.22 395.34 ZM6.84 390.66 L5.75 391.22 L5.09 390.94 L4.67 389.78 L3.72 389.78 L3.34 390.94 L2.68 391.22 L1.56 390.69 L0.88 391.37 L1.44 392.46 L1.16 393.11 L0 393.54 L0 394.49 L1.16 394.87 L1.44 395.53 L0.91 396.64 L1.59 397.32 L2.68 396.77 L3.33 397.04 L3.76 398.2 L4.71 398.2 L5.09 397.04 L5.74 396.77 L6.86 397.29 L7.54 396.62 L6.99 395.54 L7.26 394.87 L8.42 394.45 L8.42 393.49 L7.26 393.11 L6.99 392.46 L7.52 391.35 L6.84 390.66 Z" class="st8"/></g></g><g id="group1038-42" transform="translate(6.25134,5.68434E-14)"><title>Sheet.1038</title><g id="shape1039-43"><title>Sheet.1039</title><path d="M5.96 394.16 C4.91 394.16 4.06 393.3 4.06 392.26 C4.06 391.21 4.92 390.36 5.96 390.36 C7 390.36 7.84 391.21 7.84 392.26 C7.85 393.3 7 394.16 5.96 394.16 ZM9.65 387.56 L8.12 388.34 L7.18 387.96 L6.59 386.31 L5.25 386.31 L4.72 387.96 L3.78 388.34 L2.2 387.6 L1.25 388.56 L2.03 390.09 L1.64 391.02 L0 391.62 L0 392.96 L1.63 393.49 L2.03 394.43 L1.28 396 L2.25 396.96 L3.78 396.18 L4.71 396.57 L5.3 398.2 L6.66 398.2 L7.19 396.57 L8.11 396.18 L9.69 396.92 L10.64 395.96 L9.87 394.44 L10.26 393.49 L11.89 392.91 L11.89 391.55 L10.26 391.02 L9.87 390.09 L10.62 388.53 L9.65 387.56 Z" class="st8"/></g></g></g><g id="shape1040-45" transform="translate(0,-10.6875)"><title>Sheet.1040</title><desc>SQL Server</desc><rect width="87.773" height="32.625" x="0" y="365.574" class="st9"/><text x="22.37" y="384.59" class="st3">SQL Server</text></g></g><g id="group1041-48" transform="translate(380.121,-27.75)"><title>Sheet.1041</title><g id="shape1042-49" transform="translate(28.2774,-37.8098)"><title>Server (blade)</title><path d="M29.99 388.44 L1.22 388.44 C0.55 388.44 0 388.99 0 389.66 L0 396.98 C-0 397.65 0.55 398.2 1.22 398.2 L29.99 398.2 C30.67 398.2 31.22 397.65 31.22 396.98 L31.22 389.66 C31.22 388.99 30.67 388.44 29.99 388.44 ZM2.66 396.95 C2.05 396.95 1.56 396.45 1.56 395.84 C1.56 395.23 2.05 394.74 2.66 394.74 C3.27 394.74 3.77 395.23 3.77 395.84 C3.77 396.45 3.27 396.95 2.66 396.95 ZM28.9 396.5 L22.62 396.5 C22.43 396.5 22.27 396.35 22.27 396.16 C22.27 395.97 22.43 395.81 22.62 395.81 L28.9 395.81 C29.09 395.81 29.25 395.97 29.25 396.16 C29.25 396.35 29.09 396.5 28.9 396.5 ZM28.9 395.28 L22.62 395.28 C22.43 395.28 22.27 395.13 22.27 394.94 C22.27 394.75 22.43 394.59 22.62 394.59 L28.9 394.59 C29.09 394.59 29.25 394.75 29.25 394.94 C29.25 395.13 29.09 395.28 28.9 395.28 ZM28.9 394.06 L22.62 394.06 C22.43 394.06 22.27 393.91 22.27 393.72 C22.27 393.53 22.43 393.38 22.62 393.38 L28.9 393.38 C29.09 393.38 29.25 393.53 29.25 393.72 C29.25 393.91 29.09 394.06 28.9 394.06 Z" class="st2"/></g><g id="group1043-51" transform="translate(55.0672,-38.8125)"><title>gears</title><g id="group1044-52" transform="translate(-4.53637E-13,-6.83609)"><title>Sheet.1044</title><g id="shape1045-53"><title>Sheet.1045</title><path d="M4.22 395.34 C3.48 395.34 2.88 394.73 2.88 393.99 C2.88 393.25 3.48 392.65 4.22 392.65 C4.96 392.65 5.55 393.25 5.55 393.99 C5.56 394.73 4.96 395.34 4.22 395.34 ZM6.84 390.66 L5.75 391.22 L5.09 390.94 L4.67 389.78 L3.72 389.78 L3.34 390.94 L2.68 391.22 L1.56 390.69 L0.88 391.37 L1.44 392.46 L1.16 393.11 L0 393.54 L0 394.49 L1.16 394.87 L1.44 395.53 L0.91 396.64 L1.59 397.32 L2.68 396.77 L3.33 397.04 L3.76 398.2 L4.71 398.2 L5.09 397.04 L5.74 396.77 L6.86 397.29 L7.54 396.62 L6.99 395.54 L7.26 394.87 L8.42 394.45 L8.42 393.49 L7.26 393.11 L6.99 392.46 L7.52 391.35 L6.84 390.66 Z" class="st8"/></g></g><g id="group1046-55" transform="translate(6.25134,5.68434E-14)"><title>Sheet.1046</title><g id="shape1047-56"><title>Sheet.1047</title><path d="M5.96 394.16 C4.91 394.16 4.06 393.3 4.06 392.26 C4.06 391.21 4.92 390.36 5.96 390.36 C7 390.36 7.84 391.21 7.84 392.26 C7.85 393.3 7 394.16 5.96 394.16 ZM9.65 387.56 L8.12 388.34 L7.18 387.96 L6.59 386.31 L5.25 386.31 L4.72 387.96 L3.78 388.34 L2.2 387.6 L1.25 388.56 L2.03 390.09 L1.64 391.02 L0 391.62 L0 392.96 L1.63 393.49 L2.03 394.43 L1.28 396 L2.25 396.96 L3.78 396.18 L4.71 396.57 L5.3 398.2 L6.66 398.2 L7.19 396.57 L8.11 396.18 L9.69 396.92 L10.64 395.96 L9.87 394.44 L10.26 393.49 L11.89 392.91 L11.89 391.55 L10.26 391.02 L9.87 390.09 L10.62 388.53 L9.65 387.56 Z" class="st8"/></g></g></g><g id="shape1048-58" transform="translate(0,-10.6875)"><title>Sheet.1048</title><desc>Custom Application</desc><rect width="87.773" height="32.625" x="0" y="365.574" class="st9"/><text x="4.83" y="384.59" class="st3">Custom Application</text></g></g><g id="group1073-61" transform="translate(454.371,-153)"><title>Sheet.1073</title><g id="shape1093-62" transform="translate(22.5,-3.52575)"><title>Sheet.1093</title><desc>Windows Server 2016</desc><rect width="128.25" height="15.75" x="0" y="382.449" class="st5"/><text x="21.29" y="393.02" class="st3">Windows Server 2016</text></g><g id="shape1094-65" transform="translate(24.75,-26.625)"><title>Sheet.1094</title><desc>SQL Server 2016</desc><rect width="87.773" height="15.75" x="0" y="382.449" class="st5"/><text x="11.44" y="393.02" class="st3">SQL Server 2016</text></g></g><g id="group1095-68" transform="translate(463.371,-48.9007)"><title>Sheet.1095</title><g id="shape1109-69" transform="translate(22.5,-3.52575)"><title>Sheet.1109</title><desc>RedHat Linux 6.4</desc><rect width="119.25" height="15.75" x="0" y="382.449" class="st5"/><text x="26.26" y="393.02" class="st3">RedHat Linux 6.4</text></g><g id="shape1110-72" transform="translate(24.75,-26.625)"><title>Sheet.1110</title><desc>Custom MP</desc><rect width="81" height="15.75" x="0" y="382.449" class="st5"/><text x="17.43" y="393.02" class="st3">Custom MP</text></g></g><g id="shape1111-75" transform="translate(278.871,-140.776)"><title>Sheet.1111</title><path d="M0 398.2 L67.5 398.2 L67.5 261.48 L102.69 261.48" class="st6"/></g><g id="shape1112-80" transform="translate(346.371,-178.5)"><title>Sheet.1112</title><path d="M0 398.2 L37.44 398.2" class="st6"/></g><g id="shape1113-85" transform="translate(346.371,-70.5)"><title>Sheet.1113</title><path d="M0 328.45 L0 398.2 L41.94 397.76" class="st6"/></g><g id="group1117-90" transform="translate(276.621,-147)"><title>Sheet.1117</title><g id="shape1114-91"><title>Sheet.1114</title><path d="M114.75 258.7 L71.16 258.7 A9 9 -180 0 0 62.16 267.7 L62.16 389.2 A9 9 0 0 1 53.16 398.2 L12.06 398.2" class="st10"/></g><g id="shape1116-97" transform="translate(62.1563,-40.5)"><title>Sheet.1116</title><path d="M0 398.2 L54.84 398.2" class="st12"/></g></g><g id="shape1119-100" transform="translate(299.097,649.399) scale(1,-1)"><title>Sheet.1119</title><path d="M96.77 327.7 L61.42 327.7 A9 9 -180 0 0 52.42 336.7 L52.42 389.2 A9 9 0 0 1 43.42 398.2 L0 398.2" class="st12"/></g><g id="group1122-103" transform="translate(38.1206,-243.75)"><title>Sheet.1122</title><g id="shape1120-104" transform="translate(13.5,2.25)"><title>Sheet.1120</title><desc>Management pack installed in management group</desc><rect width="148.5" height="27" x="0" y="371.199" class="st5"/><text x="4" y="381.7" class="st13">Management pack installed in <tspan x="4" class="st4" dy="1.2em">management group</tspan></text></g><g id="shape1121-108" transform="translate(0,-13.5)"><title>Sheet.1121</title><desc>1</desc><rect width="13.5" height="13.5" x="0" y="384.699" class="st14"/><text x="4" y="395.05" class="st15">1</text></g></g><g id="group1123-111" transform="translate(168.621,-169.5)"><title>Sheet.1123</title><g id="shape1124-112" transform="translate(15.75,15.75)"><title>Sheet.1124</title><desc>Management server notifies agents of config change and they d...</desc><rect width="144" height="40.5" x="0" y="357.699" class="st5"/><text x="4" y="368.95" class="st13">Management server notifies <tspan x="4" class="st4" dy="1.2em">agents of config change and they </tspan><tspan x="4" class="st4" dy="1.2em">download management pack(s)</tspan></text></g><g id="shape1125-117" transform="translate(0,-13.5)"><title>Sheet.1125</title><desc>2</desc><rect width="13.5" height="13.5" x="0" y="384.699" class="st14"/><text x="4" y="395.05" class="st15">2</text></g></g><g id="group1126-120" transform="translate(446.496,-333.75)"><title>Sheet.1126</title><g id="shape1127-121" transform="translate(14.625,6.75)"><title>Sheet.1127</title><desc>Agent discovers components and loads workloads</desc><rect width="159.75" height="32.588" x="0" y="365.612" class="st5"/><text x="4" y="378.91" class="st13">Agent discovers components and <tspan x="4" class="st4" dy="1.2em">loads workloads</tspan></text></g><g id="shape1128-125" transform="translate(0,-13.5)"><title>Sheet.1128</title><desc>3</desc><rect width="13.5" height="13.5" x="0" y="384.699" class="st14"/><text x="4" y="395.05" class="st15">3</text></g></g><g id="group1129-128" transform="translate(580.371,-192)"><title>Sheet.1129</title><g id="shape1130-129" transform="translate(15.75,-2.25)"><title>Sheet.1130</title><desc>Workflows run on agent</desc><rect width="159.75" height="27" x="0" y="371.199" class="st5"/><text x="4" y="387.7" class="st13">Workflows run on agent</text></g><g id="shape1131-132" transform="translate(0,-13.5)"><title>Sheet.1131</title><desc>4</desc><rect width="13.5" height="13.5" x="0" y="384.699" class="st14"/><text x="4" y="395.05" class="st15">4</text></g></g><g id="group1132-135" transform="translate(166.371,-68.25)"><title>Sheet.1132</title><g id="shape1133-136" transform="translate(15.75,38.25)"><title>Sheet.1133</title><desc>Agent forwards collected data to management servers and is th...</desc><rect width="116.977" height="63" x="0" y="335.199" class="st5"/><text x="4" y="345.7" class="st13">Agent forwards collected <tspan x="4" class="st4" dy="1.2em">data to management </tspan><tspan x="4" class="st4" dy="1.2em">servers and is then written </tspan><tspan x="4" class="st4" dy="1.2em">to Operations Manager </tspan><tspan x="4" class="st4" dy="1.2em">database.</tspan></text></g><g id="shape1134-143" transform="translate(0,-13.5)"><title>Sheet.1134</title><desc>5</desc><rect width="13.5" height="13.5" x="0" y="384.699" class="st14"/><text x="4" y="395.05" class="st15">5</text></g></g><g id="group1163-146" transform="translate(455.121,-261.75)"><title>Sheet.1163</title><g id="shape1069-147" transform="translate(22.875,-4.5)"><title>Sheet.1069</title><desc>Windows Server 2016</desc><rect width="128.25" height="15.75" x="0" y="382.449" class="st5"/><text x="21.29" y="393.02" class="st3">Windows Server 2016</text></g><g id="shape1070-150" transform="translate(17.25,-21.9742)"><title>Sheet.1070</title><desc>DNS Server</desc><rect width="87.773" height="15.75" x="0" y="382.449" class="st5"/><text x="21.36" y="393.02" class="st3">DNS Server</text></g><g id="shape1071-153" transform="translate(12.1875,-43.875)"><title>Sheet.1071</title><desc>Active Directory</desc><rect width="95.625" height="15.75" x="0" y="382.449" class="st5"/><text x="16.33" y="393.02" class="st3">Active Directory</text></g><g id="group1136-156" transform="translate(-1.15907E-13,-36)"><title>Document (opaque).1136</title><g id="shape1137-157"><title>Sheet.1137</title><path d="M16.5 368.2 L0 368.2 L0 398.2 L24 398.2 L24 375.7 L16.5 368.2 Z" class="st16"/></g><g id="shape1138-159"><title>Sheet.1138</title><path d="M16.5 368.2 L0 368.2 L0 398.2 L24 398.2 L24 375.7 L16.5 368.2 Z" class="st17"/></g><g id="shape1139-161"><title>Sheet.1139</title><path d="M16.5 368.2 L0 368.2 L0 398.2 L24 398.2 L24 375.7 L16.5 368.2 ZM22.5 396.7 L1.5 396.7 L1.5 369.7 L15.75 369.7 L15.75 376.45 L22.5 376.45 L22.5 396.7 Z" class="st8"/></g><g id="shape1140-163" transform="translate(5.25,-16.5)"><title>Sheet.1140</title><rect width="13.5" height="1.5" x="0" y="396.699" class="st8"/></g><g id="shape1141-165" transform="translate(5.25,-12.75)"><title>Sheet.1141</title><rect width="13.5" height="1.5" x="0" y="396.699" class="st8"/></g><g id="shape1142-167" transform="translate(5.25,-9)"><title>Sheet.1142</title><rect width="13.5" height="1.5" x="0" y="396.699" class="st8"/></g><g id="shape1143-169" transform="translate(5.25,-5.25)"><title>Sheet.1143</title><rect width="13.5" height="1.5" x="0" y="396.699" class="st8"/></g><g id="shape1144-171"><title>_x3C_Slice_x3E__179_</title><rect width="24" height="30" x="0" y="368.199" class="st18"/></g></g><g id="group1145-173" transform="translate(6,-18)"><title>Document (opaque).1145</title><g id="shape1146-174"><title>Sheet.1146</title><path d="M16.5 368.2 L0 368.2 L0 398.2 L24 398.2 L24 375.7 L16.5 368.2 Z" class="st16"/></g><g id="shape1147-176"><title>Sheet.1147</title><path d="M16.5 368.2 L0 368.2 L0 398.2 L24 398.2 L24 375.7 L16.5 368.2 Z" class="st17"/></g><g id="shape1148-178"><title>Sheet.1148</title><path d="M16.5 368.2 L0 368.2 L0 398.2 L24 398.2 L24 375.7 L16.5 368.2 ZM22.5 396.7 L1.5 396.7 L1.5 369.7 L15.75 369.7 L15.75 376.45 L22.5 376.45 L22.5 396.7 Z" class="st8"/></g><g id="shape1149-180" transform="translate(5.25,-16.5)"><title>Sheet.1149</title><rect width="13.5" height="1.5" x="0" y="396.699" class="st8"/></g><g id="shape1150-182" transform="translate(5.25,-12.75)"><title>Sheet.1150</title><rect width="13.5" height="1.5" x="0" y="396.699" class="st8"/></g><g id="shape1151-184" transform="translate(5.25,-9)"><title>Sheet.1151</title><rect width="13.5" height="1.5" x="0" y="396.699" class="st8"/></g><g id="shape1152-186" transform="translate(5.25,-5.25)"><title>Sheet.1152</title><rect width="13.5" height="1.5" x="0" y="396.699" class="st8"/></g><g id="shape1153-188"><title>_x3C_Slice_x3E__179_</title><rect width="24" height="30" x="0" y="368.199" class="st18"/></g></g><g id="group1154-190" transform="translate(15,-5.68434E-14)"><title>Document (opaque).1154</title><g id="shape1155-191"><title>Sheet.1155</title><path d="M16.5 368.2 L0 368.2 L0 398.2 L24 398.2 L24 375.7 L16.5 368.2 Z" class="st16"/></g><g id="shape1156-193"><title>Sheet.1156</title><path d="M16.5 368.2 L0 368.2 L0 398.2 L24 398.2 L24 375.7 L16.5 368.2 Z" class="st17"/></g><g id="shape1157-195"><title>Sheet.1157</title><path d="M16.5 368.2 L0 368.2 L0 398.2 L24 398.2 L24 375.7 L16.5 368.2 ZM22.5 396.7 L1.5 396.7 L1.5 369.7 L15.75 369.7 L15.75 376.45 L22.5 376.45 L22.5 396.7 Z" class="st8"/></g><g id="shape1158-197" transform="translate(5.25,-16.5)"><title>Sheet.1158</title><rect width="13.5" height="1.5" x="0" y="396.699" class="st8"/></g><g id="shape1159-199" transform="translate(5.25,-12.75)"><title>Sheet.1159</title><rect width="13.5" height="1.5" x="0" y="396.699" class="st8"/></g><g id="shape1160-201" transform="translate(5.25,-9)"><title>Sheet.1160</title><rect width="13.5" height="1.5" x="0" y="396.699" class="st8"/></g><g id="shape1161-203" transform="translate(5.25,-5.25)"><title>Sheet.1161</title><rect width="13.5" height="1.5" x="0" y="396.699" class="st8"/></g><g id="shape1162-205"><title>_x3C_Slice_x3E__179_</title><rect width="24" height="30" x="0" y="368.199" class="st18"/></g></g></g><g id="group1164-207" transform="translate(463.371,-172.5)"><title>Document (opaque).1136</title><g id="shape1165-208"><title>Sheet.1165</title><path d="M16.5 368.2 L0 368.2 L0 398.2 L24 398.2 L24 375.7 L16.5 368.2 Z" class="st16"/></g><g id="shape1166-210"><title>Sheet.1166</title><path d="M16.5 368.2 L0 368.2 L0 398.2 L24 398.2 L24 375.7 L16.5 368.2 Z" class="st17"/></g><g id="shape1167-212"><title>Sheet.1167</title><path d="M16.5 368.2 L0 368.2 L0 398.2 L24 398.2 L24 375.7 L16.5 368.2 ZM22.5 396.7 L1.5 396.7 L1.5 369.7 L15.75 369.7 L15.75 376.45 L22.5 376.45 L22.5 396.7 Z" class="st8"/></g><g id="shape1168-214" transform="translate(5.25,-16.5)"><title>Sheet.1168</title><rect width="13.5" height="1.5" x="0" y="396.699" class="st8"/></g><g id="shape1169-216" transform="translate(5.25,-12.75)"><title>Sheet.1169</title><rect width="13.5" height="1.5" x="0" y="396.699" class="st8"/></g><g id="shape1170-218" transform="translate(5.25,-9)"><title>Sheet.1170</title><rect width="13.5" height="1.5" x="0" y="396.699" class="st8"/></g><g id="shape1171-220" transform="translate(5.25,-5.25)"><title>Sheet.1171</title><rect width="13.5" height="1.5" x="0" y="396.699" class="st8"/></g><g id="shape1172-222"><title>_x3C_Slice_x3E__179_</title><rect width="24" height="30" x="0" y="368.199" class="st18"/></g></g><g id="group1173-224" transform="translate(470.121,-153)"><title>Document (opaque).1173</title><g id="shape1174-225"><title>Sheet.1174</title><path d="M16.5 368.2 L0 368.2 L0 398.2 L24 398.2 L24 375.7 L16.5 368.2 Z" class="st16"/></g><g id="shape1175-227"><title>Sheet.1175</title><path d="M16.5 368.2 L0 368.2 L0 398.2 L24 398.2 L24 375.7 L16.5 368.2 Z" class="st17"/></g><g id="shape1176-229"><title>Sheet.1176</title><path d="M16.5 368.2 L0 368.2 L0 398.2 L24 398.2 L24 375.7 L16.5 368.2 ZM22.5 396.7 L1.5 396.7 L1.5 369.7 L15.75 369.7 L15.75 376.45 L22.5 376.45 L22.5 396.7 Z" class="st8"/></g><g id="shape1177-231" transform="translate(5.25,-16.5)"><title>Sheet.1177</title><rect width="13.5" height="1.5" x="0" y="396.699" class="st8"/></g><g id="shape1178-233" transform="translate(5.25,-12.75)"><title>Sheet.1178</title><rect width="13.5" height="1.5" x="0" y="396.699" class="st8"/></g><g id="shape1179-235" transform="translate(5.25,-9)"><title>Sheet.1179</title><rect width="13.5" height="1.5" x="0" y="396.699" class="st8"/></g><g id="shape1180-237" transform="translate(5.25,-5.25)"><title>Sheet.1180</title><rect width="13.5" height="1.5" x="0" y="396.699" class="st8"/></g><g id="shape1181-239"><title>_x3C_Slice_x3E__179_</title><rect width="24" height="30" x="0" y="368.199" class="st18"/></g></g><g id="group1182-241" transform="translate(476.121,-68.4007)"><title>Document (opaque).1182</title><g id="shape1183-242"><title>Sheet.1183</title><path d="M16.5 368.2 L0 368.2 L0 398.2 L24 398.2 L24 375.7 L16.5 368.2 Z" class="st16"/></g><g id="shape1184-244"><title>Sheet.1184</title><path d="M16.5 368.2 L0 368.2 L0 398.2 L24 398.2 L24 375.7 L16.5 368.2 Z" class="st17"/></g><g id="shape1185-246"><title>Sheet.1185</title><path d="M16.5 368.2 L0 368.2 L0 398.2 L24 398.2 L24 375.7 L16.5 368.2 ZM22.5 396.7 L1.5 396.7 L1.5 369.7 L15.75 369.7 L15.75 376.45 L22.5 376.45 L22.5 396.7 Z" class="st8"/></g><g id="shape1186-248" transform="translate(5.25,-16.5)"><title>Sheet.1186</title><rect width="13.5" height="1.5" x="0" y="396.699" class="st8"/></g><g id="shape1187-250" transform="translate(5.25,-12.75)"><title>Sheet.1187</title><rect width="13.5" height="1.5" x="0" y="396.699" class="st8"/></g><g id="shape1188-252" transform="translate(5.25,-9)"><title>Sheet.1188</title><rect width="13.5" height="1.5" x="0" y="396.699" class="st8"/></g><g id="shape1189-254" transform="translate(5.25,-5.25)"><title>Sheet.1189</title><rect width="13.5" height="1.5" x="0" y="396.699" class="st8"/></g><g id="shape1190-256"><title>_x3C_Slice_x3E__179_</title><rect width="24" height="30" x="0" y="368.199" class="st18"/></g></g><g id="group1191-258" transform="translate(482.121,-48.9007)"><title>Document (opaque).1191</title><g id="shape1192-259"><title>Sheet.1192</title><path d="M16.5 368.2 L0 368.2 L0 398.2 L24 398.2 L24 375.7 L16.5 368.2 Z" class="st16"/></g><g id="shape1193-261"><title>Sheet.1193</title><path d="M16.5 368.2 L0 368.2 L0 398.2 L24 398.2 L24 375.7 L16.5 368.2 Z" class="st17"/></g><g id="shape1194-263"><title>Sheet.1194</title><path d="M16.5 368.2 L0 368.2 L0 398.2 L24 398.2 L24 375.7 L16.5 368.2 ZM22.5 396.7 L1.5 396.7 L1.5 369.7 L15.75 369.7 L15.75 376.45 L22.5 376.45 L22.5 396.7 Z" class="st8"/></g><g id="shape1195-265" transform="translate(5.25,-16.5)"><title>Sheet.1195</title><rect width="13.5" height="1.5" x="0" y="396.699" class="st8"/></g><g id="shape1196-267" transform="translate(5.25,-12.75)"><title>Sheet.1196</title><rect width="13.5" height="1.5" x="0" y="396.699" class="st8"/></g><g id="shape1197-269" transform="translate(5.25,-9)"><title>Sheet.1197</title><rect width="13.5" height="1.5" x="0" y="396.699" class="st8"/></g><g id="shape1198-271" transform="translate(5.25,-5.25)"><title>Sheet.1198</title><rect width="13.5" height="1.5" x="0" y="396.699" class="st8"/></g><g id="shape1199-273"><title>_x3C_Slice_x3E__179_</title><rect width="24" height="30" x="0" y="368.199" class="st18"/></g></g><g id="group1200-275" transform="translate(71.1206,-201.75)"><title>Document (opaque).1200</title><g id="shape1201-276"><title>Sheet.1201</title><path d="M16.5 368.2 L0 368.2 L0 398.2 L24 398.2 L24 375.7 L16.5 368.2 Z" class="st16"/></g><g id="shape1202-278"><title>Sheet.1202</title><path d="M16.5 368.2 L0 368.2 L0 398.2 L24 398.2 L24 375.7 L16.5 368.2 Z" class="st17"/></g><g id="shape1203-280"><title>Sheet.1203</title><path d="M16.5 368.2 L0 368.2 L0 398.2 L24 398.2 L24 375.7 L16.5 368.2 ZM22.5 396.7 L1.5 396.7 L1.5 369.7 L15.75 369.7 L15.75 376.45 L22.5 376.45 L22.5 396.7 Z" class="st8"/></g><g id="shape1204-282" transform="translate(5.25,-16.5)"><title>Sheet.1204</title><rect width="13.5" height="1.5" x="0" y="396.699" class="st8"/></g><g id="shape1205-284" transform="translate(5.25,-12.75)"><title>Sheet.1205</title><rect width="13.5" height="1.5" x="0" y="396.699" class="st8"/></g><g id="shape1206-286" transform="translate(5.25,-9)"><title>Sheet.1206</title><rect width="13.5" height="1.5" x="0" y="396.699" class="st8"/></g><g id="shape1207-288" transform="translate(5.25,-5.25)"><title>Sheet.1207</title><rect width="13.5" height="1.5" x="0" y="396.699" class="st8"/></g><g id="shape1208-290"><title>_x3C_Slice_x3E__179_</title><rect width="24" height="30" x="0" y="368.199" class="st18"/></g></g><g id="group1209-292" transform="translate(80.1206,-186.75)"><title>Document (opaque).1209</title><g id="shape1210-293"><title>Sheet.1210</title><path d="M16.5 368.2 L0 368.2 L0 398.2 L24 398.2 L24 375.7 L16.5 368.2 Z" class="st16"/></g><g id="shape1211-295"><title>Sheet.1211</title><path d="M16.5 368.2 L0 368.2 L0 398.2 L24 398.2 L24 375.7 L16.5 368.2 Z" class="st17"/></g><g id="shape1212-297"><title>Sheet.1212</title><path d="M16.5 368.2 L0 368.2 L0 398.2 L24 398.2 L24 375.7 L16.5 368.2 ZM22.5 396.7 L1.5 396.7 L1.5 369.7 L15.75 369.7 L15.75 376.45 L22.5 376.45 L22.5 396.7 Z" class="st8"/></g><g id="shape1213-299" transform="translate(5.25,-16.5)"><title>Sheet.1213</title><rect width="13.5" height="1.5" x="0" y="396.699" class="st8"/></g><g id="shape1214-301" transform="translate(5.25,-12.75)"><title>Sheet.1214</title><rect width="13.5" height="1.5" x="0" y="396.699" class="st8"/></g><g id="shape1215-303" transform="translate(5.25,-9)"><title>Sheet.1215</title><rect width="13.5" height="1.5" x="0" y="396.699" class="st8"/></g><g id="shape1216-305" transform="translate(5.25,-5.25)"><title>Sheet.1216</title><rect width="13.5" height="1.5" x="0" y="396.699" class="st8"/></g><g id="shape1217-307"><title>_x3C_Slice_x3E__179_</title><rect width="24" height="30" x="0" y="368.199" class="st18"/></g></g><g id="group1218-309" transform="translate(89.1206,-171.75)"><title>Document (opaque).1218</title><g id="shape1219-310"><title>Sheet.1219</title><path d="M16.5 368.2 L0 368.2 L0 398.2 L24 398.2 L24 375.7 L16.5 368.2 Z" class="st16"/></g><g id="shape1220-312"><title>Sheet.1220</title><path d="M16.5 368.2 L0 368.2 L0 398.2 L24 398.2 L24 375.7 L16.5 368.2 Z" class="st17"/></g><g id="shape1221-314"><title>Sheet.1221</title><path d="M16.5 368.2 L0 368.2 L0 398.2 L24 398.2 L24 375.7 L16.5 368.2 ZM22.5 396.7 L1.5 396.7 L1.5 369.7 L15.75 369.7 L15.75 376.45 L22.5 376.45 L22.5 396.7 Z" class="st8"/></g><g id="shape1222-316" transform="translate(5.25,-16.5)"><title>Sheet.1222</title><rect width="13.5" height="1.5" x="0" y="396.699" class="st8"/></g><g id="shape1223-318" transform="translate(5.25,-12.75)"><title>Sheet.1223</title><rect width="13.5" height="1.5" x="0" y="396.699" class="st8"/></g><g id="shape1224-320" transform="translate(5.25,-9)"><title>Sheet.1224</title><rect width="13.5" height="1.5" x="0" y="396.699" class="st8"/></g><g id="shape1225-322" transform="translate(5.25,-5.25)"><title>Sheet.1225</title><rect width="13.5" height="1.5" x="0" y="396.699" class="st8"/></g><g id="shape1226-324"><title>_x3C_Slice_x3E__179_</title><rect width="24" height="30" x="0" y="368.199" class="st18"/></g></g></g></svg>